<ttFont>
    <TTGlyph name=".notdef" xMin="50" yMin="0" xMax="450" yMax="580">
      <contour>
        <pt x="50" y="0" on="1"/>
        <pt x="50" y="580" on="1"/>
        <pt x="450" y="580" on="1"/>
        <pt x="450" y="0" on="1"/>
      </contour>
      <contour>
        <pt x="80" y="30" on="1"/>
        <pt x="420" y="30" on="1"/>
        <pt x="420" y="550" on="1"/>
        <pt x="80" y="550" on="1"/>
      </contour>
    </TTGlyph>
    <TTGlyph name="A" xMin="18" yMin="0" xMax="528" yMax="701">
      <contour>
        <pt x="117" y="30" on="1"/>
        <pt x="485" y="30" on="1"/>
        <pt x="273" y="613" on="1"/>
        <pt x="50" y="0" on="1"/>
        <pt x="18" y="0" on="1"/>
        <pt x="273" y="701" on="1"/>
        <pt x="528" y="0" on="1"/>
        <pt x="117" y="0" on="1"/>
      </contour>
    </TTGlyph>
    <TTGlyph name="AE" xMin="2" yMin="0" xMax="769" yMax="700">
      <contour>
        <pt x="687" y="366" on="1"/>
        <pt x="390" y="366" on="1"/>
        <pt x="696" y="670" on="1"/>
        <pt x="358" y="670" on="1"/>
        <pt x="358" y="30" on="1"/>
        <pt x="746" y="30" on="1"/>
        <pt x="746" y="0" on="1"/>
        <pt x="328" y="0" on="1"/>
        <pt x="328" y="627" on="1"/>
        <pt x="49" y="30" on="1"/>
        <pt x="234" y="30" on="1"/>
        <pt x="234" y="0" on="1"/>
        <pt x="2" y="0" on="1"/>
        <pt x="328" y="700" on="1"/>
        <pt x="769" y="700" on="1"/>
        <pt x="463" y="396" on="1"/>
        <pt x="687" y="396" on="1"/>
      </contour>
    </TTGlyph>
    <TTGlyph name="Aacute" xMin="18" yMin="0" xMax="528" yMax="880">
      <contour>
        <pt x="367" y="860" on="1"/>
        <pt x="250" y="721" on="1"/>
        <pt x="227" y="740" on="1"/>
        <pt x="344" y="880" on="1"/>
      </contour>
      <contour>
        <pt x="117" y="30" on="1"/>
        <pt x="485" y="30" on="1"/>
        <pt x="273" y="613" on="1"/>
        <pt x="50" y="0" on="1"/>
        <pt x="18" y="0" on="1"/>
        <pt x="273" y="701" on="1"/>
        <pt x="528" y="0" on="1"/>
        <pt x="117" y="0" on="1"/>
      </contour>
    </TTGlyph>
    <TTGlyph name="Abreve" xMin="18" yMin="0" xMax="528" yMax="819">
      <contour>
        <pt x="373" y="819" on="1"/>
        <pt x="373" y="776" on="0"/>
        <pt x="313" y="719" on="0"/>
        <pt x="273" y="719" on="1"/>
        <pt x="230" y="719" on="0"/>
        <pt x="173" y="779" on="0"/>
        <pt x="173" y="819" on="1"/>
        <pt x="203" y="819" on="1"/>
        <pt x="203" y="789" on="0"/>
        <pt x="245" y="749" on="0"/>
        <pt x="273" y="749" on="1"/>
        <pt x="303" y="749" on="0"/>
        <pt x="343" y="791" on="0"/>
        <pt x="343" y="819" on="1"/>
      </contour>
      <contour>
        <pt x="117" y="30" on="1"/>
        <pt x="485" y="30" on="1"/>
        <pt x="273" y="613" on="1"/>
        <pt x="50" y="0" on="1"/>
        <pt x="18" y="0" on="1"/>
        <pt x="273" y="701" on="1"/>
        <pt x="528" y="0" on="1"/>
        <pt x="117" y="0" on="1"/>
      </contour>
    </TTGlyph>
    <TTGlyph name="Acircumflex" xMin="18" yMin="0" xMax="528" yMax="864">
      <contour>
        <pt x="273" y="864" on="1"/>
        <pt x="390" y="724" on="1"/>
        <pt x="367" y="705" on="1"/>
        <pt x="273" y="817" on="1"/>
        <pt x="179" y="705" on="1"/>
        <pt x="156" y="724" on="1"/>
      </contour>
      <contour>
        <pt x="117" y="30" on="1"/>
        <pt x="485" y="30" on="1"/>
        <pt x="273" y="613" on="1"/>
        <pt x="50" y="0" on="1"/>
        <pt x="18" y="0" on="1"/>
        <pt x="273" y="701" on="1"/>
        <pt x="528" y="0" on="1"/>
        <pt x="117" y="0" on="1"/>
      </contour>
    </TTGlyph>
    <TTGlyph name="Adieresis" xMin="18" yMin="0" xMax="528" yMax="812">
      <contour>
        <pt x="329" y="812" on="1"/>
        <pt x="395" y="812" on="1"/>
        <pt x="395" y="754" on="1"/>
        <pt x="329" y="754" on="1"/>
      </contour>
      <contour>
        <pt x="151" y="812" on="1"/>
        <pt x="217" y="812" on="1"/>
        <pt x="217" y="754" on="1"/>
        <pt x="151" y="754" on="1"/>
      </contour>
      <contour>
        <pt x="117" y="30" on="1"/>
        <pt x="485" y="30" on="1"/>
        <pt x="273" y="613" on="1"/>
        <pt x="50" y="0" on="1"/>
        <pt x="18" y="0" on="1"/>
        <pt x="273" y="701" on="1"/>
        <pt x="528" y="0" on="1"/>
        <pt x="117" y="0" on="1"/>
      </contour>
    </TTGlyph>
    <TTGlyph name="Agrave" xMin="18" yMin="0" xMax="528" yMax="880">
      <contour>
        <pt x="180" y="860" on="1"/>
        <pt x="203" y="880" on="1"/>
        <pt x="320" y="740" on="1"/>
        <pt x="297" y="721" on="1"/>
      </contour>
      <contour>
        <pt x="117" y="30" on="1"/>
        <pt x="485" y="30" on="1"/>
        <pt x="273" y="613" on="1"/>
        <pt x="50" y="0" on="1"/>
        <pt x="18" y="0" on="1"/>
        <pt x="273" y="701" on="1"/>
        <pt x="528" y="0" on="1"/>
        <pt x="117" y="0" on="1"/>
      </contour>
    </TTGlyph>
    <TTGlyph name="Amacron" xMin="18" yMin="0" xMax="528" yMax="800">
      <contour>
        <pt x="117" y="30" on="1"/>
        <pt x="485" y="30" on="1"/>
        <pt x="273" y="613" on="1"/>
        <pt x="50" y="0" on="1"/>
        <pt x="18" y="0" on="1"/>
        <pt x="273" y="701" on="1"/>
        <pt x="528" y="0" on="1"/>
        <pt x="117" y="0" on="1"/>
      </contour>
      <contour>
        <pt x="163" y="770" on="1"/>
        <pt x="163" y="800" on="1"/>
        <pt x="383" y="800" on="1"/>
        <pt x="383" y="770" on="1"/>
      </contour>
    </TTGlyph>
    <TTGlyph name="Aogonek" xMin="18" yMin="-196" xMax="528" yMax="701">
      <contour>
        <pt x="117" y="30" on="1"/>
        <pt x="485" y="30" on="1"/>
        <pt x="273" y="613" on="1"/>
        <pt x="50" y="0" on="1"/>
        <pt x="18" y="0" on="1"/>
        <pt x="273" y="701" on="1"/>
        <pt x="528" y="0" on="1"/>
        <pt x="457" y="0" on="1"/>
        <pt x="416" y="-26" on="0"/>
        <pt x="416" y="-76" on="1"/>
        <pt x="416" y="-114" on="0"/>
        <pt x="468" y="-166" on="0"/>
        <pt x="506" y="-166" on="1"/>
        <pt x="506" y="-196" on="1"/>
        <pt x="456" y="-196" on="0"/>
        <pt x="386" y="-126" on="0"/>
        <pt x="386" y="-76" on="1"/>
        <pt x="386" y="-33" on="0"/>
        <pt x="413" y="0" on="1"/>
        <pt x="117" y="0" on="1"/>
      </contour>
    </TTGlyph>
    <TTGlyph name="Aring" xMin="18" yMin="0" xMax="528" yMax="851">
      <contour>
        <pt x="273" y="826" on="1"/>
        <pt x="254" y="826" on="0"/>
        <pt x="228" y="799" on="0"/>
        <pt x="228" y="781" on="1"/>
        <pt x="228" y="762" on="0"/>
        <pt x="255" y="736" on="0"/>
        <pt x="273" y="736" on="1"/>
        <pt x="292" y="736" on="0"/>
        <pt x="318" y="763" on="0"/>
        <pt x="318" y="781" on="1"/>
        <pt x="318" y="800" on="0"/>
        <pt x="291" y="826" on="0"/>
      </contour>
      <contour>
        <pt x="273" y="851" on="1"/>
        <pt x="301" y="851" on="0"/>
        <pt x="343" y="811" on="0"/>
        <pt x="343" y="781" on="1"/>
        <pt x="343" y="753" on="0"/>
        <pt x="303" y="711" on="0"/>
        <pt x="273" y="711" on="1"/>
        <pt x="245" y="711" on="0"/>
        <pt x="203" y="751" on="0"/>
        <pt x="203" y="781" on="1"/>
        <pt x="203" y="809" on="0"/>
        <pt x="243" y="851" on="0"/>
      </contour>
      <contour>
        <pt x="117" y="30" on="1"/>
        <pt x="485" y="30" on="1"/>
        <pt x="273" y="613" on="1"/>
        <pt x="50" y="0" on="1"/>
        <pt x="18" y="0" on="1"/>
        <pt x="273" y="701" on="1"/>
        <pt x="528" y="0" on="1"/>
        <pt x="117" y="0" on="1"/>
      </contour>
    </TTGlyph>
    <TTGlyph name="Atilde" xMin="18" yMin="0" xMax="528" yMax="800">
      <contour>
        <pt x="324" y="722" on="1"/>
        <pt x="296" y="722" on="0"/>
        <pt x="246" y="770" on="0"/>
        <pt x="226" y="770" on="1"/>
        <pt x="210" y="770" on="0"/>
        <pt x="186" y="744" on="0"/>
        <pt x="186" y="722" on="1"/>
        <pt x="156" y="722" on="1"/>
        <pt x="156" y="757" on="0"/>
        <pt x="199" y="800" on="0"/>
        <pt x="226" y="800" on="1"/>
        <pt x="254" y="800" on="0"/>
        <pt x="304" y="752" on="0"/>
        <pt x="324" y="752" on="1"/>
        <pt x="340" y="752" on="0"/>
        <pt x="364" y="778" on="0"/>
        <pt x="364" y="800" on="1"/>
        <pt x="394" y="800" on="1"/>
        <pt x="394" y="765" on="0"/>
        <pt x="351" y="722" on="0"/>
      </contour>
      <contour>
        <pt x="117" y="30" on="1"/>
        <pt x="485" y="30" on="1"/>
        <pt x="273" y="613" on="1"/>
        <pt x="50" y="0" on="1"/>
        <pt x="18" y="0" on="1"/>
        <pt x="273" y="701" on="1"/>
        <pt x="528" y="0" on="1"/>
        <pt x="117" y="0" on="1"/>
      </contour>
    </TTGlyph>
    <TTGlyph name="B" xMin="99" yMin="0" xMax="525" yMax="700">
      <contour>
        <pt x="259" y="0" on="1"/>
        <pt x="99" y="0" on="1"/>
        <pt x="99" y="700" on="1"/>
        <pt x="221" y="700" on="1"/>
        <pt x="353" y="700" on="0"/>
        <pt x="487" y="603" on="0"/>
        <pt x="487" y="515" on="1"/>
        <pt x="487" y="415" on="0"/>
        <pt x="403" y="368" on="1"/>
        <pt x="525" y="322" on="0"/>
        <pt x="525" y="195" on="1"/>
        <pt x="525" y="105" on="0"/>
        <pt x="393" y="0" on="0"/>
      </contour>
      <contour>
        <pt x="259" y="30" on="1"/>
        <pt x="306" y="30" on="0"/>
        <pt x="384" y="45" on="0"/>
        <pt x="455" y="80" on="0"/>
        <pt x="495" y="148" on="0"/>
        <pt x="495" y="195" on="1"/>
        <pt x="495" y="302" on="0"/>
        <pt x="392" y="340" on="1"/>
        <pt x="332" y="362" on="1"/>
        <pt x="388" y="394" on="1"/>
        <pt x="457" y="432" on="0"/>
        <pt x="457" y="515" on="1"/>
        <pt x="457" y="670" on="0"/>
        <pt x="221" y="670" on="1"/>
        <pt x="129" y="670" on="1"/>
        <pt x="129" y="30" on="1"/>
      </contour>
    </TTGlyph>
    <TTGlyph name="C" xMin="77" yMin="-10" xMax="533" yMax="710">
      <contour>
        <pt x="533" y="128" on="1"/>
        <pt x="506" y="62" on="0"/>
        <pt x="408" y="-10" on="0"/>
        <pt x="310" y="-10" on="1"/>
        <pt x="187" y="-10" on="0"/>
        <pt x="77" y="141" on="0"/>
        <pt x="77" y="301" on="1"/>
        <pt x="77" y="399" on="1"/>
        <pt x="77" y="559" on="0"/>
        <pt x="187" y="710" on="0"/>
        <pt x="310" y="710" on="1"/>
        <pt x="408" y="710" on="0"/>
        <pt x="506" y="638" on="0"/>
        <pt x="533" y="572" on="1"/>
        <pt x="506" y="559" on="1"/>
        <pt x="483" y="617" on="0"/>
        <pt x="399" y="680" on="0"/>
        <pt x="310" y="680" on="1"/>
        <pt x="261" y="680" on="0"/>
        <pt x="191" y="655" on="0"/>
        <pt x="135" y="595" on="0"/>
        <pt x="107" y="482" on="0"/>
        <pt x="107" y="399" on="1"/>
        <pt x="107" y="301" on="1"/>
        <pt x="107" y="218" on="0"/>
        <pt x="135" y="105" on="0"/>
        <pt x="191" y="45" on="0"/>
        <pt x="261" y="20" on="0"/>
        <pt x="310" y="20" on="1"/>
        <pt x="399" y="20" on="0"/>
        <pt x="483" y="83" on="0"/>
        <pt x="506" y="141" on="1"/>
      </contour>
    </TTGlyph>
    <TTGlyph name="Cacute" xMin="77" yMin="-10" xMax="533" yMax="880">
      <contour>
        <pt x="393" y="860" on="1"/>
        <pt x="276" y="721" on="1"/>
        <pt x="253" y="740" on="1"/>
        <pt x="370" y="880" on="1"/>
      </contour>
      <contour>
        <pt x="533" y="128" on="1"/>
        <pt x="506" y="62" on="0"/>
        <pt x="408" y="-10" on="0"/>
        <pt x="310" y="-10" on="1"/>
        <pt x="187" y="-10" on="0"/>
        <pt x="77" y="141" on="0"/>
        <pt x="77" y="301" on="1"/>
        <pt x="77" y="399" on="1"/>
        <pt x="77" y="559" on="0"/>
        <pt x="187" y="710" on="0"/>
        <pt x="310" y="710" on="1"/>
        <pt x="408" y="710" on="0"/>
        <pt x="506" y="638" on="0"/>
        <pt x="533" y="572" on="1"/>
        <pt x="506" y="559" on="1"/>
        <pt x="483" y="617" on="0"/>
        <pt x="399" y="680" on="0"/>
        <pt x="310" y="680" on="1"/>
        <pt x="261" y="680" on="0"/>
        <pt x="191" y="655" on="0"/>
        <pt x="135" y="595" on="0"/>
        <pt x="107" y="482" on="0"/>
        <pt x="107" y="399" on="1"/>
        <pt x="107" y="301" on="1"/>
        <pt x="107" y="218" on="0"/>
        <pt x="135" y="105" on="0"/>
        <pt x="191" y="45" on="0"/>
        <pt x="261" y="20" on="0"/>
        <pt x="310" y="20" on="1"/>
        <pt x="399" y="20" on="0"/>
        <pt x="483" y="83" on="0"/>
        <pt x="506" y="141" on="1"/>
      </contour>
    </TTGlyph>
    <TTGlyph name="Ccaron" xMin="77" yMin="-10" xMax="533" yMax="870">
      <contour>
        <pt x="317" y="711" on="1"/>
        <pt x="200" y="851" on="1"/>
        <pt x="223" y="870" on="1"/>
        <pt x="317" y="758" on="1"/>
        <pt x="411" y="870" on="1"/>
        <pt x="434" y="851" on="1"/>
      </contour>
      <contour>
        <pt x="533" y="128" on="1"/>
        <pt x="506" y="62" on="0"/>
        <pt x="408" y="-10" on="0"/>
        <pt x="310" y="-10" on="1"/>
        <pt x="187" y="-10" on="0"/>
        <pt x="77" y="141" on="0"/>
        <pt x="77" y="301" on="1"/>
        <pt x="77" y="399" on="1"/>
        <pt x="77" y="559" on="0"/>
        <pt x="187" y="710" on="0"/>
        <pt x="310" y="710" on="1"/>
        <pt x="408" y="710" on="0"/>
        <pt x="506" y="638" on="0"/>
        <pt x="533" y="572" on="1"/>
        <pt x="506" y="559" on="1"/>
        <pt x="483" y="617" on="0"/>
        <pt x="399" y="680" on="0"/>
        <pt x="310" y="680" on="1"/>
        <pt x="261" y="680" on="0"/>
        <pt x="191" y="655" on="0"/>
        <pt x="135" y="595" on="0"/>
        <pt x="107" y="482" on="0"/>
        <pt x="107" y="399" on="1"/>
        <pt x="107" y="301" on="1"/>
        <pt x="107" y="218" on="0"/>
        <pt x="135" y="105" on="0"/>
        <pt x="191" y="45" on="0"/>
        <pt x="261" y="20" on="0"/>
        <pt x="310" y="20" on="1"/>
        <pt x="399" y="20" on="0"/>
        <pt x="483" y="83" on="0"/>
        <pt x="506" y="141" on="1"/>
      </contour>
    </TTGlyph>
    <TTGlyph name="Ccedilla" xMin="77" yMin="-198" xMax="533" yMax="710">
      <contour>
        <pt x="268" y="-176" on="1"/>
        <pt x="311" y="-143" on="0"/>
        <pt x="311" y="-95" on="1"/>
        <pt x="282" y="-95" on="1"/>
        <pt x="282" y="-37" on="1"/>
        <pt x="348" y="-37" on="1"/>
        <pt x="348" y="-108" on="0"/>
        <pt x="322" y="-168" on="0"/>
        <pt x="288" y="-198" on="1"/>
      </contour>
      <contour>
        <pt x="533" y="128" on="1"/>
        <pt x="506" y="62" on="0"/>
        <pt x="408" y="-10" on="0"/>
        <pt x="310" y="-10" on="1"/>
        <pt x="187" y="-10" on="0"/>
        <pt x="77" y="141" on="0"/>
        <pt x="77" y="301" on="1"/>
        <pt x="77" y="399" on="1"/>
        <pt x="77" y="559" on="0"/>
        <pt x="187" y="710" on="0"/>
        <pt x="310" y="710" on="1"/>
        <pt x="408" y="710" on="0"/>
        <pt x="506" y="638" on="0"/>
        <pt x="533" y="572" on="1"/>
        <pt x="506" y="559" on="1"/>
        <pt x="483" y="617" on="0"/>
        <pt x="399" y="680" on="0"/>
        <pt x="310" y="680" on="1"/>
        <pt x="261" y="680" on="0"/>
        <pt x="191" y="655" on="0"/>
        <pt x="135" y="595" on="0"/>
        <pt x="107" y="482" on="0"/>
        <pt x="107" y="399" on="1"/>
        <pt x="107" y="301" on="1"/>
        <pt x="107" y="218" on="0"/>
        <pt x="135" y="105" on="0"/>
        <pt x="191" y="45" on="0"/>
        <pt x="261" y="20" on="0"/>
        <pt x="310" y="20" on="1"/>
        <pt x="399" y="20" on="0"/>
        <pt x="483" y="83" on="0"/>
        <pt x="506" y="141" on="1"/>
      </contour>
    </TTGlyph>
    <TTGlyph name="Ccircumflex" xMin="77" yMin="-10" xMax="533" yMax="864">
      <contour>
        <pt x="312" y="864" on="1"/>
        <pt x="429" y="724" on="1"/>
        <pt x="406" y="705" on="1"/>
        <pt x="312" y="817" on="1"/>
        <pt x="218" y="705" on="1"/>
        <pt x="195" y="724" on="1"/>
      </contour>
      <contour>
        <pt x="533" y="128" on="1"/>
        <pt x="506" y="62" on="0"/>
        <pt x="408" y="-10" on="0"/>
        <pt x="310" y="-10" on="1"/>
        <pt x="187" y="-10" on="0"/>
        <pt x="77" y="141" on="0"/>
        <pt x="77" y="301" on="1"/>
        <pt x="77" y="399" on="1"/>
        <pt x="77" y="559" on="0"/>
        <pt x="187" y="710" on="0"/>
        <pt x="310" y="710" on="1"/>
        <pt x="408" y="710" on="0"/>
        <pt x="506" y="638" on="0"/>
        <pt x="533" y="572" on="1"/>
        <pt x="506" y="559" on="1"/>
        <pt x="483" y="617" on="0"/>
        <pt x="399" y="680" on="0"/>
        <pt x="310" y="680" on="1"/>
        <pt x="261" y="680" on="0"/>
        <pt x="191" y="655" on="0"/>
        <pt x="135" y="595" on="0"/>
        <pt x="107" y="482" on="0"/>
        <pt x="107" y="399" on="1"/>
        <pt x="107" y="301" on="1"/>
        <pt x="107" y="218" on="0"/>
        <pt x="135" y="105" on="0"/>
        <pt x="191" y="45" on="0"/>
        <pt x="261" y="20" on="0"/>
        <pt x="310" y="20" on="1"/>
        <pt x="399" y="20" on="0"/>
        <pt x="483" y="83" on="0"/>
        <pt x="506" y="141" on="1"/>
      </contour>
    </TTGlyph>
    <TTGlyph name="Cdotaccent" xMin="77" yMin="-10" xMax="533" yMax="812">
      <contour>
        <pt x="280" y="812" on="1"/>
        <pt x="346" y="812" on="1"/>
        <pt x="346" y="754" on="1"/>
        <pt x="280" y="754" on="1"/>
      </contour>
      <contour>
        <pt x="533" y="128" on="1"/>
        <pt x="506" y="62" on="0"/>
        <pt x="408" y="-10" on="0"/>
        <pt x="310" y="-10" on="1"/>
        <pt x="187" y="-10" on="0"/>
        <pt x="77" y="141" on="0"/>
        <pt x="77" y="301" on="1"/>
        <pt x="77" y="399" on="1"/>
        <pt x="77" y="559" on="0"/>
        <pt x="187" y="710" on="0"/>
        <pt x="310" y="710" on="1"/>
        <pt x="408" y="710" on="0"/>
        <pt x="506" y="638" on="0"/>
        <pt x="533" y="572" on="1"/>
        <pt x="506" y="559" on="1"/>
        <pt x="483" y="617" on="0"/>
        <pt x="399" y="680" on="0"/>
        <pt x="310" y="680" on="1"/>
        <pt x="261" y="680" on="0"/>
        <pt x="191" y="655" on="0"/>
        <pt x="135" y="595" on="0"/>
        <pt x="107" y="482" on="0"/>
        <pt x="107" y="399" on="1"/>
        <pt x="107" y="301" on="1"/>
        <pt x="107" y="218" on="0"/>
        <pt x="135" y="105" on="0"/>
        <pt x="191" y="45" on="0"/>
        <pt x="261" y="20" on="0"/>
        <pt x="310" y="20" on="1"/>
        <pt x="399" y="20" on="0"/>
        <pt x="483" y="83" on="0"/>
        <pt x="506" y="141" on="1"/>
      </contour>
    </TTGlyph>
    <TTGlyph name="D" xMin="99" yMin="0" xMax="539" yMax="700">
      <contour>
        <pt x="195" y="0" on="1"/>
        <pt x="99" y="0" on="1"/>
        <pt x="99" y="700" on="1"/>
        <pt x="195" y="700" on="1"/>
        <pt x="339" y="700" on="0"/>
        <pt x="539" y="488" on="0"/>
        <pt x="539" y="212" on="0"/>
        <pt x="339" y="0" on="0"/>
      </contour>
      <contour>
        <pt x="195" y="30" on="1"/>
        <pt x="326" y="30" on="0"/>
        <pt x="509" y="223" on="0"/>
        <pt x="509" y="477" on="0"/>
        <pt x="326" y="670" on="0"/>
        <pt x="195" y="670" on="1"/>
        <pt x="129" y="670" on="1"/>
        <pt x="129" y="30" on="1"/>
      </contour>
    </TTGlyph>
    <TTGlyph name="Dcaron" xMin="99" yMin="0" xMax="539" yMax="870">
      <contour>
        <pt x="255" y="711" on="1"/>
        <pt x="138" y="851" on="1"/>
        <pt x="161" y="870" on="1"/>
        <pt x="255" y="758" on="1"/>
        <pt x="349" y="870" on="1"/>
        <pt x="372" y="851" on="1"/>
      </contour>
      <contour>
        <pt x="195" y="0" on="1"/>
        <pt x="99" y="0" on="1"/>
        <pt x="99" y="700" on="1"/>
        <pt x="195" y="700" on="1"/>
        <pt x="339" y="700" on="0"/>
        <pt x="539" y="488" on="0"/>
        <pt x="539" y="212" on="0"/>
        <pt x="339" y="0" on="0"/>
      </contour>
      <contour>
        <pt x="195" y="30" on="1"/>
        <pt x="326" y="30" on="0"/>
        <pt x="509" y="223" on="0"/>
        <pt x="509" y="477" on="0"/>
        <pt x="326" y="670" on="0"/>
        <pt x="195" y="670" on="1"/>
        <pt x="129" y="670" on="1"/>
        <pt x="129" y="30" on="1"/>
      </contour>
    </TTGlyph>
    <TTGlyph name="Dcroat" xMin="35" yMin="0" xMax="539" yMax="700">
      <contour>
        <pt x="195" y="30" on="1"/>
        <pt x="326" y="30" on="0"/>
        <pt x="509" y="223" on="0"/>
        <pt x="509" y="477" on="0"/>
        <pt x="326" y="670" on="0"/>
        <pt x="195" y="670" on="1"/>
        <pt x="129" y="670" on="1"/>
        <pt x="129" y="365" on="1"/>
        <pt x="233" y="365" on="1"/>
        <pt x="233" y="335" on="1"/>
        <pt x="129" y="335" on="1"/>
        <pt x="129" y="30" on="1"/>
      </contour>
      <contour>
        <pt x="195" y="0" on="1"/>
        <pt x="99" y="0" on="1"/>
        <pt x="99" y="335" on="1"/>
        <pt x="35" y="335" on="1"/>
        <pt x="35" y="365" on="1"/>
        <pt x="99" y="365" on="1"/>
        <pt x="99" y="700" on="1"/>
        <pt x="195" y="700" on="1"/>
        <pt x="339" y="700" on="0"/>
        <pt x="539" y="488" on="0"/>
        <pt x="539" y="212" on="0"/>
        <pt x="339" y="0" on="0"/>
      </contour>
    </TTGlyph>
    <TTGlyph name="E" xMin="99" yMin="0" xMax="540" yMax="700">
      <contour>
        <pt x="458" y="366" on="1"/>
        <pt x="161" y="366" on="1"/>
        <pt x="467" y="670" on="1"/>
        <pt x="129" y="670" on="1"/>
        <pt x="129" y="30" on="1"/>
        <pt x="517" y="30" on="1"/>
        <pt x="517" y="0" on="1"/>
        <pt x="99" y="0" on="1"/>
        <pt x="99" y="700" on="1"/>
        <pt x="540" y="700" on="1"/>
        <pt x="234" y="396" on="1"/>
        <pt x="458" y="396" on="1"/>
      </contour>
    </TTGlyph>
    <TTGlyph name="Eacute" xMin="99" yMin="0" xMax="540" yMax="880">
      <contour>
        <pt x="402" y="860" on="1"/>
        <pt x="285" y="721" on="1"/>
        <pt x="262" y="740" on="1"/>
        <pt x="379" y="880" on="1"/>
      </contour>
      <contour>
        <pt x="458" y="366" on="1"/>
        <pt x="161" y="366" on="1"/>
        <pt x="467" y="670" on="1"/>
        <pt x="129" y="670" on="1"/>
        <pt x="129" y="30" on="1"/>
        <pt x="517" y="30" on="1"/>
        <pt x="517" y="0" on="1"/>
        <pt x="99" y="0" on="1"/>
        <pt x="99" y="700" on="1"/>
        <pt x="540" y="700" on="1"/>
        <pt x="234" y="396" on="1"/>
        <pt x="458" y="396" on="1"/>
      </contour>
    </TTGlyph>
    <TTGlyph name="Ebreve" xMin="99" yMin="0" xMax="540" yMax="819">
      <contour>
        <pt x="402" y="819" on="1"/>
        <pt x="402" y="776" on="0"/>
        <pt x="342" y="719" on="0"/>
        <pt x="302" y="719" on="1"/>
        <pt x="259" y="719" on="0"/>
        <pt x="202" y="779" on="0"/>
        <pt x="202" y="819" on="1"/>
        <pt x="232" y="819" on="1"/>
        <pt x="232" y="789" on="0"/>
        <pt x="274" y="749" on="0"/>
        <pt x="302" y="749" on="1"/>
        <pt x="332" y="749" on="0"/>
        <pt x="372" y="791" on="0"/>
        <pt x="372" y="819" on="1"/>
      </contour>
      <contour>
        <pt x="458" y="366" on="1"/>
        <pt x="161" y="366" on="1"/>
        <pt x="467" y="670" on="1"/>
        <pt x="129" y="670" on="1"/>
        <pt x="129" y="30" on="1"/>
        <pt x="517" y="30" on="1"/>
        <pt x="517" y="0" on="1"/>
        <pt x="99" y="0" on="1"/>
        <pt x="99" y="700" on="1"/>
        <pt x="540" y="700" on="1"/>
        <pt x="234" y="396" on="1"/>
        <pt x="458" y="396" on="1"/>
      </contour>
    </TTGlyph>
    <TTGlyph name="Ecaron" xMin="99" yMin="0" xMax="540" yMax="870">
      <contour>
        <pt x="301" y="711" on="1"/>
        <pt x="184" y="851" on="1"/>
        <pt x="207" y="870" on="1"/>
        <pt x="301" y="758" on="1"/>
        <pt x="395" y="870" on="1"/>
        <pt x="418" y="851" on="1"/>
      </contour>
      <contour>
        <pt x="458" y="366" on="1"/>
        <pt x="161" y="366" on="1"/>
        <pt x="467" y="670" on="1"/>
        <pt x="129" y="670" on="1"/>
        <pt x="129" y="30" on="1"/>
        <pt x="517" y="30" on="1"/>
        <pt x="517" y="0" on="1"/>
        <pt x="99" y="0" on="1"/>
        <pt x="99" y="700" on="1"/>
        <pt x="540" y="700" on="1"/>
        <pt x="234" y="396" on="1"/>
        <pt x="458" y="396" on="1"/>
      </contour>
    </TTGlyph>
    <TTGlyph name="Ecircumflex" xMin="99" yMin="0" xMax="540" yMax="864">
      <contour>
        <pt x="309" y="864" on="1"/>
        <pt x="426" y="724" on="1"/>
        <pt x="403" y="705" on="1"/>
        <pt x="309" y="817" on="1"/>
        <pt x="215" y="705" on="1"/>
        <pt x="192" y="724" on="1"/>
      </contour>
      <contour>
        <pt x="458" y="366" on="1"/>
        <pt x="161" y="366" on="1"/>
        <pt x="467" y="670" on="1"/>
        <pt x="129" y="670" on="1"/>
        <pt x="129" y="30" on="1"/>
        <pt x="517" y="30" on="1"/>
        <pt x="517" y="0" on="1"/>
        <pt x="99" y="0" on="1"/>
        <pt x="99" y="700" on="1"/>
        <pt x="540" y="700" on="1"/>
        <pt x="234" y="396" on="1"/>
        <pt x="458" y="396" on="1"/>
      </contour>
    </TTGlyph>
    <TTGlyph name="Edieresis" xMin="99" yMin="0" xMax="540" yMax="812">
      <contour>
        <pt x="365" y="812" on="1"/>
        <pt x="431" y="812" on="1"/>
        <pt x="431" y="754" on="1"/>
        <pt x="365" y="754" on="1"/>
      </contour>
      <contour>
        <pt x="187" y="812" on="1"/>
        <pt x="253" y="812" on="1"/>
        <pt x="253" y="754" on="1"/>
        <pt x="187" y="754" on="1"/>
      </contour>
      <contour>
        <pt x="458" y="366" on="1"/>
        <pt x="161" y="366" on="1"/>
        <pt x="467" y="670" on="1"/>
        <pt x="129" y="670" on="1"/>
        <pt x="129" y="30" on="1"/>
        <pt x="517" y="30" on="1"/>
        <pt x="517" y="0" on="1"/>
        <pt x="99" y="0" on="1"/>
        <pt x="99" y="700" on="1"/>
        <pt x="540" y="700" on="1"/>
        <pt x="234" y="396" on="1"/>
        <pt x="458" y="396" on="1"/>
      </contour>
    </TTGlyph>
    <TTGlyph name="Edotaccent" xMin="99" yMin="0" xMax="540" yMax="812">
      <contour>
        <pt x="268" y="812" on="1"/>
        <pt x="334" y="812" on="1"/>
        <pt x="334" y="754" on="1"/>
        <pt x="268" y="754" on="1"/>
      </contour>
      <contour>
        <pt x="458" y="366" on="1"/>
        <pt x="161" y="366" on="1"/>
        <pt x="467" y="670" on="1"/>
        <pt x="129" y="670" on="1"/>
        <pt x="129" y="30" on="1"/>
        <pt x="517" y="30" on="1"/>
        <pt x="517" y="0" on="1"/>
        <pt x="99" y="0" on="1"/>
        <pt x="99" y="700" on="1"/>
        <pt x="540" y="700" on="1"/>
        <pt x="234" y="396" on="1"/>
        <pt x="458" y="396" on="1"/>
      </contour>
    </TTGlyph>
    <TTGlyph name="Egrave" xMin="99" yMin="0" xMax="540" yMax="880">
      <contour>
        <pt x="216" y="860" on="1"/>
        <pt x="239" y="880" on="1"/>
        <pt x="356" y="740" on="1"/>
        <pt x="333" y="721" on="1"/>
      </contour>
      <contour>
        <pt x="458" y="366" on="1"/>
        <pt x="161" y="366" on="1"/>
        <pt x="467" y="670" on="1"/>
        <pt x="129" y="670" on="1"/>
        <pt x="129" y="30" on="1"/>
        <pt x="517" y="30" on="1"/>
        <pt x="517" y="0" on="1"/>
        <pt x="99" y="0" on="1"/>
        <pt x="99" y="700" on="1"/>
        <pt x="540" y="700" on="1"/>
        <pt x="234" y="396" on="1"/>
        <pt x="458" y="396" on="1"/>
      </contour>
    </TTGlyph>
    <TTGlyph name="Emacron" xMin="99" yMin="0" xMax="540" yMax="800">
      <contour>
        <pt x="193" y="770" on="1"/>
        <pt x="193" y="800" on="1"/>
        <pt x="413" y="800" on="1"/>
        <pt x="413" y="770" on="1"/>
      </contour>
      <contour>
        <pt x="458" y="366" on="1"/>
        <pt x="161" y="366" on="1"/>
        <pt x="467" y="670" on="1"/>
        <pt x="129" y="670" on="1"/>
        <pt x="129" y="30" on="1"/>
        <pt x="517" y="30" on="1"/>
        <pt x="517" y="0" on="1"/>
        <pt x="99" y="0" on="1"/>
        <pt x="99" y="700" on="1"/>
        <pt x="540" y="700" on="1"/>
        <pt x="234" y="396" on="1"/>
        <pt x="458" y="396" on="1"/>
      </contour>
    </TTGlyph>
    <TTGlyph name="Eng" xMin="99" yMin="0" xMax="565" yMax="710">
      <contour>
        <pt x="99" y="700" on="1"/>
        <pt x="129" y="700" on="1"/>
        <pt x="129" y="590" on="1"/>
        <pt x="179" y="710" on="0"/>
        <pt x="332" y="710" on="1"/>
        <pt x="455" y="710" on="0"/>
        <pt x="565" y="559" on="0"/>
        <pt x="565" y="399" on="1"/>
        <pt x="565" y="299" on="1"/>
        <pt x="565" y="169" on="0"/>
        <pt x="448" y="0" on="0"/>
        <pt x="363" y="0" on="1"/>
        <pt x="266" y="0" on="1"/>
        <pt x="266" y="30" on="1"/>
        <pt x="363" y="30" on="1"/>
        <pt x="434" y="30" on="0"/>
        <pt x="535" y="188" on="0"/>
        <pt x="535" y="299" on="1"/>
        <pt x="535" y="399" on="1"/>
        <pt x="535" y="482" on="0"/>
        <pt x="507" y="595" on="0"/>
        <pt x="451" y="655" on="0"/>
        <pt x="381" y="680" on="0"/>
        <pt x="283" y="680" on="0"/>
        <pt x="213" y="655" on="0"/>
        <pt x="157" y="595" on="0"/>
        <pt x="129" y="482" on="0"/>
        <pt x="129" y="399" on="1"/>
        <pt x="129" y="0" on="1"/>
        <pt x="99" y="0" on="1"/>
      </contour>
    </TTGlyph>
    <TTGlyph name="Eogonek" xMin="99" yMin="-196" xMax="542" yMax="700">
      <contour>
        <pt x="458" y="366" on="1"/>
        <pt x="161" y="366" on="1"/>
        <pt x="467" y="670" on="1"/>
        <pt x="129" y="670" on="1"/>
        <pt x="129" y="30" on="1"/>
        <pt x="517" y="30" on="1"/>
        <pt x="517" y="0" on="1"/>
        <pt x="493" y="0" on="1"/>
        <pt x="452" y="-26" on="0"/>
        <pt x="452" y="-76" on="1"/>
        <pt x="452" y="-114" on="0"/>
        <pt x="504" y="-166" on="0"/>
        <pt x="542" y="-166" on="1"/>
        <pt x="542" y="-196" on="1"/>
        <pt x="492" y="-196" on="0"/>
        <pt x="422" y="-126" on="0"/>
        <pt x="422" y="-76" on="1"/>
        <pt x="422" y="-33" on="0"/>
        <pt x="449" y="0" on="1"/>
        <pt x="99" y="0" on="1"/>
        <pt x="99" y="700" on="1"/>
        <pt x="540" y="700" on="1"/>
        <pt x="234" y="396" on="1"/>
        <pt x="458" y="396" on="1"/>
      </contour>
    </TTGlyph>
    <TTGlyph name="Eth" xMin="35" yMin="0" xMax="539" yMax="700">
      <contour>
        <pt x="35" y="335" on="1"/>
        <pt x="35" y="365" on="1"/>
        <pt x="99" y="365" on="1"/>
        <pt x="99" y="700" on="1"/>
        <pt x="195" y="700" on="1"/>
        <pt x="339" y="700" on="0"/>
        <pt x="539" y="488" on="0"/>
        <pt x="539" y="212" on="0"/>
        <pt x="339" y="0" on="0"/>
        <pt x="195" y="0" on="1"/>
        <pt x="99" y="0" on="1"/>
        <pt x="99" y="335" on="1"/>
      </contour>
      <contour>
        <pt x="195" y="30" on="1"/>
        <pt x="326" y="30" on="0"/>
        <pt x="509" y="223" on="0"/>
        <pt x="509" y="477" on="0"/>
        <pt x="326" y="670" on="0"/>
        <pt x="195" y="670" on="1"/>
        <pt x="129" y="670" on="1"/>
        <pt x="129" y="365" on="1"/>
        <pt x="233" y="365" on="1"/>
        <pt x="233" y="335" on="1"/>
        <pt x="129" y="335" on="1"/>
        <pt x="129" y="30" on="1"/>
      </contour>
    </TTGlyph>
    <TTGlyph name="Euro" xMin="58" yMin="-10" xMax="558" yMax="710">
      <contour>
        <pt x="558" y="128" on="1"/>
        <pt x="531" y="62" on="0"/>
        <pt x="433" y="-10" on="0"/>
        <pt x="335" y="-10" on="1"/>
        <pt x="215" y="-10" on="0"/>
        <pt x="104" y="134" on="0"/>
        <pt x="102" y="285" on="1"/>
        <pt x="58" y="285" on="1"/>
        <pt x="58" y="315" on="1"/>
        <pt x="102" y="315" on="1"/>
        <pt x="102" y="399" on="1"/>
        <pt x="102" y="425" on="1"/>
        <pt x="58" y="425" on="1"/>
        <pt x="58" y="455" on="1"/>
        <pt x="104" y="455" on="1"/>
        <pt x="113" y="585" on="0"/>
        <pt x="224" y="710" on="0"/>
        <pt x="335" y="710" on="1"/>
        <pt x="433" y="710" on="0"/>
        <pt x="531" y="638" on="0"/>
        <pt x="558" y="572" on="1"/>
        <pt x="531" y="559" on="1"/>
        <pt x="508" y="617" on="0"/>
        <pt x="424" y="680" on="0"/>
        <pt x="335" y="680" on="1"/>
        <pt x="244" y="680" on="0"/>
        <pt x="143" y="582" on="0"/>
        <pt x="134" y="455" on="1"/>
        <pt x="392" y="455" on="1"/>
        <pt x="392" y="425" on="1"/>
        <pt x="132" y="425" on="1"/>
        <pt x="132" y="399" on="1"/>
        <pt x="132" y="315" on="1"/>
        <pt x="392" y="315" on="1"/>
        <pt x="392" y="285" on="1"/>
        <pt x="132" y="285" on="1"/>
        <pt x="135" y="134" on="0"/>
        <pt x="237" y="20" on="0"/>
        <pt x="335" y="20" on="1"/>
        <pt x="424" y="20" on="0"/>
        <pt x="508" y="83" on="0"/>
        <pt x="531" y="141" on="1"/>
      </contour>
    </TTGlyph>
    <TTGlyph name="F" xMin="99" yMin="0" xMax="540" yMax="700">
      <contour>
        <pt x="458" y="366" on="1"/>
        <pt x="161" y="366" on="1"/>
        <pt x="467" y="670" on="1"/>
        <pt x="129" y="670" on="1"/>
        <pt x="129" y="0" on="1"/>
        <pt x="99" y="0" on="1"/>
        <pt x="99" y="700" on="1"/>
        <pt x="540" y="700" on="1"/>
        <pt x="234" y="396" on="1"/>
        <pt x="458" y="396" on="1"/>
      </contour>
    </TTGlyph>
    <TTGlyph name="G" xMin="77" yMin="-10" xMax="542" yMax="710">
      <contour>
        <pt x="506" y="559" on="1"/>
        <pt x="483" y="617" on="0"/>
        <pt x="399" y="680" on="0"/>
        <pt x="310" y="680" on="1"/>
        <pt x="261" y="680" on="0"/>
        <pt x="191" y="655" on="0"/>
        <pt x="135" y="595" on="0"/>
        <pt x="107" y="482" on="0"/>
        <pt x="107" y="399" on="1"/>
        <pt x="107" y="301" on="1"/>
        <pt x="107" y="218" on="0"/>
        <pt x="135" y="105" on="0"/>
        <pt x="191" y="45" on="0"/>
        <pt x="261" y="20" on="0"/>
        <pt x="310" y="20" on="1"/>
        <pt x="400" y="20" on="0"/>
        <pt x="506" y="97" on="0"/>
        <pt x="506" y="141" on="1"/>
        <pt x="506" y="310" on="1"/>
        <pt x="383" y="310" on="1"/>
        <pt x="383" y="340" on="1"/>
        <pt x="542" y="340" on="1"/>
        <pt x="542" y="151" on="1"/>
        <pt x="542" y="84" on="0"/>
        <pt x="421" y="-10" on="0"/>
        <pt x="310" y="-10" on="1"/>
        <pt x="187" y="-10" on="0"/>
        <pt x="77" y="141" on="0"/>
        <pt x="77" y="301" on="1"/>
        <pt x="77" y="399" on="1"/>
        <pt x="77" y="559" on="0"/>
        <pt x="187" y="710" on="0"/>
        <pt x="310" y="710" on="1"/>
        <pt x="409" y="710" on="0"/>
        <pt x="507" y="637" on="0"/>
        <pt x="534" y="570" on="1"/>
      </contour>
    </TTGlyph>
    <TTGlyph name="Gbreve" xMin="77" yMin="-10" xMax="542" yMax="819">
      <contour>
        <pt x="412" y="819" on="1"/>
        <pt x="412" y="776" on="0"/>
        <pt x="352" y="719" on="0"/>
        <pt x="312" y="719" on="1"/>
        <pt x="269" y="719" on="0"/>
        <pt x="212" y="779" on="0"/>
        <pt x="212" y="819" on="1"/>
        <pt x="242" y="819" on="1"/>
        <pt x="242" y="789" on="0"/>
        <pt x="284" y="749" on="0"/>
        <pt x="312" y="749" on="1"/>
        <pt x="342" y="749" on="0"/>
        <pt x="382" y="791" on="0"/>
        <pt x="382" y="819" on="1"/>
      </contour>
      <contour>
        <pt x="506" y="559" on="1"/>
        <pt x="483" y="617" on="0"/>
        <pt x="399" y="680" on="0"/>
        <pt x="310" y="680" on="1"/>
        <pt x="261" y="680" on="0"/>
        <pt x="191" y="655" on="0"/>
        <pt x="135" y="595" on="0"/>
        <pt x="107" y="482" on="0"/>
        <pt x="107" y="399" on="1"/>
        <pt x="107" y="301" on="1"/>
        <pt x="107" y="218" on="0"/>
        <pt x="135" y="105" on="0"/>
        <pt x="191" y="45" on="0"/>
        <pt x="261" y="20" on="0"/>
        <pt x="310" y="20" on="1"/>
        <pt x="400" y="20" on="0"/>
        <pt x="506" y="97" on="0"/>
        <pt x="506" y="141" on="1"/>
        <pt x="506" y="310" on="1"/>
        <pt x="383" y="310" on="1"/>
        <pt x="383" y="340" on="1"/>
        <pt x="542" y="340" on="1"/>
        <pt x="542" y="151" on="1"/>
        <pt x="542" y="84" on="0"/>
        <pt x="421" y="-10" on="0"/>
        <pt x="310" y="-10" on="1"/>
        <pt x="187" y="-10" on="0"/>
        <pt x="77" y="141" on="0"/>
        <pt x="77" y="301" on="1"/>
        <pt x="77" y="399" on="1"/>
        <pt x="77" y="559" on="0"/>
        <pt x="187" y="710" on="0"/>
        <pt x="310" y="710" on="1"/>
        <pt x="409" y="710" on="0"/>
        <pt x="507" y="637" on="0"/>
        <pt x="534" y="570" on="1"/>
      </contour>
    </TTGlyph>
    <TTGlyph name="Gcircumflex" xMin="77" yMin="-10" xMax="542" yMax="864">
      <contour>
        <pt x="312" y="864" on="1"/>
        <pt x="429" y="724" on="1"/>
        <pt x="406" y="705" on="1"/>
        <pt x="312" y="817" on="1"/>
        <pt x="218" y="705" on="1"/>
        <pt x="195" y="724" on="1"/>
      </contour>
      <contour>
        <pt x="506" y="559" on="1"/>
        <pt x="483" y="617" on="0"/>
        <pt x="399" y="680" on="0"/>
        <pt x="310" y="680" on="1"/>
        <pt x="261" y="680" on="0"/>
        <pt x="191" y="655" on="0"/>
        <pt x="135" y="595" on="0"/>
        <pt x="107" y="482" on="0"/>
        <pt x="107" y="399" on="1"/>
        <pt x="107" y="301" on="1"/>
        <pt x="107" y="218" on="0"/>
        <pt x="135" y="105" on="0"/>
        <pt x="191" y="45" on="0"/>
        <pt x="261" y="20" on="0"/>
        <pt x="310" y="20" on="1"/>
        <pt x="400" y="20" on="0"/>
        <pt x="506" y="97" on="0"/>
        <pt x="506" y="141" on="1"/>
        <pt x="506" y="310" on="1"/>
        <pt x="383" y="310" on="1"/>
        <pt x="383" y="340" on="1"/>
        <pt x="542" y="340" on="1"/>
        <pt x="542" y="151" on="1"/>
        <pt x="542" y="84" on="0"/>
        <pt x="421" y="-10" on="0"/>
        <pt x="310" y="-10" on="1"/>
        <pt x="187" y="-10" on="0"/>
        <pt x="77" y="141" on="0"/>
        <pt x="77" y="301" on="1"/>
        <pt x="77" y="399" on="1"/>
        <pt x="77" y="559" on="0"/>
        <pt x="187" y="710" on="0"/>
        <pt x="310" y="710" on="1"/>
        <pt x="409" y="710" on="0"/>
        <pt x="507" y="637" on="0"/>
        <pt x="534" y="570" on="1"/>
      </contour>
    </TTGlyph>
    <TTGlyph name="Gcommaaccent" xMin="77" yMin="-198" xMax="542" yMax="710">
      <contour>
        <pt x="263" y="-176" on="1"/>
        <pt x="306" y="-143" on="0"/>
        <pt x="306" y="-95" on="1"/>
        <pt x="277" y="-95" on="1"/>
        <pt x="277" y="-37" on="1"/>
        <pt x="343" y="-37" on="1"/>
        <pt x="343" y="-108" on="0"/>
        <pt x="317" y="-168" on="0"/>
        <pt x="283" y="-198" on="1"/>
      </contour>
      <contour>
        <pt x="506" y="559" on="1"/>
        <pt x="483" y="617" on="0"/>
        <pt x="399" y="680" on="0"/>
        <pt x="310" y="680" on="1"/>
        <pt x="261" y="680" on="0"/>
        <pt x="191" y="655" on="0"/>
        <pt x="135" y="595" on="0"/>
        <pt x="107" y="482" on="0"/>
        <pt x="107" y="399" on="1"/>
        <pt x="107" y="301" on="1"/>
        <pt x="107" y="218" on="0"/>
        <pt x="135" y="105" on="0"/>
        <pt x="191" y="45" on="0"/>
        <pt x="261" y="20" on="0"/>
        <pt x="310" y="20" on="1"/>
        <pt x="400" y="20" on="0"/>
        <pt x="506" y="97" on="0"/>
        <pt x="506" y="141" on="1"/>
        <pt x="506" y="310" on="1"/>
        <pt x="383" y="310" on="1"/>
        <pt x="383" y="340" on="1"/>
        <pt x="542" y="340" on="1"/>
        <pt x="542" y="151" on="1"/>
        <pt x="542" y="84" on="0"/>
        <pt x="421" y="-10" on="0"/>
        <pt x="310" y="-10" on="1"/>
        <pt x="187" y="-10" on="0"/>
        <pt x="77" y="141" on="0"/>
        <pt x="77" y="301" on="1"/>
        <pt x="77" y="399" on="1"/>
        <pt x="77" y="559" on="0"/>
        <pt x="187" y="710" on="0"/>
        <pt x="310" y="710" on="1"/>
        <pt x="409" y="710" on="0"/>
        <pt x="507" y="637" on="0"/>
        <pt x="534" y="570" on="1"/>
      </contour>
    </TTGlyph>
    <TTGlyph name="Gdotaccent" xMin="77" yMin="-10" xMax="542" yMax="812">
      <contour>
        <pt x="280" y="812" on="1"/>
        <pt x="346" y="812" on="1"/>
        <pt x="346" y="754" on="1"/>
        <pt x="280" y="754" on="1"/>
      </contour>
      <contour>
        <pt x="506" y="559" on="1"/>
        <pt x="483" y="617" on="0"/>
        <pt x="399" y="680" on="0"/>
        <pt x="310" y="680" on="1"/>
        <pt x="261" y="680" on="0"/>
        <pt x="191" y="655" on="0"/>
        <pt x="135" y="595" on="0"/>
        <pt x="107" y="482" on="0"/>
        <pt x="107" y="399" on="1"/>
        <pt x="107" y="301" on="1"/>
        <pt x="107" y="218" on="0"/>
        <pt x="135" y="105" on="0"/>
        <pt x="191" y="45" on="0"/>
        <pt x="261" y="20" on="0"/>
        <pt x="310" y="20" on="1"/>
        <pt x="400" y="20" on="0"/>
        <pt x="506" y="97" on="0"/>
        <pt x="506" y="141" on="1"/>
        <pt x="506" y="310" on="1"/>
        <pt x="383" y="310" on="1"/>
        <pt x="383" y="340" on="1"/>
        <pt x="542" y="340" on="1"/>
        <pt x="542" y="151" on="1"/>
        <pt x="542" y="84" on="0"/>
        <pt x="421" y="-10" on="0"/>
        <pt x="310" y="-10" on="1"/>
        <pt x="187" y="-10" on="0"/>
        <pt x="77" y="141" on="0"/>
        <pt x="77" y="301" on="1"/>
        <pt x="77" y="399" on="1"/>
        <pt x="77" y="559" on="0"/>
        <pt x="187" y="710" on="0"/>
        <pt x="310" y="710" on="1"/>
        <pt x="409" y="710" on="0"/>
        <pt x="507" y="637" on="0"/>
        <pt x="534" y="570" on="1"/>
      </contour>
    </TTGlyph>
    <TTGlyph name="H" xMin="99" yMin="0" xMax="519" yMax="700">
      <contour>
        <pt x="519" y="0" on="1"/>
        <pt x="489" y="0" on="1"/>
        <pt x="489" y="350" on="1"/>
        <pt x="129" y="350" on="1"/>
        <pt x="129" y="0" on="1"/>
        <pt x="99" y="0" on="1"/>
        <pt x="99" y="700" on="1"/>
        <pt x="129" y="700" on="1"/>
        <pt x="129" y="380" on="1"/>
        <pt x="489" y="380" on="1"/>
        <pt x="489" y="700" on="1"/>
        <pt x="519" y="700" on="1"/>
      </contour>
    </TTGlyph>
    <TTGlyph name="Hbar" xMin="49" yMin="0" xMax="569" yMax="700">
      <contour>
        <pt x="49" y="550" on="1"/>
        <pt x="49" y="580" on="1"/>
        <pt x="99" y="580" on="1"/>
        <pt x="99" y="700" on="1"/>
        <pt x="129" y="700" on="1"/>
        <pt x="129" y="580" on="1"/>
        <pt x="489" y="580" on="1"/>
        <pt x="489" y="700" on="1"/>
        <pt x="519" y="700" on="1"/>
        <pt x="519" y="580" on="1"/>
        <pt x="569" y="580" on="1"/>
        <pt x="569" y="550" on="1"/>
        <pt x="519" y="550" on="1"/>
        <pt x="519" y="0" on="1"/>
        <pt x="489" y="0" on="1"/>
        <pt x="489" y="350" on="1"/>
        <pt x="129" y="350" on="1"/>
        <pt x="129" y="0" on="1"/>
        <pt x="99" y="0" on="1"/>
        <pt x="99" y="550" on="1"/>
      </contour>
      <contour>
        <pt x="489" y="550" on="1"/>
        <pt x="129" y="550" on="1"/>
        <pt x="129" y="380" on="1"/>
        <pt x="489" y="380" on="1"/>
      </contour>
    </TTGlyph>
    <TTGlyph name="Hcircumflex" xMin="99" yMin="0" xMax="519" yMax="864">
      <contour>
        <pt x="519" y="0" on="1"/>
        <pt x="489" y="0" on="1"/>
        <pt x="489" y="350" on="1"/>
        <pt x="129" y="350" on="1"/>
        <pt x="129" y="0" on="1"/>
        <pt x="99" y="0" on="1"/>
        <pt x="99" y="700" on="1"/>
        <pt x="129" y="700" on="1"/>
        <pt x="129" y="380" on="1"/>
        <pt x="489" y="380" on="1"/>
        <pt x="489" y="700" on="1"/>
        <pt x="519" y="700" on="1"/>
      </contour>
      <contour>
        <pt x="309" y="864" on="1"/>
        <pt x="426" y="724" on="1"/>
        <pt x="403" y="705" on="1"/>
        <pt x="309" y="817" on="1"/>
        <pt x="215" y="705" on="1"/>
        <pt x="192" y="724" on="1"/>
      </contour>
    </TTGlyph>
    <TTGlyph name="I" xMin="99" yMin="0" xMax="129" yMax="700">
      <contour>
        <pt x="129" y="0" on="1"/>
        <pt x="99" y="0" on="1"/>
        <pt x="99" y="700" on="1"/>
        <pt x="129" y="700" on="1"/>
      </contour>
    </TTGlyph>
    <TTGlyph name="IJ" xMin="99" yMin="-10" xMax="619" yMax="700">
      <contour>
        <pt x="129" y="0" on="1"/>
        <pt x="99" y="0" on="1"/>
        <pt x="99" y="700" on="1"/>
        <pt x="129" y="700" on="1"/>
      </contour>
      <contour>
        <pt x="267" y="151" on="1"/>
        <pt x="311" y="20" on="0"/>
        <pt x="437" y="20" on="1"/>
        <pt x="522" y="20" on="0"/>
        <pt x="589" y="117" on="0"/>
        <pt x="589" y="202" on="1"/>
        <pt x="589" y="700" on="1"/>
        <pt x="619" y="700" on="1"/>
        <pt x="619" y="202" on="1"/>
        <pt x="619" y="-10" on="0"/>
        <pt x="437" y="-10" on="1"/>
        <pt x="351" y="-10" on="0"/>
        <pt x="258" y="76" on="0"/>
        <pt x="231" y="151" on="1"/>
      </contour>
    </TTGlyph>
    <TTGlyph name="Iacute" xMin="49" yMin="0" xMax="189" yMax="880">
      <contour>
        <pt x="189" y="860" on="1"/>
        <pt x="72" y="721" on="1"/>
        <pt x="49" y="740" on="1"/>
        <pt x="166" y="880" on="1"/>
      </contour>
      <contour>
        <pt x="129" y="0" on="1"/>
        <pt x="99" y="0" on="1"/>
        <pt x="99" y="700" on="1"/>
        <pt x="129" y="700" on="1"/>
      </contour>
    </TTGlyph>
    <TTGlyph name="Ibreve" xMin="14" yMin="0" xMax="214" yMax="819">
      <contour>
        <pt x="214" y="819" on="1"/>
        <pt x="214" y="776" on="0"/>
        <pt x="154" y="719" on="0"/>
        <pt x="114" y="719" on="1"/>
        <pt x="71" y="719" on="0"/>
        <pt x="14" y="779" on="0"/>
        <pt x="14" y="819" on="1"/>
        <pt x="44" y="819" on="1"/>
        <pt x="44" y="789" on="0"/>
        <pt x="86" y="749" on="0"/>
        <pt x="114" y="749" on="1"/>
        <pt x="144" y="749" on="0"/>
        <pt x="184" y="791" on="0"/>
        <pt x="184" y="819" on="1"/>
      </contour>
      <contour>
        <pt x="129" y="0" on="1"/>
        <pt x="99" y="0" on="1"/>
        <pt x="99" y="700" on="1"/>
        <pt x="129" y="700" on="1"/>
      </contour>
    </TTGlyph>
    <TTGlyph name="Icircumflex" xMin="-3" yMin="0" xMax="231" yMax="864">
      <contour>
        <pt x="114" y="864" on="1"/>
        <pt x="231" y="724" on="1"/>
        <pt x="208" y="705" on="1"/>
        <pt x="114" y="817" on="1"/>
        <pt x="20" y="705" on="1"/>
        <pt x="-3" y="724" on="1"/>
      </contour>
      <contour>
        <pt x="129" y="0" on="1"/>
        <pt x="99" y="0" on="1"/>
        <pt x="99" y="700" on="1"/>
        <pt x="129" y="700" on="1"/>
      </contour>
    </TTGlyph>
    <TTGlyph name="Idieresis" xMin="-8" yMin="0" xMax="236" yMax="812">
      <contour>
        <pt x="170" y="812" on="1"/>
        <pt x="236" y="812" on="1"/>
        <pt x="236" y="754" on="1"/>
        <pt x="170" y="754" on="1"/>
      </contour>
      <contour>
        <pt x="-8" y="812" on="1"/>
        <pt x="58" y="812" on="1"/>
        <pt x="58" y="754" on="1"/>
        <pt x="-8" y="754" on="1"/>
      </contour>
      <contour>
        <pt x="129" y="0" on="1"/>
        <pt x="99" y="0" on="1"/>
        <pt x="99" y="700" on="1"/>
        <pt x="129" y="700" on="1"/>
      </contour>
    </TTGlyph>
    <TTGlyph name="Idotaccent" xMin="81" yMin="0" xMax="147" yMax="812">
      <contour>
        <pt x="81" y="812" on="1"/>
        <pt x="147" y="812" on="1"/>
        <pt x="147" y="754" on="1"/>
        <pt x="81" y="754" on="1"/>
      </contour>
      <contour>
        <pt x="129" y="0" on="1"/>
        <pt x="99" y="0" on="1"/>
        <pt x="99" y="700" on="1"/>
        <pt x="129" y="700" on="1"/>
      </contour>
    </TTGlyph>
    <TTGlyph name="Igrave" xMin="39" yMin="0" xMax="179" yMax="880">
      <contour>
        <pt x="39" y="860" on="1"/>
        <pt x="62" y="880" on="1"/>
        <pt x="179" y="740" on="1"/>
        <pt x="156" y="721" on="1"/>
      </contour>
      <contour>
        <pt x="129" y="0" on="1"/>
        <pt x="99" y="0" on="1"/>
        <pt x="99" y="700" on="1"/>
        <pt x="129" y="700" on="1"/>
      </contour>
    </TTGlyph>
    <TTGlyph name="Imacron" xMin="4" yMin="0" xMax="224" yMax="800">
      <contour>
        <pt x="4" y="770" on="1"/>
        <pt x="4" y="800" on="1"/>
        <pt x="224" y="800" on="1"/>
        <pt x="224" y="770" on="1"/>
      </contour>
      <contour>
        <pt x="129" y="0" on="1"/>
        <pt x="99" y="0" on="1"/>
        <pt x="99" y="700" on="1"/>
        <pt x="129" y="700" on="1"/>
      </contour>
    </TTGlyph>
    <TTGlyph name="Iogonek" xMin="59" yMin="-196" xMax="179" yMax="700">
      <contour>
        <pt x="100" y="15" on="1"/>
        <pt x="100" y="700" on="1"/>
        <pt x="130" y="700" on="1"/>
        <pt x="130" y="0" on="1"/>
        <pt x="89" y="-26" on="0"/>
        <pt x="89" y="-76" on="1"/>
        <pt x="89" y="-114" on="0"/>
        <pt x="142" y="-166" on="0"/>
        <pt x="179" y="-166" on="1"/>
        <pt x="179" y="-196" on="1"/>
        <pt x="130" y="-196" on="0"/>
        <pt x="59" y="-126" on="0"/>
        <pt x="59" y="-76" on="1"/>
        <pt x="59" y="-21" on="0"/>
      </contour>
    </TTGlyph>
    <TTGlyph name="Itilde" xMin="-5" yMin="0" xMax="233" yMax="800">
      <contour>
        <pt x="163" y="722" on="1"/>
        <pt x="135" y="722" on="0"/>
        <pt x="85" y="770" on="0"/>
        <pt x="65" y="770" on="1"/>
        <pt x="49" y="770" on="0"/>
        <pt x="25" y="744" on="0"/>
        <pt x="25" y="722" on="1"/>
        <pt x="-5" y="722" on="1"/>
        <pt x="-5" y="757" on="0"/>
        <pt x="38" y="800" on="0"/>
        <pt x="65" y="800" on="1"/>
        <pt x="93" y="800" on="0"/>
        <pt x="143" y="752" on="0"/>
        <pt x="163" y="752" on="1"/>
        <pt x="179" y="752" on="0"/>
        <pt x="203" y="778" on="0"/>
        <pt x="203" y="800" on="1"/>
        <pt x="233" y="800" on="1"/>
        <pt x="233" y="765" on="0"/>
        <pt x="190" y="722" on="0"/>
      </contour>
      <contour>
        <pt x="129" y="0" on="1"/>
        <pt x="99" y="0" on="1"/>
        <pt x="99" y="700" on="1"/>
        <pt x="129" y="700" on="1"/>
      </contour>
    </TTGlyph>
    <TTGlyph name="J" xMin="20" yMin="-10" xMax="408" yMax="700">
      <contour>
        <pt x="56" y="151" on="1"/>
        <pt x="100" y="20" on="0"/>
        <pt x="226" y="20" on="1"/>
        <pt x="311" y="20" on="0"/>
        <pt x="378" y="117" on="0"/>
        <pt x="378" y="202" on="1"/>
        <pt x="378" y="700" on="1"/>
        <pt x="408" y="700" on="1"/>
        <pt x="408" y="202" on="1"/>
        <pt x="408" y="-10" on="0"/>
        <pt x="226" y="-10" on="1"/>
        <pt x="140" y="-10" on="0"/>
        <pt x="47" y="76" on="0"/>
        <pt x="20" y="151" on="1"/>
      </contour>
    </TTGlyph>
    <TTGlyph name="Jcircumflex" xMin="20" yMin="-10" xMax="511" yMax="864">
      <contour>
        <pt x="394" y="864" on="1"/>
        <pt x="511" y="724" on="1"/>
        <pt x="488" y="705" on="1"/>
        <pt x="394" y="817" on="1"/>
        <pt x="300" y="705" on="1"/>
        <pt x="277" y="724" on="1"/>
      </contour>
      <contour>
        <pt x="56" y="151" on="1"/>
        <pt x="100" y="20" on="0"/>
        <pt x="226" y="20" on="1"/>
        <pt x="311" y="20" on="0"/>
        <pt x="378" y="117" on="0"/>
        <pt x="378" y="202" on="1"/>
        <pt x="378" y="700" on="1"/>
        <pt x="408" y="700" on="1"/>
        <pt x="408" y="202" on="1"/>
        <pt x="408" y="-10" on="0"/>
        <pt x="226" y="-10" on="1"/>
        <pt x="140" y="-10" on="0"/>
        <pt x="47" y="76" on="0"/>
        <pt x="20" y="151" on="1"/>
      </contour>
    </TTGlyph>
    <TTGlyph name="K" xMin="99" yMin="0" xMax="572" yMax="700">
      <contour>
        <pt x="129" y="700" on="1"/>
        <pt x="129" y="0" on="1"/>
        <pt x="99" y="0" on="1"/>
        <pt x="99" y="700" on="1"/>
      </contour>
      <contour>
        <pt x="540" y="700" on="1"/>
        <pt x="204" y="366" on="1"/>
        <pt x="572" y="0" on="1"/>
        <pt x="529" y="0" on="1"/>
        <pt x="161" y="366" on="1"/>
        <pt x="497" y="700" on="1"/>
      </contour>
    </TTGlyph>
    <TTGlyph name="Kcommaaccent" xMin="99" yMin="-198" xMax="572" yMax="700">
      <contour>
        <pt x="259" y="-176" on="1"/>
        <pt x="302" y="-143" on="0"/>
        <pt x="302" y="-95" on="1"/>
        <pt x="273" y="-95" on="1"/>
        <pt x="273" y="-37" on="1"/>
        <pt x="339" y="-37" on="1"/>
        <pt x="339" y="-108" on="0"/>
        <pt x="313" y="-168" on="0"/>
        <pt x="279" y="-198" on="1"/>
      </contour>
      <contour>
        <pt x="129" y="700" on="1"/>
        <pt x="129" y="0" on="1"/>
        <pt x="99" y="0" on="1"/>
        <pt x="99" y="700" on="1"/>
      </contour>
      <contour>
        <pt x="540" y="700" on="1"/>
        <pt x="204" y="366" on="1"/>
        <pt x="572" y="0" on="1"/>
        <pt x="529" y="0" on="1"/>
        <pt x="161" y="366" on="1"/>
        <pt x="497" y="700" on="1"/>
      </contour>
    </TTGlyph>
    <TTGlyph name="L" xMin="99" yMin="0" xMax="517" yMax="700">
      <contour>
        <pt x="517" y="30" on="1"/>
        <pt x="517" y="0" on="1"/>
        <pt x="99" y="0" on="1"/>
        <pt x="99" y="700" on="1"/>
        <pt x="129" y="700" on="1"/>
        <pt x="129" y="30" on="1"/>
      </contour>
    </TTGlyph>
    <TTGlyph name="Lacute" xMin="99" yMin="0" xMax="517" yMax="880">
      <contour>
        <pt x="297" y="860" on="1"/>
        <pt x="180" y="721" on="1"/>
        <pt x="157" y="740" on="1"/>
        <pt x="274" y="880" on="1"/>
      </contour>
      <contour>
        <pt x="517" y="30" on="1"/>
        <pt x="517" y="0" on="1"/>
        <pt x="99" y="0" on="1"/>
        <pt x="99" y="700" on="1"/>
        <pt x="129" y="700" on="1"/>
        <pt x="129" y="30" on="1"/>
      </contour>
    </TTGlyph>
    <TTGlyph name="Lcaron" xMin="99" yMin="0" xMax="517" yMax="700">
      <contour>
        <pt x="240" y="486" on="1"/>
        <pt x="251" y="501" on="0"/>
        <pt x="282" y="595" on="0"/>
        <pt x="282" y="642" on="1"/>
        <pt x="253" y="642" on="1"/>
        <pt x="253" y="700" on="1"/>
        <pt x="319" y="700" on="1"/>
        <pt x="319" y="549" on="0"/>
        <pt x="265" y="470" on="1"/>
      </contour>
      <contour>
        <pt x="517" y="30" on="1"/>
        <pt x="517" y="0" on="1"/>
        <pt x="99" y="0" on="1"/>
        <pt x="99" y="700" on="1"/>
        <pt x="129" y="700" on="1"/>
        <pt x="129" y="30" on="1"/>
      </contour>
    </TTGlyph>
    <TTGlyph name="Lcommaaccent" xMin="99" yMin="-198" xMax="517" yMax="700">
      <contour>
        <pt x="251" y="-176" on="1"/>
        <pt x="294" y="-143" on="0"/>
        <pt x="294" y="-95" on="1"/>
        <pt x="265" y="-95" on="1"/>
        <pt x="265" y="-37" on="1"/>
        <pt x="331" y="-37" on="1"/>
        <pt x="331" y="-108" on="0"/>
        <pt x="305" y="-168" on="0"/>
        <pt x="271" y="-198" on="1"/>
      </contour>
      <contour>
        <pt x="517" y="30" on="1"/>
        <pt x="517" y="0" on="1"/>
        <pt x="99" y="0" on="1"/>
        <pt x="99" y="700" on="1"/>
        <pt x="129" y="700" on="1"/>
        <pt x="129" y="30" on="1"/>
      </contour>
    </TTGlyph>
    <TTGlyph name="Ldot" xMin="99" yMin="0" xMax="517" yMax="700">
      <contour>
        <pt x="311" y="358" on="1"/>
        <pt x="377" y="358" on="1"/>
        <pt x="377" y="300" on="1"/>
        <pt x="311" y="300" on="1"/>
      </contour>
      <contour>
        <pt x="517" y="30" on="1"/>
        <pt x="517" y="0" on="1"/>
        <pt x="99" y="0" on="1"/>
        <pt x="99" y="700" on="1"/>
        <pt x="129" y="700" on="1"/>
        <pt x="129" y="30" on="1"/>
      </contour>
    </TTGlyph>
    <TTGlyph name="Lslash" xMin="39" yMin="0" xMax="518" yMax="700">
      <contour>
        <pt x="61" y="254" on="1"/>
        <pt x="39" y="276" on="1"/>
        <pt x="100" y="337" on="1"/>
        <pt x="100" y="700" on="1"/>
        <pt x="130" y="700" on="1"/>
        <pt x="130" y="367" on="1"/>
        <pt x="179" y="416" on="1"/>
        <pt x="201" y="394" on="1"/>
        <pt x="130" y="323" on="1"/>
        <pt x="130" y="30" on="1"/>
        <pt x="518" y="30" on="1"/>
        <pt x="518" y="0" on="1"/>
        <pt x="100" y="0" on="1"/>
        <pt x="100" y="293" on="1"/>
      </contour>
    </TTGlyph>
    <TTGlyph name="M" xMin="99" yMin="0" xMax="609" yMax="701">
      <contour>
        <pt x="185" y="30" on="1"/>
        <pt x="579" y="30" on="1"/>
        <pt x="579" y="629" on="1"/>
        <pt x="354" y="147" on="1"/>
        <pt x="129" y="630" on="1"/>
        <pt x="129" y="0" on="1"/>
        <pt x="99" y="1" on="1"/>
        <pt x="99" y="701" on="1"/>
        <pt x="129" y="701" on="1"/>
        <pt x="354" y="218" on="1"/>
        <pt x="579" y="700" on="1"/>
        <pt x="609" y="701" on="1"/>
        <pt x="609" y="0" on="1"/>
        <pt x="185" y="1" on="1"/>
      </contour>
    </TTGlyph>
    <TTGlyph name="M.ss01" xMin="99" yMin="0" xMax="609" yMax="701">
      <contour>
        <pt x="579" y="0" on="1"/>
        <pt x="579" y="629" on="1"/>
        <pt x="354" y="147" on="1"/>
        <pt x="129" y="630" on="1"/>
        <pt x="129" y="0" on="1"/>
        <pt x="99" y="1" on="1"/>
        <pt x="99" y="701" on="1"/>
        <pt x="129" y="701" on="1"/>
        <pt x="354" y="218" on="1"/>
        <pt x="579" y="700" on="1"/>
        <pt x="609" y="701" on="1"/>
        <pt x="609" y="0" on="1"/>
      </contour>
    </TTGlyph>
    <TTGlyph name="N" xMin="99" yMin="0" xMax="538" yMax="700">
      <contour>
        <pt x="177" y="30" on="1"/>
        <pt x="487" y="30" on="1"/>
        <pt x="129" y="649" on="1"/>
        <pt x="129" y="0" on="1"/>
        <pt x="99" y="0" on="1"/>
        <pt x="99" y="700" on="1"/>
        <pt x="134" y="700" on="1"/>
        <pt x="508" y="53" on="1"/>
        <pt x="508" y="700" on="1"/>
        <pt x="538" y="700" on="1"/>
        <pt x="538" y="0" on="1"/>
        <pt x="177" y="0" on="1"/>
      </contour>
    </TTGlyph>
    <TTGlyph name="N.ss01" xMin="99" yMin="0" xMax="538" yMax="700">
      <contour>
        <pt x="504" y="0" on="1"/>
        <pt x="129" y="649" on="1"/>
        <pt x="129" y="0" on="1"/>
        <pt x="99" y="0" on="1"/>
        <pt x="99" y="700" on="1"/>
        <pt x="134" y="700" on="1"/>
        <pt x="508" y="53" on="1"/>
        <pt x="508" y="700" on="1"/>
        <pt x="538" y="700" on="1"/>
        <pt x="538" y="0" on="1"/>
      </contour>
    </TTGlyph>
    <TTGlyph name="Nacute" xMin="99" yMin="0" xMax="538" yMax="880">
      <contour>
        <pt x="412" y="860" on="1"/>
        <pt x="295" y="721" on="1"/>
        <pt x="272" y="740" on="1"/>
        <pt x="389" y="880" on="1"/>
      </contour>
      <contour>
        <pt x="177" y="30" on="1"/>
        <pt x="487" y="30" on="1"/>
        <pt x="129" y="649" on="1"/>
        <pt x="129" y="0" on="1"/>
        <pt x="99" y="0" on="1"/>
        <pt x="99" y="700" on="1"/>
        <pt x="134" y="700" on="1"/>
        <pt x="508" y="53" on="1"/>
        <pt x="508" y="700" on="1"/>
        <pt x="538" y="700" on="1"/>
        <pt x="538" y="0" on="1"/>
        <pt x="177" y="0" on="1"/>
      </contour>
    </TTGlyph>
    <TTGlyph name="Ncaron" xMin="99" yMin="0" xMax="538" yMax="870">
      <contour>
        <pt x="313" y="711" on="1"/>
        <pt x="196" y="851" on="1"/>
        <pt x="219" y="870" on="1"/>
        <pt x="313" y="758" on="1"/>
        <pt x="407" y="870" on="1"/>
        <pt x="430" y="851" on="1"/>
      </contour>
      <contour>
        <pt x="177" y="30" on="1"/>
        <pt x="487" y="30" on="1"/>
        <pt x="129" y="649" on="1"/>
        <pt x="129" y="0" on="1"/>
        <pt x="99" y="0" on="1"/>
        <pt x="99" y="700" on="1"/>
        <pt x="134" y="700" on="1"/>
        <pt x="508" y="53" on="1"/>
        <pt x="508" y="700" on="1"/>
        <pt x="538" y="700" on="1"/>
        <pt x="538" y="0" on="1"/>
        <pt x="177" y="0" on="1"/>
      </contour>
    </TTGlyph>
    <TTGlyph name="Ncommaaccent" xMin="99" yMin="-198" xMax="538" yMax="700">
      <contour>
        <pt x="504" y="0" on="1"/>
        <pt x="129" y="649" on="1"/>
        <pt x="129" y="0" on="1"/>
        <pt x="99" y="0" on="1"/>
        <pt x="99" y="700" on="1"/>
        <pt x="134" y="700" on="1"/>
        <pt x="508" y="53" on="1"/>
        <pt x="508" y="700" on="1"/>
        <pt x="538" y="700" on="1"/>
        <pt x="538" y="0" on="1"/>
      </contour>
      <contour>
        <pt x="270" y="-176" on="1"/>
        <pt x="313" y="-143" on="0"/>
        <pt x="313" y="-95" on="1"/>
        <pt x="284" y="-95" on="1"/>
        <pt x="284" y="-37" on="1"/>
        <pt x="350" y="-37" on="1"/>
        <pt x="350" y="-108" on="0"/>
        <pt x="324" y="-168" on="0"/>
        <pt x="290" y="-198" on="1"/>
      </contour>
    </TTGlyph>
    <TTGlyph name="Ntilde" xMin="99" yMin="0" xMax="538" yMax="800">
      <contour>
        <pt x="368" y="722" on="1"/>
        <pt x="340" y="722" on="0"/>
        <pt x="290" y="770" on="0"/>
        <pt x="270" y="770" on="1"/>
        <pt x="254" y="770" on="0"/>
        <pt x="230" y="744" on="0"/>
        <pt x="230" y="722" on="1"/>
        <pt x="200" y="722" on="1"/>
        <pt x="200" y="757" on="0"/>
        <pt x="243" y="800" on="0"/>
        <pt x="270" y="800" on="1"/>
        <pt x="298" y="800" on="0"/>
        <pt x="348" y="752" on="0"/>
        <pt x="368" y="752" on="1"/>
        <pt x="384" y="752" on="0"/>
        <pt x="408" y="778" on="0"/>
        <pt x="408" y="800" on="1"/>
        <pt x="438" y="800" on="1"/>
        <pt x="438" y="765" on="0"/>
        <pt x="395" y="722" on="0"/>
      </contour>
      <contour>
        <pt x="177" y="30" on="1"/>
        <pt x="487" y="30" on="1"/>
        <pt x="129" y="649" on="1"/>
        <pt x="129" y="0" on="1"/>
        <pt x="99" y="0" on="1"/>
        <pt x="99" y="700" on="1"/>
        <pt x="134" y="700" on="1"/>
        <pt x="508" y="53" on="1"/>
        <pt x="508" y="700" on="1"/>
        <pt x="538" y="700" on="1"/>
        <pt x="538" y="0" on="1"/>
        <pt x="177" y="0" on="1"/>
      </contour>
    </TTGlyph>
    <TTGlyph name="O" xMin="77" yMin="-10" xMax="543" yMax="710">
      <contour>
        <pt x="433" y="-10" on="0"/>
        <pt x="187" y="-10" on="0"/>
        <pt x="77" y="141" on="0"/>
        <pt x="77" y="301" on="1"/>
        <pt x="77" y="399" on="1"/>
        <pt x="77" y="559" on="0"/>
        <pt x="187" y="710" on="0"/>
        <pt x="433" y="710" on="0"/>
        <pt x="543" y="559" on="0"/>
        <pt x="543" y="399" on="1"/>
        <pt x="543" y="301" on="1"/>
        <pt x="543" y="141" on="0"/>
      </contour>
      <contour>
        <pt x="359" y="680" on="0"/>
        <pt x="261" y="680" on="0"/>
        <pt x="191" y="655" on="0"/>
        <pt x="135" y="595" on="0"/>
        <pt x="107" y="482" on="0"/>
        <pt x="107" y="399" on="1"/>
        <pt x="107" y="301" on="1"/>
        <pt x="107" y="218" on="0"/>
        <pt x="135" y="105" on="0"/>
        <pt x="191" y="45" on="0"/>
        <pt x="261" y="20" on="0"/>
        <pt x="359" y="20" on="0"/>
        <pt x="429" y="45" on="0"/>
        <pt x="485" y="105" on="0"/>
        <pt x="513" y="218" on="0"/>
        <pt x="513" y="301" on="1"/>
        <pt x="513" y="399" on="1"/>
        <pt x="513" y="482" on="0"/>
        <pt x="485" y="595" on="0"/>
        <pt x="429" y="655" on="0"/>
      </contour>
    </TTGlyph>
    <TTGlyph name="OE" xMin="77" yMin="-10" xMax="899" yMax="710">
      <contour>
        <pt x="817" y="366" on="1"/>
        <pt x="520" y="366" on="1"/>
        <pt x="826" y="670" on="1"/>
        <pt x="488" y="670" on="1"/>
        <pt x="488" y="30" on="1"/>
        <pt x="876" y="30" on="1"/>
        <pt x="876" y="0" on="1"/>
        <pt x="458" y="0" on="1"/>
        <pt x="458" y="34" on="1"/>
        <pt x="405" y="-10" on="0"/>
        <pt x="310" y="-10" on="1"/>
        <pt x="187" y="-10" on="0"/>
        <pt x="77" y="141" on="0"/>
        <pt x="77" y="301" on="1"/>
        <pt x="77" y="399" on="1"/>
        <pt x="77" y="559" on="0"/>
        <pt x="187" y="710" on="0"/>
        <pt x="310" y="710" on="1"/>
        <pt x="405" y="710" on="0"/>
        <pt x="458" y="666" on="1"/>
        <pt x="458" y="700" on="1"/>
        <pt x="899" y="700" on="1"/>
        <pt x="593" y="396" on="1"/>
        <pt x="817" y="396" on="1"/>
      </contour>
      <contour>
        <pt x="458" y="76" on="1"/>
        <pt x="458" y="624" on="1"/>
        <pt x="411" y="680" on="0"/>
        <pt x="310" y="680" on="1"/>
        <pt x="261" y="680" on="0"/>
        <pt x="191" y="655" on="0"/>
        <pt x="135" y="595" on="0"/>
        <pt x="107" y="482" on="0"/>
        <pt x="107" y="399" on="1"/>
        <pt x="107" y="301" on="1"/>
        <pt x="107" y="218" on="0"/>
        <pt x="135" y="105" on="0"/>
        <pt x="191" y="45" on="0"/>
        <pt x="261" y="20" on="0"/>
        <pt x="310" y="20" on="1"/>
        <pt x="411" y="20" on="0"/>
      </contour>
    </TTGlyph>
    <TTGlyph name="Oacute" xMin="77" yMin="-10" xMax="543" yMax="880">
      <contour>
        <pt x="403" y="860" on="1"/>
        <pt x="286" y="721" on="1"/>
        <pt x="263" y="740" on="1"/>
        <pt x="380" y="880" on="1"/>
      </contour>
      <contour>
        <pt x="433" y="-10" on="0"/>
        <pt x="187" y="-10" on="0"/>
        <pt x="77" y="141" on="0"/>
        <pt x="77" y="301" on="1"/>
        <pt x="77" y="399" on="1"/>
        <pt x="77" y="559" on="0"/>
        <pt x="187" y="710" on="0"/>
        <pt x="433" y="710" on="0"/>
        <pt x="543" y="559" on="0"/>
        <pt x="543" y="399" on="1"/>
        <pt x="543" y="301" on="1"/>
        <pt x="543" y="141" on="0"/>
      </contour>
      <contour>
        <pt x="359" y="680" on="0"/>
        <pt x="261" y="680" on="0"/>
        <pt x="191" y="655" on="0"/>
        <pt x="135" y="595" on="0"/>
        <pt x="107" y="482" on="0"/>
        <pt x="107" y="399" on="1"/>
        <pt x="107" y="301" on="1"/>
        <pt x="107" y="218" on="0"/>
        <pt x="135" y="105" on="0"/>
        <pt x="191" y="45" on="0"/>
        <pt x="261" y="20" on="0"/>
        <pt x="359" y="20" on="0"/>
        <pt x="429" y="45" on="0"/>
        <pt x="485" y="105" on="0"/>
        <pt x="513" y="218" on="0"/>
        <pt x="513" y="301" on="1"/>
        <pt x="513" y="399" on="1"/>
        <pt x="513" y="482" on="0"/>
        <pt x="485" y="595" on="0"/>
        <pt x="429" y="655" on="0"/>
      </contour>
    </TTGlyph>
    <TTGlyph name="Obreve" xMin="77" yMin="-10" xMax="543" yMax="819">
      <contour>
        <pt x="410" y="819" on="1"/>
        <pt x="410" y="776" on="0"/>
        <pt x="350" y="719" on="0"/>
        <pt x="310" y="719" on="1"/>
        <pt x="267" y="719" on="0"/>
        <pt x="210" y="779" on="0"/>
        <pt x="210" y="819" on="1"/>
        <pt x="240" y="819" on="1"/>
        <pt x="240" y="789" on="0"/>
        <pt x="282" y="749" on="0"/>
        <pt x="310" y="749" on="1"/>
        <pt x="340" y="749" on="0"/>
        <pt x="380" y="791" on="0"/>
        <pt x="380" y="819" on="1"/>
      </contour>
      <contour>
        <pt x="433" y="-10" on="0"/>
        <pt x="187" y="-10" on="0"/>
        <pt x="77" y="141" on="0"/>
        <pt x="77" y="301" on="1"/>
        <pt x="77" y="399" on="1"/>
        <pt x="77" y="559" on="0"/>
        <pt x="187" y="710" on="0"/>
        <pt x="433" y="710" on="0"/>
        <pt x="543" y="559" on="0"/>
        <pt x="543" y="399" on="1"/>
        <pt x="543" y="301" on="1"/>
        <pt x="543" y="141" on="0"/>
      </contour>
      <contour>
        <pt x="359" y="680" on="0"/>
        <pt x="261" y="680" on="0"/>
        <pt x="191" y="655" on="0"/>
        <pt x="135" y="595" on="0"/>
        <pt x="107" y="482" on="0"/>
        <pt x="107" y="399" on="1"/>
        <pt x="107" y="301" on="1"/>
        <pt x="107" y="218" on="0"/>
        <pt x="135" y="105" on="0"/>
        <pt x="191" y="45" on="0"/>
        <pt x="261" y="20" on="0"/>
        <pt x="359" y="20" on="0"/>
        <pt x="429" y="45" on="0"/>
        <pt x="485" y="105" on="0"/>
        <pt x="513" y="218" on="0"/>
        <pt x="513" y="301" on="1"/>
        <pt x="513" y="399" on="1"/>
        <pt x="513" y="482" on="0"/>
        <pt x="485" y="595" on="0"/>
        <pt x="429" y="655" on="0"/>
      </contour>
    </TTGlyph>
    <TTGlyph name="Ocircumflex" xMin="77" yMin="-10" xMax="543" yMax="864">
      <contour>
        <pt x="310" y="864" on="1"/>
        <pt x="427" y="724" on="1"/>
        <pt x="404" y="705" on="1"/>
        <pt x="310" y="817" on="1"/>
        <pt x="216" y="705" on="1"/>
        <pt x="193" y="724" on="1"/>
      </contour>
      <contour>
        <pt x="433" y="-10" on="0"/>
        <pt x="187" y="-10" on="0"/>
        <pt x="77" y="141" on="0"/>
        <pt x="77" y="301" on="1"/>
        <pt x="77" y="399" on="1"/>
        <pt x="77" y="559" on="0"/>
        <pt x="187" y="710" on="0"/>
        <pt x="433" y="710" on="0"/>
        <pt x="543" y="559" on="0"/>
        <pt x="543" y="399" on="1"/>
        <pt x="543" y="301" on="1"/>
        <pt x="543" y="141" on="0"/>
      </contour>
      <contour>
        <pt x="359" y="680" on="0"/>
        <pt x="261" y="680" on="0"/>
        <pt x="191" y="655" on="0"/>
        <pt x="135" y="595" on="0"/>
        <pt x="107" y="482" on="0"/>
        <pt x="107" y="399" on="1"/>
        <pt x="107" y="301" on="1"/>
        <pt x="107" y="218" on="0"/>
        <pt x="135" y="105" on="0"/>
        <pt x="191" y="45" on="0"/>
        <pt x="261" y="20" on="0"/>
        <pt x="359" y="20" on="0"/>
        <pt x="429" y="45" on="0"/>
        <pt x="485" y="105" on="0"/>
        <pt x="513" y="218" on="0"/>
        <pt x="513" y="301" on="1"/>
        <pt x="513" y="399" on="1"/>
        <pt x="513" y="482" on="0"/>
        <pt x="485" y="595" on="0"/>
        <pt x="429" y="655" on="0"/>
      </contour>
    </TTGlyph>
    <TTGlyph name="Odieresis" xMin="77" yMin="-10" xMax="543" yMax="812">
      <contour>
        <pt x="366" y="812" on="1"/>
        <pt x="432" y="812" on="1"/>
        <pt x="432" y="754" on="1"/>
        <pt x="366" y="754" on="1"/>
      </contour>
      <contour>
        <pt x="188" y="812" on="1"/>
        <pt x="254" y="812" on="1"/>
        <pt x="254" y="754" on="1"/>
        <pt x="188" y="754" on="1"/>
      </contour>
      <contour>
        <pt x="433" y="-10" on="0"/>
        <pt x="187" y="-10" on="0"/>
        <pt x="77" y="141" on="0"/>
        <pt x="77" y="301" on="1"/>
        <pt x="77" y="399" on="1"/>
        <pt x="77" y="559" on="0"/>
        <pt x="187" y="710" on="0"/>
        <pt x="433" y="710" on="0"/>
        <pt x="543" y="559" on="0"/>
        <pt x="543" y="399" on="1"/>
        <pt x="543" y="301" on="1"/>
        <pt x="543" y="141" on="0"/>
      </contour>
      <contour>
        <pt x="359" y="680" on="0"/>
        <pt x="261" y="680" on="0"/>
        <pt x="191" y="655" on="0"/>
        <pt x="135" y="595" on="0"/>
        <pt x="107" y="482" on="0"/>
        <pt x="107" y="399" on="1"/>
        <pt x="107" y="301" on="1"/>
        <pt x="107" y="218" on="0"/>
        <pt x="135" y="105" on="0"/>
        <pt x="191" y="45" on="0"/>
        <pt x="261" y="20" on="0"/>
        <pt x="359" y="20" on="0"/>
        <pt x="429" y="45" on="0"/>
        <pt x="485" y="105" on="0"/>
        <pt x="513" y="218" on="0"/>
        <pt x="513" y="301" on="1"/>
        <pt x="513" y="399" on="1"/>
        <pt x="513" y="482" on="0"/>
        <pt x="485" y="595" on="0"/>
        <pt x="429" y="655" on="0"/>
      </contour>
    </TTGlyph>
    <TTGlyph name="Ograve" xMin="77" yMin="-10" xMax="543" yMax="880">
      <contour>
        <pt x="217" y="860" on="1"/>
        <pt x="240" y="880" on="1"/>
        <pt x="357" y="740" on="1"/>
        <pt x="334" y="721" on="1"/>
      </contour>
      <contour>
        <pt x="433" y="-10" on="0"/>
        <pt x="187" y="-10" on="0"/>
        <pt x="77" y="141" on="0"/>
        <pt x="77" y="301" on="1"/>
        <pt x="77" y="399" on="1"/>
        <pt x="77" y="559" on="0"/>
        <pt x="187" y="710" on="0"/>
        <pt x="433" y="710" on="0"/>
        <pt x="543" y="559" on="0"/>
        <pt x="543" y="399" on="1"/>
        <pt x="543" y="301" on="1"/>
        <pt x="543" y="141" on="0"/>
      </contour>
      <contour>
        <pt x="359" y="680" on="0"/>
        <pt x="261" y="680" on="0"/>
        <pt x="191" y="655" on="0"/>
        <pt x="135" y="595" on="0"/>
        <pt x="107" y="482" on="0"/>
        <pt x="107" y="399" on="1"/>
        <pt x="107" y="301" on="1"/>
        <pt x="107" y="218" on="0"/>
        <pt x="135" y="105" on="0"/>
        <pt x="191" y="45" on="0"/>
        <pt x="261" y="20" on="0"/>
        <pt x="359" y="20" on="0"/>
        <pt x="429" y="45" on="0"/>
        <pt x="485" y="105" on="0"/>
        <pt x="513" y="218" on="0"/>
        <pt x="513" y="301" on="1"/>
        <pt x="513" y="399" on="1"/>
        <pt x="513" y="482" on="0"/>
        <pt x="485" y="595" on="0"/>
        <pt x="429" y="655" on="0"/>
      </contour>
    </TTGlyph>
    <TTGlyph name="Ohungarumlaut" xMin="77" yMin="-10" xMax="543" yMax="880">
      <contour>
        <pt x="347" y="860" on="1"/>
        <pt x="230" y="721" on="1"/>
        <pt x="207" y="740" on="1"/>
        <pt x="324" y="880" on="1"/>
      </contour>
      <contour>
        <pt x="467" y="860" on="1"/>
        <pt x="350" y="721" on="1"/>
        <pt x="327" y="740" on="1"/>
        <pt x="444" y="880" on="1"/>
      </contour>
      <contour>
        <pt x="433" y="-10" on="0"/>
        <pt x="187" y="-10" on="0"/>
        <pt x="77" y="141" on="0"/>
        <pt x="77" y="301" on="1"/>
        <pt x="77" y="399" on="1"/>
        <pt x="77" y="559" on="0"/>
        <pt x="187" y="710" on="0"/>
        <pt x="433" y="710" on="0"/>
        <pt x="543" y="559" on="0"/>
        <pt x="543" y="399" on="1"/>
        <pt x="543" y="301" on="1"/>
        <pt x="543" y="141" on="0"/>
      </contour>
      <contour>
        <pt x="359" y="680" on="0"/>
        <pt x="261" y="680" on="0"/>
        <pt x="191" y="655" on="0"/>
        <pt x="135" y="595" on="0"/>
        <pt x="107" y="482" on="0"/>
        <pt x="107" y="399" on="1"/>
        <pt x="107" y="301" on="1"/>
        <pt x="107" y="218" on="0"/>
        <pt x="135" y="105" on="0"/>
        <pt x="191" y="45" on="0"/>
        <pt x="261" y="20" on="0"/>
        <pt x="359" y="20" on="0"/>
        <pt x="429" y="45" on="0"/>
        <pt x="485" y="105" on="0"/>
        <pt x="513" y="218" on="0"/>
        <pt x="513" y="301" on="1"/>
        <pt x="513" y="399" on="1"/>
        <pt x="513" y="482" on="0"/>
        <pt x="485" y="595" on="0"/>
        <pt x="429" y="655" on="0"/>
      </contour>
    </TTGlyph>
    <TTGlyph name="Omacron" xMin="77" yMin="-10" xMax="543" yMax="800">
      <contour>
        <pt x="433" y="-10" on="0"/>
        <pt x="187" y="-10" on="0"/>
        <pt x="77" y="141" on="0"/>
        <pt x="77" y="301" on="1"/>
        <pt x="77" y="399" on="1"/>
        <pt x="77" y="559" on="0"/>
        <pt x="187" y="710" on="0"/>
        <pt x="433" y="710" on="0"/>
        <pt x="543" y="559" on="0"/>
        <pt x="543" y="399" on="1"/>
        <pt x="543" y="301" on="1"/>
        <pt x="543" y="141" on="0"/>
      </contour>
      <contour>
        <pt x="359" y="680" on="0"/>
        <pt x="261" y="680" on="0"/>
        <pt x="191" y="655" on="0"/>
        <pt x="135" y="595" on="0"/>
        <pt x="107" y="482" on="0"/>
        <pt x="107" y="399" on="1"/>
        <pt x="107" y="301" on="1"/>
        <pt x="107" y="218" on="0"/>
        <pt x="135" y="105" on="0"/>
        <pt x="191" y="45" on="0"/>
        <pt x="261" y="20" on="0"/>
        <pt x="359" y="20" on="0"/>
        <pt x="429" y="45" on="0"/>
        <pt x="485" y="105" on="0"/>
        <pt x="513" y="218" on="0"/>
        <pt x="513" y="301" on="1"/>
        <pt x="513" y="399" on="1"/>
        <pt x="513" y="482" on="0"/>
        <pt x="485" y="595" on="0"/>
        <pt x="429" y="655" on="0"/>
      </contour>
      <contour>
        <pt x="200" y="770" on="1"/>
        <pt x="200" y="800" on="1"/>
        <pt x="420" y="800" on="1"/>
        <pt x="420" y="770" on="1"/>
      </contour>
    </TTGlyph>
    <TTGlyph name="Oslash" xMin="77" yMin="-36" xMax="543" yMax="736">
      <contour>
        <pt x="310" y="680" on="1"/>
        <pt x="261" y="680" on="0"/>
        <pt x="191" y="655" on="0"/>
        <pt x="135" y="595" on="0"/>
        <pt x="107" y="482" on="0"/>
        <pt x="107" y="399" on="1"/>
        <pt x="107" y="301" on="1"/>
        <pt x="107" y="121" on="0"/>
        <pt x="177" y="60" on="1"/>
        <pt x="418" y="657" on="1"/>
        <pt x="377" y="680" on="0"/>
      </contour>
      <contour>
        <pt x="170" y="-36" on="1"/>
        <pt x="143" y="-25" on="1"/>
        <pt x="166" y="31" on="1"/>
        <pt x="77" y="100" on="0"/>
        <pt x="77" y="301" on="1"/>
        <pt x="77" y="399" on="1"/>
        <pt x="77" y="559" on="0"/>
        <pt x="187" y="710" on="0"/>
        <pt x="310" y="710" on="1"/>
        <pt x="382" y="710" on="0"/>
        <pt x="429" y="685" on="1"/>
        <pt x="450" y="736" on="1"/>
        <pt x="477" y="725" on="1"/>
        <pt x="454" y="669" on="1"/>
        <pt x="543" y="600" on="0"/>
        <pt x="543" y="399" on="1"/>
        <pt x="543" y="301" on="1"/>
        <pt x="543" y="141" on="0"/>
        <pt x="433" y="-10" on="0"/>
        <pt x="310" y="-10" on="1"/>
        <pt x="238" y="-10" on="0"/>
        <pt x="191" y="15" on="1"/>
      </contour>
      <contour>
        <pt x="443" y="640" on="1"/>
        <pt x="202" y="43" on="1"/>
        <pt x="243" y="20" on="0"/>
        <pt x="310" y="20" on="1"/>
        <pt x="359" y="20" on="0"/>
        <pt x="429" y="45" on="0"/>
        <pt x="485" y="105" on="0"/>
        <pt x="513" y="218" on="0"/>
        <pt x="513" y="301" on="1"/>
        <pt x="513" y="399" on="1"/>
        <pt x="513" y="579" on="0"/>
      </contour>
    </TTGlyph>
    <TTGlyph name="Oslashacute" xMin="77" yMin="-36" xMax="543" yMax="880">
      <contour>
        <pt x="403" y="860" on="1"/>
        <pt x="286" y="721" on="1"/>
        <pt x="263" y="740" on="1"/>
        <pt x="380" y="880" on="1"/>
      </contour>
      <contour>
        <pt x="310" y="680" on="1"/>
        <pt x="261" y="680" on="0"/>
        <pt x="191" y="655" on="0"/>
        <pt x="135" y="595" on="0"/>
        <pt x="107" y="482" on="0"/>
        <pt x="107" y="399" on="1"/>
        <pt x="107" y="301" on="1"/>
        <pt x="107" y="121" on="0"/>
        <pt x="177" y="60" on="1"/>
        <pt x="418" y="657" on="1"/>
        <pt x="377" y="680" on="0"/>
      </contour>
      <contour>
        <pt x="170" y="-36" on="1"/>
        <pt x="143" y="-25" on="1"/>
        <pt x="166" y="31" on="1"/>
        <pt x="77" y="100" on="0"/>
        <pt x="77" y="301" on="1"/>
        <pt x="77" y="399" on="1"/>
        <pt x="77" y="559" on="0"/>
        <pt x="187" y="710" on="0"/>
        <pt x="310" y="710" on="1"/>
        <pt x="382" y="710" on="0"/>
        <pt x="429" y="685" on="1"/>
        <pt x="450" y="736" on="1"/>
        <pt x="477" y="725" on="1"/>
        <pt x="454" y="669" on="1"/>
        <pt x="543" y="600" on="0"/>
        <pt x="543" y="399" on="1"/>
        <pt x="543" y="301" on="1"/>
        <pt x="543" y="141" on="0"/>
        <pt x="433" y="-10" on="0"/>
        <pt x="310" y="-10" on="1"/>
        <pt x="238" y="-10" on="0"/>
        <pt x="191" y="15" on="1"/>
      </contour>
      <contour>
        <pt x="443" y="640" on="1"/>
        <pt x="202" y="43" on="1"/>
        <pt x="243" y="20" on="0"/>
        <pt x="310" y="20" on="1"/>
        <pt x="359" y="20" on="0"/>
        <pt x="429" y="45" on="0"/>
        <pt x="485" y="105" on="0"/>
        <pt x="513" y="218" on="0"/>
        <pt x="513" y="301" on="1"/>
        <pt x="513" y="399" on="1"/>
        <pt x="513" y="579" on="0"/>
      </contour>
    </TTGlyph>
    <TTGlyph name="Otilde" xMin="77" yMin="-10" xMax="543" yMax="800">
      <contour>
        <pt x="361" y="722" on="1"/>
        <pt x="333" y="722" on="0"/>
        <pt x="283" y="770" on="0"/>
        <pt x="263" y="770" on="1"/>
        <pt x="247" y="770" on="0"/>
        <pt x="223" y="744" on="0"/>
        <pt x="223" y="722" on="1"/>
        <pt x="193" y="722" on="1"/>
        <pt x="193" y="757" on="0"/>
        <pt x="236" y="800" on="0"/>
        <pt x="263" y="800" on="1"/>
        <pt x="291" y="800" on="0"/>
        <pt x="341" y="752" on="0"/>
        <pt x="361" y="752" on="1"/>
        <pt x="377" y="752" on="0"/>
        <pt x="401" y="778" on="0"/>
        <pt x="401" y="800" on="1"/>
        <pt x="431" y="800" on="1"/>
        <pt x="431" y="765" on="0"/>
        <pt x="388" y="722" on="0"/>
      </contour>
      <contour>
        <pt x="433" y="-10" on="0"/>
        <pt x="187" y="-10" on="0"/>
        <pt x="77" y="141" on="0"/>
        <pt x="77" y="301" on="1"/>
        <pt x="77" y="399" on="1"/>
        <pt x="77" y="559" on="0"/>
        <pt x="187" y="710" on="0"/>
        <pt x="433" y="710" on="0"/>
        <pt x="543" y="559" on="0"/>
        <pt x="543" y="399" on="1"/>
        <pt x="543" y="301" on="1"/>
        <pt x="543" y="141" on="0"/>
      </contour>
      <contour>
        <pt x="359" y="680" on="0"/>
        <pt x="261" y="680" on="0"/>
        <pt x="191" y="655" on="0"/>
        <pt x="135" y="595" on="0"/>
        <pt x="107" y="482" on="0"/>
        <pt x="107" y="399" on="1"/>
        <pt x="107" y="301" on="1"/>
        <pt x="107" y="218" on="0"/>
        <pt x="135" y="105" on="0"/>
        <pt x="191" y="45" on="0"/>
        <pt x="261" y="20" on="0"/>
        <pt x="359" y="20" on="0"/>
        <pt x="429" y="45" on="0"/>
        <pt x="485" y="105" on="0"/>
        <pt x="513" y="218" on="0"/>
        <pt x="513" y="301" on="1"/>
        <pt x="513" y="399" on="1"/>
        <pt x="513" y="482" on="0"/>
        <pt x="485" y="595" on="0"/>
        <pt x="429" y="655" on="0"/>
      </contour>
    </TTGlyph>
    <TTGlyph name="P" xMin="99" yMin="0" xMax="487" yMax="700">
      <contour>
        <pt x="347" y="336" on="1"/>
        <pt x="332" y="362" on="1"/>
        <pt x="388" y="394" on="1"/>
        <pt x="457" y="432" on="0"/>
        <pt x="457" y="515" on="1"/>
        <pt x="457" y="670" on="0"/>
        <pt x="221" y="670" on="1"/>
        <pt x="129" y="670" on="1"/>
        <pt x="129" y="0" on="1"/>
        <pt x="99" y="0" on="1"/>
        <pt x="99" y="700" on="1"/>
        <pt x="221" y="700" on="1"/>
        <pt x="353" y="700" on="0"/>
        <pt x="487" y="603" on="0"/>
        <pt x="487" y="515" on="1"/>
        <pt x="487" y="415" on="0"/>
        <pt x="403" y="368" on="1"/>
      </contour>
    </TTGlyph>
    <TTGlyph name="Q" xMin="77" yMin="-200" xMax="543" yMax="710">
      <contour>
        <pt x="543" y="301" on="1"/>
        <pt x="543" y="106" on="0"/>
        <pt x="459" y="35" on="1"/>
        <pt x="440" y="58" on="1"/>
        <pt x="513" y="120" on="0"/>
        <pt x="513" y="301" on="1"/>
        <pt x="513" y="399" on="1"/>
        <pt x="513" y="482" on="0"/>
        <pt x="485" y="595" on="0"/>
        <pt x="429" y="655" on="0"/>
        <pt x="359" y="680" on="0"/>
        <pt x="261" y="680" on="0"/>
        <pt x="191" y="655" on="0"/>
        <pt x="135" y="595" on="0"/>
        <pt x="107" y="482" on="0"/>
        <pt x="107" y="399" on="1"/>
        <pt x="107" y="301" on="1"/>
        <pt x="107" y="218" on="0"/>
        <pt x="135" y="105" on="0"/>
        <pt x="191" y="45" on="0"/>
        <pt x="261" y="20" on="0"/>
        <pt x="310" y="20" on="1"/>
        <pt x="310" y="-91" on="0"/>
        <pt x="381" y="-170" on="0"/>
        <pt x="456" y="-170" on="1"/>
        <pt x="456" y="-200" on="1"/>
        <pt x="375" y="-200" on="0"/>
        <pt x="287" y="-120" on="0"/>
        <pt x="281" y="-9" on="1"/>
        <pt x="174" y="0" on="0"/>
        <pt x="77" y="151" on="0"/>
        <pt x="77" y="301" on="1"/>
        <pt x="77" y="399" on="1"/>
        <pt x="77" y="559" on="0"/>
        <pt x="187" y="710" on="0"/>
        <pt x="433" y="710" on="0"/>
        <pt x="543" y="559" on="0"/>
        <pt x="543" y="399" on="1"/>
      </contour>
    </TTGlyph>
    <TTGlyph name="R" xMin="99" yMin="0" xMax="496" yMax="700">
      <contour>
        <pt x="177" y="30" on="1"/>
        <pt x="453" y="30" on="1"/>
        <pt x="332" y="362" on="1"/>
        <pt x="388" y="394" on="1"/>
        <pt x="457" y="432" on="0"/>
        <pt x="457" y="515" on="1"/>
        <pt x="457" y="670" on="0"/>
        <pt x="221" y="670" on="1"/>
        <pt x="129" y="670" on="1"/>
        <pt x="129" y="0" on="1"/>
        <pt x="99" y="0" on="1"/>
        <pt x="99" y="700" on="1"/>
        <pt x="221" y="700" on="1"/>
        <pt x="353" y="700" on="0"/>
        <pt x="487" y="603" on="0"/>
        <pt x="487" y="515" on="1"/>
        <pt x="487" y="415" on="0"/>
        <pt x="403" y="368" on="1"/>
        <pt x="369" y="349" on="1"/>
        <pt x="496" y="0" on="1"/>
        <pt x="177" y="0" on="1"/>
      </contour>
    </TTGlyph>
    <TTGlyph name="R.ss01" xMin="99" yMin="0" xMax="496" yMax="700">
      <contour>
        <pt x="464" y="0" on="1"/>
        <pt x="332" y="362" on="1"/>
        <pt x="388" y="394" on="1"/>
        <pt x="457" y="432" on="0"/>
        <pt x="457" y="515" on="1"/>
        <pt x="457" y="670" on="0"/>
        <pt x="221" y="670" on="1"/>
        <pt x="129" y="670" on="1"/>
        <pt x="129" y="0" on="1"/>
        <pt x="99" y="0" on="1"/>
        <pt x="99" y="700" on="1"/>
        <pt x="221" y="700" on="1"/>
        <pt x="353" y="700" on="0"/>
        <pt x="487" y="603" on="0"/>
        <pt x="487" y="515" on="1"/>
        <pt x="487" y="415" on="0"/>
        <pt x="403" y="368" on="1"/>
        <pt x="369" y="349" on="1"/>
        <pt x="496" y="0" on="1"/>
      </contour>
    </TTGlyph>
    <TTGlyph name="Racute" xMin="99" yMin="0" xMax="496" yMax="880">
      <contour>
        <pt x="386" y="860" on="1"/>
        <pt x="269" y="721" on="1"/>
        <pt x="246" y="740" on="1"/>
        <pt x="363" y="880" on="1"/>
      </contour>
      <contour>
        <pt x="177" y="30" on="1"/>
        <pt x="453" y="30" on="1"/>
        <pt x="332" y="362" on="1"/>
        <pt x="388" y="394" on="1"/>
        <pt x="457" y="432" on="0"/>
        <pt x="457" y="515" on="1"/>
        <pt x="457" y="670" on="0"/>
        <pt x="221" y="670" on="1"/>
        <pt x="129" y="670" on="1"/>
        <pt x="129" y="0" on="1"/>
        <pt x="99" y="0" on="1"/>
        <pt x="99" y="700" on="1"/>
        <pt x="221" y="700" on="1"/>
        <pt x="353" y="700" on="0"/>
        <pt x="487" y="603" on="0"/>
        <pt x="487" y="515" on="1"/>
        <pt x="487" y="415" on="0"/>
        <pt x="403" y="368" on="1"/>
        <pt x="369" y="349" on="1"/>
        <pt x="496" y="0" on="1"/>
        <pt x="177" y="0" on="1"/>
      </contour>
    </TTGlyph>
    <TTGlyph name="Rcaron" xMin="99" yMin="0" xMax="496" yMax="870">
      <contour>
        <pt x="271" y="711" on="1"/>
        <pt x="154" y="851" on="1"/>
        <pt x="177" y="870" on="1"/>
        <pt x="271" y="758" on="1"/>
        <pt x="365" y="870" on="1"/>
        <pt x="388" y="851" on="1"/>
      </contour>
      <contour>
        <pt x="177" y="30" on="1"/>
        <pt x="453" y="30" on="1"/>
        <pt x="332" y="362" on="1"/>
        <pt x="388" y="394" on="1"/>
        <pt x="457" y="432" on="0"/>
        <pt x="457" y="515" on="1"/>
        <pt x="457" y="670" on="0"/>
        <pt x="221" y="670" on="1"/>
        <pt x="129" y="670" on="1"/>
        <pt x="129" y="0" on="1"/>
        <pt x="99" y="0" on="1"/>
        <pt x="99" y="700" on="1"/>
        <pt x="221" y="700" on="1"/>
        <pt x="353" y="700" on="0"/>
        <pt x="487" y="603" on="0"/>
        <pt x="487" y="515" on="1"/>
        <pt x="487" y="415" on="0"/>
        <pt x="403" y="368" on="1"/>
        <pt x="369" y="349" on="1"/>
        <pt x="496" y="0" on="1"/>
        <pt x="177" y="0" on="1"/>
      </contour>
    </TTGlyph>
    <TTGlyph name="Rcommaaccent" xMin="99" yMin="-198" xMax="496" yMax="700">
      <contour>
        <pt x="464" y="0" on="1"/>
        <pt x="332" y="362" on="1"/>
        <pt x="388" y="394" on="1"/>
        <pt x="457" y="432" on="0"/>
        <pt x="457" y="515" on="1"/>
        <pt x="457" y="670" on="0"/>
        <pt x="221" y="670" on="1"/>
        <pt x="129" y="670" on="1"/>
        <pt x="129" y="0" on="1"/>
        <pt x="99" y="0" on="1"/>
        <pt x="99" y="700" on="1"/>
        <pt x="221" y="700" on="1"/>
        <pt x="353" y="700" on="0"/>
        <pt x="487" y="603" on="0"/>
        <pt x="487" y="515" on="1"/>
        <pt x="487" y="415" on="0"/>
        <pt x="403" y="368" on="1"/>
        <pt x="369" y="349" on="1"/>
        <pt x="496" y="0" on="1"/>
      </contour>
      <contour>
        <pt x="251" y="-176" on="1"/>
        <pt x="294" y="-143" on="0"/>
        <pt x="294" y="-95" on="1"/>
        <pt x="265" y="-95" on="1"/>
        <pt x="265" y="-37" on="1"/>
        <pt x="331" y="-37" on="1"/>
        <pt x="331" y="-108" on="0"/>
        <pt x="305" y="-168" on="0"/>
        <pt x="271" y="-198" on="1"/>
      </contour>
    </TTGlyph>
    <TTGlyph name="S" xMin="53" yMin="-10" xMax="503" yMax="710">
      <contour>
        <pt x="78" y="527" on="1"/>
        <pt x="78" y="624" on="0"/>
        <pt x="176" y="710" on="0"/>
        <pt x="286" y="710" on="1"/>
        <pt x="363" y="710" on="0"/>
        <pt x="457" y="630" on="0"/>
        <pt x="478" y="548" on="1"/>
        <pt x="385" y="478" on="1"/>
        <pt x="336" y="478" on="1"/>
        <pt x="444" y="559" on="1"/>
        <pt x="423" y="626" on="0"/>
        <pt x="344" y="680" on="0"/>
        <pt x="286" y="680" on="1"/>
        <pt x="246" y="680" on="0"/>
        <pt x="191" y="670" on="0"/>
        <pt x="136" y="641" on="0"/>
        <pt x="108" y="577" on="0"/>
        <pt x="108" y="527" on="1"/>
        <pt x="108" y="483" on="0"/>
        <pt x="189" y="415" on="0"/>
        <pt x="305" y="367" on="0"/>
        <pt x="422" y="317" on="0"/>
        <pt x="503" y="239" on="0"/>
        <pt x="503" y="188" on="1"/>
        <pt x="503" y="88" on="0"/>
        <pt x="404" y="-10" on="0"/>
        <pt x="284" y="-10" on="1"/>
        <pt x="186" y="-10" on="0"/>
        <pt x="74" y="69" on="0"/>
        <pt x="53" y="152" on="1"/>
        <pt x="81" y="164" on="1"/>
        <pt x="101" y="83" on="0"/>
        <pt x="198" y="20" on="0"/>
        <pt x="284" y="20" on="1"/>
        <pt x="380" y="20" on="0"/>
        <pt x="473" y="94" on="0"/>
        <pt x="473" y="188" on="1"/>
        <pt x="473" y="232" on="0"/>
        <pt x="392" y="300" on="0"/>
        <pt x="275" y="348" on="0"/>
        <pt x="159" y="398" on="0"/>
        <pt x="78" y="476" on="0"/>
      </contour>
    </TTGlyph>
    <TTGlyph name="Sacute" xMin="53" yMin="-10" xMax="503" yMax="880">
      <contour>
        <pt x="393" y="860" on="1"/>
        <pt x="276" y="721" on="1"/>
        <pt x="253" y="740" on="1"/>
        <pt x="370" y="880" on="1"/>
      </contour>
      <contour>
        <pt x="78" y="527" on="1"/>
        <pt x="78" y="624" on="0"/>
        <pt x="176" y="710" on="0"/>
        <pt x="286" y="710" on="1"/>
        <pt x="363" y="710" on="0"/>
        <pt x="457" y="630" on="0"/>
        <pt x="478" y="548" on="1"/>
        <pt x="385" y="478" on="1"/>
        <pt x="336" y="478" on="1"/>
        <pt x="444" y="559" on="1"/>
        <pt x="423" y="626" on="0"/>
        <pt x="344" y="680" on="0"/>
        <pt x="286" y="680" on="1"/>
        <pt x="246" y="680" on="0"/>
        <pt x="191" y="670" on="0"/>
        <pt x="136" y="641" on="0"/>
        <pt x="108" y="577" on="0"/>
        <pt x="108" y="527" on="1"/>
        <pt x="108" y="483" on="0"/>
        <pt x="189" y="415" on="0"/>
        <pt x="305" y="367" on="0"/>
        <pt x="422" y="317" on="0"/>
        <pt x="503" y="239" on="0"/>
        <pt x="503" y="188" on="1"/>
        <pt x="503" y="88" on="0"/>
        <pt x="404" y="-10" on="0"/>
        <pt x="284" y="-10" on="1"/>
        <pt x="186" y="-10" on="0"/>
        <pt x="74" y="69" on="0"/>
        <pt x="53" y="152" on="1"/>
        <pt x="81" y="164" on="1"/>
        <pt x="101" y="83" on="0"/>
        <pt x="198" y="20" on="0"/>
        <pt x="284" y="20" on="1"/>
        <pt x="380" y="20" on="0"/>
        <pt x="473" y="94" on="0"/>
        <pt x="473" y="188" on="1"/>
        <pt x="473" y="232" on="0"/>
        <pt x="392" y="300" on="0"/>
        <pt x="275" y="348" on="0"/>
        <pt x="159" y="398" on="0"/>
        <pt x="78" y="476" on="0"/>
      </contour>
    </TTGlyph>
    <TTGlyph name="Scaron" xMin="53" yMin="-10" xMax="503" yMax="870">
      <contour>
        <pt x="274" y="711" on="1"/>
        <pt x="157" y="851" on="1"/>
        <pt x="180" y="870" on="1"/>
        <pt x="274" y="758" on="1"/>
        <pt x="368" y="870" on="1"/>
        <pt x="391" y="851" on="1"/>
      </contour>
      <contour>
        <pt x="78" y="527" on="1"/>
        <pt x="78" y="624" on="0"/>
        <pt x="176" y="710" on="0"/>
        <pt x="286" y="710" on="1"/>
        <pt x="363" y="710" on="0"/>
        <pt x="457" y="630" on="0"/>
        <pt x="478" y="548" on="1"/>
        <pt x="385" y="478" on="1"/>
        <pt x="336" y="478" on="1"/>
        <pt x="444" y="559" on="1"/>
        <pt x="423" y="626" on="0"/>
        <pt x="344" y="680" on="0"/>
        <pt x="286" y="680" on="1"/>
        <pt x="246" y="680" on="0"/>
        <pt x="191" y="670" on="0"/>
        <pt x="136" y="641" on="0"/>
        <pt x="108" y="577" on="0"/>
        <pt x="108" y="527" on="1"/>
        <pt x="108" y="483" on="0"/>
        <pt x="189" y="415" on="0"/>
        <pt x="305" y="367" on="0"/>
        <pt x="422" y="317" on="0"/>
        <pt x="503" y="239" on="0"/>
        <pt x="503" y="188" on="1"/>
        <pt x="503" y="88" on="0"/>
        <pt x="404" y="-10" on="0"/>
        <pt x="284" y="-10" on="1"/>
        <pt x="186" y="-10" on="0"/>
        <pt x="74" y="69" on="0"/>
        <pt x="53" y="152" on="1"/>
        <pt x="81" y="164" on="1"/>
        <pt x="101" y="83" on="0"/>
        <pt x="198" y="20" on="0"/>
        <pt x="284" y="20" on="1"/>
        <pt x="380" y="20" on="0"/>
        <pt x="473" y="94" on="0"/>
        <pt x="473" y="188" on="1"/>
        <pt x="473" y="232" on="0"/>
        <pt x="392" y="300" on="0"/>
        <pt x="275" y="348" on="0"/>
        <pt x="159" y="398" on="0"/>
        <pt x="78" y="476" on="0"/>
      </contour>
    </TTGlyph>
    <TTGlyph name="Scedilla" xMin="53" yMin="-198" xMax="503" yMax="710">
      <contour>
        <pt x="225" y="-176" on="1"/>
        <pt x="268" y="-143" on="0"/>
        <pt x="268" y="-95" on="1"/>
        <pt x="239" y="-95" on="1"/>
        <pt x="239" y="-37" on="1"/>
        <pt x="305" y="-37" on="1"/>
        <pt x="305" y="-108" on="0"/>
        <pt x="279" y="-168" on="0"/>
        <pt x="245" y="-198" on="1"/>
      </contour>
      <contour>
        <pt x="78" y="527" on="1"/>
        <pt x="78" y="624" on="0"/>
        <pt x="176" y="710" on="0"/>
        <pt x="286" y="710" on="1"/>
        <pt x="363" y="710" on="0"/>
        <pt x="457" y="630" on="0"/>
        <pt x="478" y="548" on="1"/>
        <pt x="385" y="478" on="1"/>
        <pt x="336" y="478" on="1"/>
        <pt x="444" y="559" on="1"/>
        <pt x="423" y="626" on="0"/>
        <pt x="344" y="680" on="0"/>
        <pt x="286" y="680" on="1"/>
        <pt x="246" y="680" on="0"/>
        <pt x="191" y="670" on="0"/>
        <pt x="136" y="641" on="0"/>
        <pt x="108" y="577" on="0"/>
        <pt x="108" y="527" on="1"/>
        <pt x="108" y="483" on="0"/>
        <pt x="189" y="415" on="0"/>
        <pt x="305" y="367" on="0"/>
        <pt x="422" y="317" on="0"/>
        <pt x="503" y="239" on="0"/>
        <pt x="503" y="188" on="1"/>
        <pt x="503" y="88" on="0"/>
        <pt x="404" y="-10" on="0"/>
        <pt x="284" y="-10" on="1"/>
        <pt x="186" y="-10" on="0"/>
        <pt x="74" y="69" on="0"/>
        <pt x="53" y="152" on="1"/>
        <pt x="81" y="164" on="1"/>
        <pt x="101" y="83" on="0"/>
        <pt x="198" y="20" on="0"/>
        <pt x="284" y="20" on="1"/>
        <pt x="380" y="20" on="0"/>
        <pt x="473" y="94" on="0"/>
        <pt x="473" y="188" on="1"/>
        <pt x="473" y="232" on="0"/>
        <pt x="392" y="300" on="0"/>
        <pt x="275" y="348" on="0"/>
        <pt x="159" y="398" on="0"/>
        <pt x="78" y="476" on="0"/>
      </contour>
    </TTGlyph>
    <TTGlyph name="Scircumflex" xMin="54" yMin="-10" xMax="504" yMax="864">
      <contour>
        <pt x="270" y="864" on="1"/>
        <pt x="387" y="724" on="1"/>
        <pt x="364" y="705" on="1"/>
        <pt x="270" y="817" on="1"/>
        <pt x="176" y="705" on="1"/>
        <pt x="153" y="724" on="1"/>
      </contour>
      <contour>
        <pt x="79" y="527" on="1"/>
        <pt x="79" y="624" on="0"/>
        <pt x="177" y="710" on="0"/>
        <pt x="287" y="710" on="1"/>
        <pt x="364" y="710" on="0"/>
        <pt x="458" y="630" on="0"/>
        <pt x="479" y="548" on="1"/>
        <pt x="386" y="478" on="1"/>
        <pt x="337" y="478" on="1"/>
        <pt x="445" y="559" on="1"/>
        <pt x="424" y="626" on="0"/>
        <pt x="345" y="680" on="0"/>
        <pt x="287" y="680" on="1"/>
        <pt x="247" y="680" on="0"/>
        <pt x="192" y="670" on="0"/>
        <pt x="137" y="641" on="0"/>
        <pt x="109" y="577" on="0"/>
        <pt x="109" y="527" on="1"/>
        <pt x="109" y="483" on="0"/>
        <pt x="190" y="415" on="0"/>
        <pt x="306" y="367" on="0"/>
        <pt x="423" y="317" on="0"/>
        <pt x="504" y="239" on="0"/>
        <pt x="504" y="188" on="1"/>
        <pt x="504" y="88" on="0"/>
        <pt x="405" y="-10" on="0"/>
        <pt x="285" y="-10" on="1"/>
        <pt x="187" y="-10" on="0"/>
        <pt x="75" y="69" on="0"/>
        <pt x="54" y="152" on="1"/>
        <pt x="82" y="164" on="1"/>
        <pt x="102" y="83" on="0"/>
        <pt x="199" y="20" on="0"/>
        <pt x="285" y="20" on="1"/>
        <pt x="381" y="20" on="0"/>
        <pt x="474" y="94" on="0"/>
        <pt x="474" y="188" on="1"/>
        <pt x="474" y="232" on="0"/>
        <pt x="393" y="300" on="0"/>
        <pt x="276" y="348" on="0"/>
        <pt x="160" y="398" on="0"/>
        <pt x="79" y="476" on="0"/>
      </contour>
    </TTGlyph>
    <TTGlyph name="Scommaaccent" xMin="53" yMin="-198" xMax="503" yMax="710">
      <contour>
        <pt x="225" y="-176" on="1"/>
        <pt x="268" y="-143" on="0"/>
        <pt x="268" y="-95" on="1"/>
        <pt x="239" y="-95" on="1"/>
        <pt x="239" y="-37" on="1"/>
        <pt x="305" y="-37" on="1"/>
        <pt x="305" y="-108" on="0"/>
        <pt x="279" y="-168" on="0"/>
        <pt x="245" y="-198" on="1"/>
      </contour>
      <contour>
        <pt x="78" y="527" on="1"/>
        <pt x="78" y="624" on="0"/>
        <pt x="176" y="710" on="0"/>
        <pt x="286" y="710" on="1"/>
        <pt x="363" y="710" on="0"/>
        <pt x="457" y="630" on="0"/>
        <pt x="478" y="548" on="1"/>
        <pt x="385" y="478" on="1"/>
        <pt x="336" y="478" on="1"/>
        <pt x="444" y="559" on="1"/>
        <pt x="423" y="626" on="0"/>
        <pt x="344" y="680" on="0"/>
        <pt x="286" y="680" on="1"/>
        <pt x="246" y="680" on="0"/>
        <pt x="191" y="670" on="0"/>
        <pt x="136" y="641" on="0"/>
        <pt x="108" y="577" on="0"/>
        <pt x="108" y="527" on="1"/>
        <pt x="108" y="483" on="0"/>
        <pt x="189" y="415" on="0"/>
        <pt x="305" y="367" on="0"/>
        <pt x="422" y="317" on="0"/>
        <pt x="503" y="239" on="0"/>
        <pt x="503" y="188" on="1"/>
        <pt x="503" y="88" on="0"/>
        <pt x="404" y="-10" on="0"/>
        <pt x="284" y="-10" on="1"/>
        <pt x="186" y="-10" on="0"/>
        <pt x="74" y="69" on="0"/>
        <pt x="53" y="152" on="1"/>
        <pt x="81" y="164" on="1"/>
        <pt x="101" y="83" on="0"/>
        <pt x="198" y="20" on="0"/>
        <pt x="284" y="20" on="1"/>
        <pt x="380" y="20" on="0"/>
        <pt x="473" y="94" on="0"/>
        <pt x="473" y="188" on="1"/>
        <pt x="473" y="232" on="0"/>
        <pt x="392" y="300" on="0"/>
        <pt x="275" y="348" on="0"/>
        <pt x="159" y="398" on="0"/>
        <pt x="78" y="476" on="0"/>
      </contour>
    </TTGlyph>
    <TTGlyph name="T" xMin="15" yMin="0" xMax="515" yMax="700">
      <contour>
        <pt x="515" y="700" on="1"/>
        <pt x="515" y="670" on="1"/>
        <pt x="280" y="670" on="1"/>
        <pt x="280" y="0" on="1"/>
        <pt x="250" y="0" on="1"/>
        <pt x="250" y="670" on="1"/>
        <pt x="15" y="670" on="1"/>
        <pt x="15" y="700" on="1"/>
      </contour>
    </TTGlyph>
    <TTGlyph name="Tbar" xMin="15" yMin="0" xMax="515" yMax="700">
      <contour>
        <pt x="515" y="700" on="1"/>
        <pt x="515" y="670" on="1"/>
        <pt x="280" y="670" on="1"/>
        <pt x="280" y="482" on="1"/>
        <pt x="408" y="482" on="1"/>
        <pt x="408" y="452" on="1"/>
        <pt x="280" y="452" on="1"/>
        <pt x="280" y="0" on="1"/>
        <pt x="250" y="0" on="1"/>
        <pt x="250" y="452" on="1"/>
        <pt x="122" y="452" on="1"/>
        <pt x="122" y="482" on="1"/>
        <pt x="250" y="482" on="1"/>
        <pt x="250" y="670" on="1"/>
        <pt x="15" y="670" on="1"/>
        <pt x="15" y="700" on="1"/>
      </contour>
    </TTGlyph>
    <TTGlyph name="Tcaron" xMin="15" yMin="0" xMax="515" yMax="870">
      <contour>
        <pt x="266" y="711" on="1"/>
        <pt x="149" y="851" on="1"/>
        <pt x="172" y="870" on="1"/>
        <pt x="266" y="758" on="1"/>
        <pt x="360" y="870" on="1"/>
        <pt x="383" y="851" on="1"/>
      </contour>
      <contour>
        <pt x="515" y="700" on="1"/>
        <pt x="515" y="670" on="1"/>
        <pt x="280" y="670" on="1"/>
        <pt x="280" y="0" on="1"/>
        <pt x="250" y="0" on="1"/>
        <pt x="250" y="670" on="1"/>
        <pt x="15" y="670" on="1"/>
        <pt x="15" y="700" on="1"/>
      </contour>
    </TTGlyph>
    <TTGlyph name="Tcommaaccent" xMin="14" yMin="-198" xMax="514" yMax="700">
      <contour>
        <pt x="217" y="-176" on="1"/>
        <pt x="260" y="-143" on="0"/>
        <pt x="260" y="-95" on="1"/>
        <pt x="231" y="-95" on="1"/>
        <pt x="231" y="-37" on="1"/>
        <pt x="297" y="-37" on="1"/>
        <pt x="297" y="-108" on="0"/>
        <pt x="271" y="-168" on="0"/>
        <pt x="237" y="-198" on="1"/>
      </contour>
      <contour>
        <pt x="514" y="700" on="1"/>
        <pt x="514" y="670" on="1"/>
        <pt x="279" y="670" on="1"/>
        <pt x="279" y="0" on="1"/>
        <pt x="249" y="0" on="1"/>
        <pt x="249" y="670" on="1"/>
        <pt x="14" y="670" on="1"/>
        <pt x="14" y="700" on="1"/>
      </contour>
    </TTGlyph>
    <TTGlyph name="Thorn" xMin="99" yMin="0" xMax="487" yMax="700">
      <contour>
        <pt x="99" y="700" on="1"/>
        <pt x="129" y="700" on="1"/>
        <pt x="129" y="550" on="1"/>
        <pt x="221" y="550" on="1"/>
        <pt x="353" y="550" on="0"/>
        <pt x="487" y="453" on="0"/>
        <pt x="487" y="277" on="0"/>
        <pt x="353" y="180" on="0"/>
        <pt x="221" y="180" on="1"/>
        <pt x="129" y="180" on="1"/>
        <pt x="129" y="0" on="1"/>
        <pt x="99" y="0" on="1"/>
      </contour>
      <contour>
        <pt x="129" y="520" on="1"/>
        <pt x="129" y="210" on="1"/>
        <pt x="221" y="210" on="1"/>
        <pt x="457" y="210" on="0"/>
        <pt x="457" y="520" on="0"/>
        <pt x="221" y="520" on="1"/>
      </contour>
    </TTGlyph>
    <TTGlyph name="U" xMin="90" yMin="-10" xMax="556" yMax="700">
      <contour>
        <pt x="173" y="700" on="1"/>
        <pt x="556" y="700" on="1"/>
        <pt x="556" y="301" on="1"/>
        <pt x="556" y="141" on="0"/>
        <pt x="446" y="-10" on="0"/>
        <pt x="200" y="-10" on="0"/>
        <pt x="90" y="141" on="0"/>
        <pt x="90" y="301" on="1"/>
        <pt x="90" y="700" on="1"/>
        <pt x="120" y="700" on="1"/>
        <pt x="120" y="301" on="1"/>
        <pt x="120" y="218" on="0"/>
        <pt x="148" y="105" on="0"/>
        <pt x="204" y="45" on="0"/>
        <pt x="274" y="20" on="0"/>
        <pt x="372" y="20" on="0"/>
        <pt x="442" y="45" on="0"/>
        <pt x="498" y="105" on="0"/>
        <pt x="526" y="218" on="0"/>
        <pt x="526" y="301" on="1"/>
        <pt x="526" y="670" on="1"/>
        <pt x="173" y="670" on="1"/>
      </contour>
    </TTGlyph>
    <TTGlyph name="U.ss01" xMin="90" yMin="-10" xMax="556" yMax="700">
      <contour>
        <pt x="556" y="700" on="1"/>
        <pt x="556" y="301" on="1"/>
        <pt x="556" y="141" on="0"/>
        <pt x="446" y="-10" on="0"/>
        <pt x="200" y="-10" on="0"/>
        <pt x="90" y="141" on="0"/>
        <pt x="90" y="301" on="1"/>
        <pt x="90" y="700" on="1"/>
        <pt x="120" y="700" on="1"/>
        <pt x="120" y="301" on="1"/>
        <pt x="120" y="218" on="0"/>
        <pt x="148" y="105" on="0"/>
        <pt x="204" y="45" on="0"/>
        <pt x="274" y="20" on="0"/>
        <pt x="372" y="20" on="0"/>
        <pt x="442" y="45" on="0"/>
        <pt x="498" y="105" on="0"/>
        <pt x="526" y="218" on="0"/>
        <pt x="526" y="301" on="1"/>
        <pt x="526" y="700" on="1"/>
      </contour>
    </TTGlyph>
    <TTGlyph name="Uacute" xMin="90" yMin="-10" xMax="556" yMax="880">
      <contour>
        <pt x="556" y="700" on="1"/>
        <pt x="556" y="301" on="1"/>
        <pt x="556" y="141" on="0"/>
        <pt x="446" y="-10" on="0"/>
        <pt x="200" y="-10" on="0"/>
        <pt x="90" y="141" on="0"/>
        <pt x="90" y="301" on="1"/>
        <pt x="90" y="700" on="1"/>
        <pt x="120" y="700" on="1"/>
        <pt x="120" y="301" on="1"/>
        <pt x="120" y="218" on="0"/>
        <pt x="148" y="105" on="0"/>
        <pt x="204" y="45" on="0"/>
        <pt x="274" y="20" on="0"/>
        <pt x="372" y="20" on="0"/>
        <pt x="442" y="45" on="0"/>
        <pt x="498" y="105" on="0"/>
        <pt x="526" y="218" on="0"/>
        <pt x="526" y="301" on="1"/>
        <pt x="526" y="700" on="1"/>
      </contour>
      <contour>
        <pt x="416" y="860" on="1"/>
        <pt x="299" y="721" on="1"/>
        <pt x="276" y="740" on="1"/>
        <pt x="393" y="880" on="1"/>
      </contour>
    </TTGlyph>
    <TTGlyph name="Ubreve" xMin="90" yMin="-10" xMax="556" yMax="819">
      <contour>
        <pt x="556" y="700" on="1"/>
        <pt x="556" y="301" on="1"/>
        <pt x="556" y="141" on="0"/>
        <pt x="446" y="-10" on="0"/>
        <pt x="200" y="-10" on="0"/>
        <pt x="90" y="141" on="0"/>
        <pt x="90" y="301" on="1"/>
        <pt x="90" y="700" on="1"/>
        <pt x="120" y="700" on="1"/>
        <pt x="120" y="301" on="1"/>
        <pt x="120" y="218" on="0"/>
        <pt x="148" y="105" on="0"/>
        <pt x="204" y="45" on="0"/>
        <pt x="274" y="20" on="0"/>
        <pt x="372" y="20" on="0"/>
        <pt x="442" y="45" on="0"/>
        <pt x="498" y="105" on="0"/>
        <pt x="526" y="218" on="0"/>
        <pt x="526" y="301" on="1"/>
        <pt x="526" y="700" on="1"/>
      </contour>
      <contour>
        <pt x="423" y="819" on="1"/>
        <pt x="423" y="776" on="0"/>
        <pt x="363" y="719" on="0"/>
        <pt x="323" y="719" on="1"/>
        <pt x="280" y="719" on="0"/>
        <pt x="223" y="779" on="0"/>
        <pt x="223" y="819" on="1"/>
        <pt x="253" y="819" on="1"/>
        <pt x="253" y="789" on="0"/>
        <pt x="295" y="749" on="0"/>
        <pt x="323" y="749" on="1"/>
        <pt x="353" y="749" on="0"/>
        <pt x="393" y="791" on="0"/>
        <pt x="393" y="819" on="1"/>
      </contour>
    </TTGlyph>
    <TTGlyph name="Ucircumflex" xMin="90" yMin="-10" xMax="556" yMax="864">
      <contour>
        <pt x="556" y="700" on="1"/>
        <pt x="556" y="301" on="1"/>
        <pt x="556" y="141" on="0"/>
        <pt x="446" y="-10" on="0"/>
        <pt x="200" y="-10" on="0"/>
        <pt x="90" y="141" on="0"/>
        <pt x="90" y="301" on="1"/>
        <pt x="90" y="700" on="1"/>
        <pt x="120" y="700" on="1"/>
        <pt x="120" y="301" on="1"/>
        <pt x="120" y="218" on="0"/>
        <pt x="148" y="105" on="0"/>
        <pt x="204" y="45" on="0"/>
        <pt x="274" y="20" on="0"/>
        <pt x="372" y="20" on="0"/>
        <pt x="442" y="45" on="0"/>
        <pt x="498" y="105" on="0"/>
        <pt x="526" y="218" on="0"/>
        <pt x="526" y="301" on="1"/>
        <pt x="526" y="700" on="1"/>
      </contour>
      <contour>
        <pt x="323" y="864" on="1"/>
        <pt x="440" y="724" on="1"/>
        <pt x="417" y="705" on="1"/>
        <pt x="323" y="817" on="1"/>
        <pt x="229" y="705" on="1"/>
        <pt x="206" y="724" on="1"/>
      </contour>
    </TTGlyph>
    <TTGlyph name="Udieresis" xMin="90" yMin="-10" xMax="556" yMax="812">
      <contour>
        <pt x="556" y="700" on="1"/>
        <pt x="556" y="301" on="1"/>
        <pt x="556" y="141" on="0"/>
        <pt x="446" y="-10" on="0"/>
        <pt x="200" y="-10" on="0"/>
        <pt x="90" y="141" on="0"/>
        <pt x="90" y="301" on="1"/>
        <pt x="90" y="700" on="1"/>
        <pt x="120" y="700" on="1"/>
        <pt x="120" y="301" on="1"/>
        <pt x="120" y="218" on="0"/>
        <pt x="148" y="105" on="0"/>
        <pt x="204" y="45" on="0"/>
        <pt x="274" y="20" on="0"/>
        <pt x="372" y="20" on="0"/>
        <pt x="442" y="45" on="0"/>
        <pt x="498" y="105" on="0"/>
        <pt x="526" y="218" on="0"/>
        <pt x="526" y="301" on="1"/>
        <pt x="526" y="700" on="1"/>
      </contour>
      <contour>
        <pt x="379" y="812" on="1"/>
        <pt x="445" y="812" on="1"/>
        <pt x="445" y="754" on="1"/>
        <pt x="379" y="754" on="1"/>
      </contour>
      <contour>
        <pt x="201" y="812" on="1"/>
        <pt x="267" y="812" on="1"/>
        <pt x="267" y="754" on="1"/>
        <pt x="201" y="754" on="1"/>
      </contour>
    </TTGlyph>
    <TTGlyph name="Ugrave" xMin="90" yMin="-10" xMax="556" yMax="880">
      <contour>
        <pt x="556" y="700" on="1"/>
        <pt x="556" y="301" on="1"/>
        <pt x="556" y="141" on="0"/>
        <pt x="446" y="-10" on="0"/>
        <pt x="200" y="-10" on="0"/>
        <pt x="90" y="141" on="0"/>
        <pt x="90" y="301" on="1"/>
        <pt x="90" y="700" on="1"/>
        <pt x="120" y="700" on="1"/>
        <pt x="120" y="301" on="1"/>
        <pt x="120" y="218" on="0"/>
        <pt x="148" y="105" on="0"/>
        <pt x="204" y="45" on="0"/>
        <pt x="274" y="20" on="0"/>
        <pt x="372" y="20" on="0"/>
        <pt x="442" y="45" on="0"/>
        <pt x="498" y="105" on="0"/>
        <pt x="526" y="218" on="0"/>
        <pt x="526" y="301" on="1"/>
        <pt x="526" y="700" on="1"/>
      </contour>
      <contour>
        <pt x="230" y="860" on="1"/>
        <pt x="253" y="880" on="1"/>
        <pt x="370" y="740" on="1"/>
        <pt x="347" y="721" on="1"/>
      </contour>
    </TTGlyph>
    <TTGlyph name="Uhungarumlaut" xMin="90" yMin="-10" xMax="556" yMax="880">
      <contour>
        <pt x="556" y="700" on="1"/>
        <pt x="556" y="301" on="1"/>
        <pt x="556" y="141" on="0"/>
        <pt x="446" y="-10" on="0"/>
        <pt x="200" y="-10" on="0"/>
        <pt x="90" y="141" on="0"/>
        <pt x="90" y="301" on="1"/>
        <pt x="90" y="700" on="1"/>
        <pt x="120" y="700" on="1"/>
        <pt x="120" y="301" on="1"/>
        <pt x="120" y="218" on="0"/>
        <pt x="148" y="105" on="0"/>
        <pt x="204" y="45" on="0"/>
        <pt x="274" y="20" on="0"/>
        <pt x="372" y="20" on="0"/>
        <pt x="442" y="45" on="0"/>
        <pt x="498" y="105" on="0"/>
        <pt x="526" y="218" on="0"/>
        <pt x="526" y="301" on="1"/>
        <pt x="526" y="700" on="1"/>
      </contour>
      <contour>
        <pt x="360" y="860" on="1"/>
        <pt x="243" y="721" on="1"/>
        <pt x="220" y="740" on="1"/>
        <pt x="337" y="880" on="1"/>
      </contour>
      <contour>
        <pt x="480" y="860" on="1"/>
        <pt x="363" y="721" on="1"/>
        <pt x="340" y="740" on="1"/>
        <pt x="457" y="880" on="1"/>
      </contour>
    </TTGlyph>
    <TTGlyph name="Umacron" xMin="90" yMin="-10" xMax="556" yMax="800">
      <contour>
        <pt x="556" y="700" on="1"/>
        <pt x="556" y="301" on="1"/>
        <pt x="556" y="141" on="0"/>
        <pt x="446" y="-10" on="0"/>
        <pt x="200" y="-10" on="0"/>
        <pt x="90" y="141" on="0"/>
        <pt x="90" y="301" on="1"/>
        <pt x="90" y="700" on="1"/>
        <pt x="120" y="700" on="1"/>
        <pt x="120" y="301" on="1"/>
        <pt x="120" y="218" on="0"/>
        <pt x="148" y="105" on="0"/>
        <pt x="204" y="45" on="0"/>
        <pt x="274" y="20" on="0"/>
        <pt x="372" y="20" on="0"/>
        <pt x="442" y="45" on="0"/>
        <pt x="498" y="105" on="0"/>
        <pt x="526" y="218" on="0"/>
        <pt x="526" y="301" on="1"/>
        <pt x="526" y="700" on="1"/>
      </contour>
      <contour>
        <pt x="213" y="770" on="1"/>
        <pt x="213" y="800" on="1"/>
        <pt x="433" y="800" on="1"/>
        <pt x="433" y="770" on="1"/>
      </contour>
    </TTGlyph>
    <TTGlyph name="Uogonek" xMin="90" yMin="-196" xMax="555" yMax="701">
      <contour>
        <pt x="173" y="700" on="1"/>
        <pt x="555" y="701" on="1"/>
        <pt x="555" y="302" on="1"/>
        <pt x="555" y="170" on="0"/>
        <pt x="482" y="22" on="0"/>
        <pt x="402" y="0" on="1"/>
        <pt x="361" y="-26" on="0"/>
        <pt x="361" y="-76" on="1"/>
        <pt x="361" y="-114" on="0"/>
        <pt x="414" y="-166" on="0"/>
        <pt x="451" y="-166" on="1"/>
        <pt x="451" y="-196" on="1"/>
        <pt x="402" y="-196" on="0"/>
        <pt x="331" y="-126" on="0"/>
        <pt x="331" y="-76" on="1"/>
        <pt x="331" y="-40" on="0"/>
        <pt x="352" y="-9" on="1"/>
        <pt x="343" y="-10" on="0"/>
        <pt x="323" y="-10" on="1"/>
        <pt x="200" y="-10" on="0"/>
        <pt x="90" y="141" on="0"/>
        <pt x="90" y="301" on="1"/>
        <pt x="90" y="700" on="1"/>
        <pt x="120" y="700" on="1"/>
        <pt x="120" y="301" on="1"/>
        <pt x="120" y="218" on="0"/>
        <pt x="148" y="105" on="0"/>
        <pt x="204" y="45" on="0"/>
        <pt x="274" y="20" on="0"/>
        <pt x="372" y="20" on="0"/>
        <pt x="442" y="45" on="0"/>
        <pt x="498" y="105" on="0"/>
        <pt x="526" y="218" on="0"/>
        <pt x="526" y="301" on="1"/>
        <pt x="526" y="670" on="1"/>
        <pt x="173" y="670" on="1"/>
      </contour>
    </TTGlyph>
    <TTGlyph name="Uring" xMin="90" yMin="-10" xMax="556" yMax="863">
      <contour>
        <pt x="556" y="700" on="1"/>
        <pt x="556" y="301" on="1"/>
        <pt x="556" y="141" on="0"/>
        <pt x="446" y="-10" on="0"/>
        <pt x="200" y="-10" on="0"/>
        <pt x="90" y="141" on="0"/>
        <pt x="90" y="301" on="1"/>
        <pt x="90" y="700" on="1"/>
        <pt x="120" y="700" on="1"/>
        <pt x="120" y="301" on="1"/>
        <pt x="120" y="218" on="0"/>
        <pt x="148" y="105" on="0"/>
        <pt x="204" y="45" on="0"/>
        <pt x="274" y="20" on="0"/>
        <pt x="372" y="20" on="0"/>
        <pt x="442" y="45" on="0"/>
        <pt x="498" y="105" on="0"/>
        <pt x="526" y="218" on="0"/>
        <pt x="526" y="301" on="1"/>
        <pt x="526" y="700" on="1"/>
      </contour>
      <contour>
        <pt x="323" y="838" on="1"/>
        <pt x="304" y="838" on="0"/>
        <pt x="278" y="811" on="0"/>
        <pt x="278" y="793" on="1"/>
        <pt x="278" y="774" on="0"/>
        <pt x="305" y="748" on="0"/>
        <pt x="323" y="748" on="1"/>
        <pt x="342" y="748" on="0"/>
        <pt x="368" y="775" on="0"/>
        <pt x="368" y="793" on="1"/>
        <pt x="368" y="812" on="0"/>
        <pt x="341" y="838" on="0"/>
      </contour>
      <contour>
        <pt x="323" y="863" on="1"/>
        <pt x="351" y="863" on="0"/>
        <pt x="393" y="823" on="0"/>
        <pt x="393" y="793" on="1"/>
        <pt x="393" y="765" on="0"/>
        <pt x="353" y="723" on="0"/>
        <pt x="323" y="723" on="1"/>
        <pt x="295" y="723" on="0"/>
        <pt x="253" y="763" on="0"/>
        <pt x="253" y="793" on="1"/>
        <pt x="253" y="821" on="0"/>
        <pt x="293" y="863" on="0"/>
      </contour>
    </TTGlyph>
    <TTGlyph name="Utilde" xMin="90" yMin="-10" xMax="556" yMax="800">
      <contour>
        <pt x="556" y="700" on="1"/>
        <pt x="556" y="301" on="1"/>
        <pt x="556" y="141" on="0"/>
        <pt x="446" y="-10" on="0"/>
        <pt x="200" y="-10" on="0"/>
        <pt x="90" y="141" on="0"/>
        <pt x="90" y="301" on="1"/>
        <pt x="90" y="700" on="1"/>
        <pt x="120" y="700" on="1"/>
        <pt x="120" y="301" on="1"/>
        <pt x="120" y="218" on="0"/>
        <pt x="148" y="105" on="0"/>
        <pt x="204" y="45" on="0"/>
        <pt x="274" y="20" on="0"/>
        <pt x="372" y="20" on="0"/>
        <pt x="442" y="45" on="0"/>
        <pt x="498" y="105" on="0"/>
        <pt x="526" y="218" on="0"/>
        <pt x="526" y="301" on="1"/>
        <pt x="526" y="700" on="1"/>
      </contour>
      <contour>
        <pt x="372" y="722" on="1"/>
        <pt x="344" y="722" on="0"/>
        <pt x="294" y="770" on="0"/>
        <pt x="274" y="770" on="1"/>
        <pt x="258" y="770" on="0"/>
        <pt x="234" y="744" on="0"/>
        <pt x="234" y="722" on="1"/>
        <pt x="204" y="722" on="1"/>
        <pt x="204" y="757" on="0"/>
        <pt x="247" y="800" on="0"/>
        <pt x="274" y="800" on="1"/>
        <pt x="302" y="800" on="0"/>
        <pt x="352" y="752" on="0"/>
        <pt x="372" y="752" on="1"/>
        <pt x="388" y="752" on="0"/>
        <pt x="412" y="778" on="0"/>
        <pt x="412" y="800" on="1"/>
        <pt x="442" y="800" on="1"/>
        <pt x="442" y="765" on="0"/>
        <pt x="399" y="722" on="0"/>
      </contour>
    </TTGlyph>
    <TTGlyph name="V" xMin="17" yMin="-1" xMax="527" yMax="700">
      <contour>
        <pt x="117" y="700" on="1"/>
        <pt x="527" y="700" on="1"/>
        <pt x="272" y="-1" on="1"/>
        <pt x="17" y="700" on="1"/>
        <pt x="49" y="700" on="1"/>
        <pt x="272" y="87" on="1"/>
        <pt x="484" y="670" on="1"/>
        <pt x="117" y="670" on="1"/>
      </contour>
    </TTGlyph>
    <TTGlyph name="V.ss01" xMin="17" yMin="-1" xMax="527" yMax="700">
      <contour>
        <pt x="527" y="700" on="1"/>
        <pt x="272" y="-1" on="1"/>
        <pt x="17" y="700" on="1"/>
        <pt x="49" y="700" on="1"/>
        <pt x="272" y="87" on="1"/>
        <pt x="495" y="700" on="1"/>
      </contour>
    </TTGlyph>
    <TTGlyph name="W" xMin="17" yMin="-1" xMax="786" yMax="700">
      <contour>
        <pt x="117" y="670" on="1"/>
        <pt x="117" y="700" on="1"/>
        <pt x="786" y="700" on="1"/>
        <pt x="531" y="-1" on="1"/>
        <pt x="401" y="355" on="1"/>
        <pt x="272" y="-1" on="1"/>
        <pt x="17" y="700" on="1"/>
        <pt x="49" y="700" on="1"/>
        <pt x="272" y="87" on="1"/>
        <pt x="401" y="443" on="1"/>
        <pt x="531" y="87" on="1"/>
        <pt x="743" y="670" on="1"/>
      </contour>
    </TTGlyph>
    <TTGlyph name="W.ss01" xMin="17" yMin="-1" xMax="786" yMax="700">
      <contour>
        <pt x="786" y="700" on="1"/>
        <pt x="531" y="-1" on="1"/>
        <pt x="401" y="355" on="1"/>
        <pt x="272" y="-1" on="1"/>
        <pt x="17" y="700" on="1"/>
        <pt x="49" y="700" on="1"/>
        <pt x="272" y="87" on="1"/>
        <pt x="401" y="443" on="1"/>
        <pt x="531" y="87" on="1"/>
        <pt x="754" y="700" on="1"/>
      </contour>
    </TTGlyph>
    <TTGlyph name="Wcircumflex" xMin="17" yMin="-1" xMax="786" yMax="864">
      <contour>
        <pt x="786" y="700" on="1"/>
        <pt x="531" y="-1" on="1"/>
        <pt x="401" y="355" on="1"/>
        <pt x="272" y="-1" on="1"/>
        <pt x="17" y="700" on="1"/>
        <pt x="49" y="700" on="1"/>
        <pt x="272" y="87" on="1"/>
        <pt x="401" y="443" on="1"/>
        <pt x="531" y="87" on="1"/>
        <pt x="754" y="700" on="1"/>
      </contour>
      <contour>
        <pt x="401" y="864" on="1"/>
        <pt x="518" y="724" on="1"/>
        <pt x="495" y="705" on="1"/>
        <pt x="401" y="817" on="1"/>
        <pt x="307" y="705" on="1"/>
        <pt x="284" y="724" on="1"/>
      </contour>
    </TTGlyph>
    <TTGlyph name="X" xMin="29" yMin="0" xMax="455" yMax="700">
      <contour>
        <pt x="259" y="369" on="1"/>
        <pt x="455" y="0" on="1"/>
        <pt x="421" y="0" on="1"/>
        <pt x="242" y="337" on="1"/>
        <pt x="63" y="0" on="1"/>
        <pt x="29" y="0" on="1"/>
        <pt x="225" y="369" on="1"/>
        <pt x="49" y="700" on="1"/>
        <pt x="83" y="700" on="1"/>
        <pt x="242" y="401" on="1"/>
        <pt x="401" y="700" on="1"/>
        <pt x="435" y="700" on="1"/>
      </contour>
    </TTGlyph>
    <TTGlyph name="Y" xMin="8" yMin="0" xMax="538" yMax="700">
      <contour>
        <pt x="133" y="700" on="1"/>
        <pt x="538" y="700" on="1"/>
        <pt x="288" y="300" on="1"/>
        <pt x="288" y="0" on="1"/>
        <pt x="258" y="0" on="1"/>
        <pt x="258" y="300" on="1"/>
        <pt x="8" y="700" on="1"/>
        <pt x="43" y="700" on="1"/>
        <pt x="273" y="333" on="1"/>
        <pt x="484" y="670" on="1"/>
        <pt x="133" y="670" on="1"/>
      </contour>
    </TTGlyph>
    <TTGlyph name="Y.ss01" xMin="8" yMin="0" xMax="538" yMax="700">
      <contour>
        <pt x="538" y="700" on="1"/>
        <pt x="288" y="300" on="1"/>
        <pt x="288" y="0" on="1"/>
        <pt x="258" y="0" on="1"/>
        <pt x="258" y="300" on="1"/>
        <pt x="8" y="700" on="1"/>
        <pt x="43" y="700" on="1"/>
        <pt x="273" y="333" on="1"/>
        <pt x="503" y="700" on="1"/>
      </contour>
    </TTGlyph>
    <TTGlyph name="Yacute" xMin="8" yMin="0" xMax="538" yMax="880">
      <contour>
        <pt x="538" y="700" on="1"/>
        <pt x="288" y="300" on="1"/>
        <pt x="288" y="0" on="1"/>
        <pt x="258" y="0" on="1"/>
        <pt x="258" y="300" on="1"/>
        <pt x="8" y="700" on="1"/>
        <pt x="43" y="700" on="1"/>
        <pt x="273" y="333" on="1"/>
        <pt x="503" y="700" on="1"/>
      </contour>
      <contour>
        <pt x="370" y="860" on="1"/>
        <pt x="253" y="721" on="1"/>
        <pt x="230" y="740" on="1"/>
        <pt x="347" y="880" on="1"/>
      </contour>
    </TTGlyph>
    <TTGlyph name="Ycircumflex" xMin="8" yMin="0" xMax="538" yMax="864">
      <contour>
        <pt x="538" y="700" on="1"/>
        <pt x="288" y="300" on="1"/>
        <pt x="288" y="0" on="1"/>
        <pt x="258" y="0" on="1"/>
        <pt x="258" y="300" on="1"/>
        <pt x="8" y="700" on="1"/>
        <pt x="43" y="700" on="1"/>
        <pt x="273" y="333" on="1"/>
        <pt x="503" y="700" on="1"/>
      </contour>
      <contour>
        <pt x="273" y="864" on="1"/>
        <pt x="390" y="724" on="1"/>
        <pt x="367" y="705" on="1"/>
        <pt x="273" y="817" on="1"/>
        <pt x="179" y="705" on="1"/>
        <pt x="156" y="724" on="1"/>
      </contour>
    </TTGlyph>
    <TTGlyph name="Ydieresis" xMin="8" yMin="0" xMax="538" yMax="812">
      <contour>
        <pt x="538" y="700" on="1"/>
        <pt x="288" y="300" on="1"/>
        <pt x="288" y="0" on="1"/>
        <pt x="258" y="0" on="1"/>
        <pt x="258" y="300" on="1"/>
        <pt x="8" y="700" on="1"/>
        <pt x="43" y="700" on="1"/>
        <pt x="273" y="333" on="1"/>
        <pt x="503" y="700" on="1"/>
      </contour>
      <contour>
        <pt x="329" y="812" on="1"/>
        <pt x="395" y="812" on="1"/>
        <pt x="395" y="754" on="1"/>
        <pt x="329" y="754" on="1"/>
      </contour>
      <contour>
        <pt x="151" y="812" on="1"/>
        <pt x="217" y="812" on="1"/>
        <pt x="217" y="754" on="1"/>
        <pt x="151" y="754" on="1"/>
      </contour>
    </TTGlyph>
    <TTGlyph name="Z" xMin="31" yMin="0" xMax="439" yMax="700">
      <contour>
        <pt x="439" y="0" on="1"/>
        <pt x="31" y="0" on="1"/>
        <pt x="387" y="670" on="1"/>
        <pt x="57" y="670" on="1"/>
        <pt x="57" y="700" on="1"/>
        <pt x="437" y="700" on="1"/>
        <pt x="81" y="30" on="1"/>
        <pt x="439" y="30" on="1"/>
      </contour>
    </TTGlyph>
    <TTGlyph name="Zacute" xMin="31" yMin="0" xMax="439" yMax="880">
      <contour>
        <pt x="374" y="860" on="1"/>
        <pt x="257" y="721" on="1"/>
        <pt x="234" y="740" on="1"/>
        <pt x="351" y="880" on="1"/>
      </contour>
      <contour>
        <pt x="439" y="0" on="1"/>
        <pt x="31" y="0" on="1"/>
        <pt x="387" y="670" on="1"/>
        <pt x="57" y="670" on="1"/>
        <pt x="57" y="700" on="1"/>
        <pt x="437" y="700" on="1"/>
        <pt x="81" y="30" on="1"/>
        <pt x="439" y="30" on="1"/>
      </contour>
    </TTGlyph>
    <TTGlyph name="Zcaron" xMin="31" yMin="0" xMax="439" yMax="870">
      <contour>
        <pt x="241" y="711" on="1"/>
        <pt x="124" y="851" on="1"/>
        <pt x="147" y="870" on="1"/>
        <pt x="241" y="758" on="1"/>
        <pt x="335" y="870" on="1"/>
        <pt x="358" y="851" on="1"/>
      </contour>
      <contour>
        <pt x="439" y="0" on="1"/>
        <pt x="31" y="0" on="1"/>
        <pt x="387" y="670" on="1"/>
        <pt x="57" y="670" on="1"/>
        <pt x="57" y="700" on="1"/>
        <pt x="437" y="700" on="1"/>
        <pt x="81" y="30" on="1"/>
        <pt x="439" y="30" on="1"/>
      </contour>
    </TTGlyph>
    <TTGlyph name="Zdotaccent" xMin="31" yMin="0" xMax="439" yMax="812">
      <contour>
        <pt x="213" y="812" on="1"/>
        <pt x="279" y="812" on="1"/>
        <pt x="279" y="754" on="1"/>
        <pt x="213" y="754" on="1"/>
      </contour>
      <contour>
        <pt x="439" y="0" on="1"/>
        <pt x="31" y="0" on="1"/>
        <pt x="387" y="670" on="1"/>
        <pt x="57" y="670" on="1"/>
        <pt x="57" y="700" on="1"/>
        <pt x="437" y="700" on="1"/>
        <pt x="81" y="30" on="1"/>
        <pt x="439" y="30" on="1"/>
      </contour>
    </TTGlyph>
    <TTGlyph name="a" xMin="19" yMin="0" xMax="519" yMax="590">
      <contour>
        <pt x="148" y="30" on="1"/>
        <pt x="474" y="30" on="1"/>
        <pt x="269" y="513" on="1"/>
        <pt x="51" y="0" on="1"/>
        <pt x="19" y="0" on="1"/>
        <pt x="269" y="590" on="1"/>
        <pt x="519" y="0" on="1"/>
        <pt x="148" y="0" on="1"/>
      </contour>
    </TTGlyph>
    <TTGlyph name="aacute" xMin="19" yMin="0" xMax="519" yMax="784">
      <contour>
        <pt x="362" y="764" on="1"/>
        <pt x="245" y="625" on="1"/>
        <pt x="222" y="644" on="1"/>
        <pt x="339" y="784" on="1"/>
      </contour>
      <contour>
        <pt x="148" y="30" on="1"/>
        <pt x="474" y="30" on="1"/>
        <pt x="269" y="513" on="1"/>
        <pt x="51" y="0" on="1"/>
        <pt x="19" y="0" on="1"/>
        <pt x="269" y="590" on="1"/>
        <pt x="519" y="0" on="1"/>
        <pt x="148" y="0" on="1"/>
      </contour>
    </TTGlyph>
    <TTGlyph name="abreve" xMin="19" yMin="0" xMax="519" yMax="719">
      <contour>
        <pt x="369" y="719" on="1"/>
        <pt x="369" y="676" on="0"/>
        <pt x="309" y="619" on="0"/>
        <pt x="269" y="619" on="1"/>
        <pt x="226" y="619" on="0"/>
        <pt x="169" y="679" on="0"/>
        <pt x="169" y="719" on="1"/>
        <pt x="199" y="719" on="1"/>
        <pt x="199" y="689" on="0"/>
        <pt x="241" y="649" on="0"/>
        <pt x="269" y="649" on="1"/>
        <pt x="299" y="649" on="0"/>
        <pt x="339" y="691" on="0"/>
        <pt x="339" y="719" on="1"/>
      </contour>
      <contour>
        <pt x="148" y="30" on="1"/>
        <pt x="474" y="30" on="1"/>
        <pt x="269" y="513" on="1"/>
        <pt x="51" y="0" on="1"/>
        <pt x="19" y="0" on="1"/>
        <pt x="269" y="590" on="1"/>
        <pt x="519" y="0" on="1"/>
        <pt x="148" y="0" on="1"/>
      </contour>
    </TTGlyph>
    <TTGlyph name="acircumflex" xMin="19" yMin="0" xMax="519" yMax="784">
      <contour>
        <pt x="269" y="784" on="1"/>
        <pt x="386" y="644" on="1"/>
        <pt x="363" y="625" on="1"/>
        <pt x="269" y="737" on="1"/>
        <pt x="175" y="625" on="1"/>
        <pt x="152" y="644" on="1"/>
      </contour>
      <contour>
        <pt x="148" y="30" on="1"/>
        <pt x="474" y="30" on="1"/>
        <pt x="269" y="513" on="1"/>
        <pt x="51" y="0" on="1"/>
        <pt x="19" y="0" on="1"/>
        <pt x="269" y="590" on="1"/>
        <pt x="519" y="0" on="1"/>
        <pt x="148" y="0" on="1"/>
      </contour>
    </TTGlyph>
    <TTGlyph name="acute" xMin="45" yMin="625" xMax="185" yMax="784">
      <contour>
        <pt x="185" y="764" on="1"/>
        <pt x="68" y="625" on="1"/>
        <pt x="45" y="644" on="1"/>
        <pt x="162" y="784" on="1"/>
      </contour>
    </TTGlyph>
    <TTGlyph name="adieresis" xMin="19" yMin="0" xMax="519" yMax="712">
      <contour>
        <pt x="325" y="712" on="1"/>
        <pt x="391" y="712" on="1"/>
        <pt x="391" y="654" on="1"/>
        <pt x="325" y="654" on="1"/>
      </contour>
      <contour>
        <pt x="147" y="712" on="1"/>
        <pt x="213" y="712" on="1"/>
        <pt x="213" y="654" on="1"/>
        <pt x="147" y="654" on="1"/>
      </contour>
      <contour>
        <pt x="148" y="30" on="1"/>
        <pt x="474" y="30" on="1"/>
        <pt x="269" y="513" on="1"/>
        <pt x="51" y="0" on="1"/>
        <pt x="19" y="0" on="1"/>
        <pt x="269" y="590" on="1"/>
        <pt x="519" y="0" on="1"/>
        <pt x="148" y="0" on="1"/>
      </contour>
    </TTGlyph>
    <TTGlyph name="ae" xMin="10" yMin="-10" xMax="710" yMax="590">
      <contour>
        <pt x="693" y="59" on="1"/>
        <pt x="638" y="-10" on="0"/>
        <pt x="388" y="-10" on="0"/>
        <pt x="280" y="132" on="0"/>
        <pt x="280" y="290" on="1"/>
        <pt x="280" y="509" on="1"/>
        <pt x="57" y="30" on="1"/>
        <pt x="238" y="30" on="1"/>
        <pt x="238" y="0" on="1"/>
        <pt x="10" y="0" on="1"/>
        <pt x="280" y="580" on="1"/>
        <pt x="310" y="580" on="1"/>
        <pt x="310" y="478" on="1"/>
        <pt x="359" y="590" on="0"/>
        <pt x="513" y="590" on="1"/>
        <pt x="658" y="590" on="0"/>
        <pt x="710" y="495" on="1"/>
        <pt x="465" y="290" on="1"/>
        <pt x="418" y="290" on="1"/>
        <pt x="671" y="501" on="1"/>
        <pt x="627" y="560" on="0"/>
        <pt x="513" y="560" on="1"/>
        <pt x="463" y="560" on="0"/>
        <pt x="395" y="539" on="0"/>
        <pt x="338" y="482" on="0"/>
        <pt x="310" y="373" on="0"/>
        <pt x="310" y="207" on="0"/>
        <pt x="338" y="98" on="0"/>
        <pt x="395" y="41" on="0"/>
        <pt x="463" y="20" on="0"/>
        <pt x="513" y="20" on="1"/>
        <pt x="627" y="20" on="0"/>
        <pt x="671" y="79" on="1"/>
      </contour>
    </TTGlyph>
    <TTGlyph name="afii61352" xMin="104" yMin="0" xMax="889" yMax="700">
      <contour>
        <pt x="601" y="30" on="1"/>
        <pt x="889" y="30" on="1"/>
        <pt x="889" y="0" on="1"/>
        <pt x="601" y="0" on="1"/>
      </contour>
      <contour>
        <pt x="794" y="418" on="0"/>
        <pt x="696" y="418" on="0"/>
        <pt x="651" y="367" on="0"/>
        <pt x="651" y="290" on="1"/>
        <pt x="651" y="212" on="0"/>
        <pt x="696" y="162" on="0"/>
        <pt x="794" y="162" on="0"/>
        <pt x="839" y="213" on="0"/>
        <pt x="839" y="290" on="1"/>
        <pt x="839" y="368" on="0"/>
      </contour>
      <contour>
        <pt x="745" y="132" on="1"/>
        <pt x="679" y="132" on="0"/>
        <pt x="621" y="209" on="0"/>
        <pt x="621" y="290" on="1"/>
        <pt x="621" y="372" on="0"/>
        <pt x="680" y="448" on="0"/>
        <pt x="745" y="448" on="1"/>
        <pt x="811" y="448" on="0"/>
        <pt x="869" y="371" on="0"/>
        <pt x="869" y="290" on="1"/>
        <pt x="869" y="208" on="0"/>
        <pt x="810" y="132" on="0"/>
      </contour>
      <contour>
        <pt x="509" y="0" on="1"/>
        <pt x="134" y="649" on="1"/>
        <pt x="134" y="0" on="1"/>
        <pt x="104" y="0" on="1"/>
        <pt x="104" y="700" on="1"/>
        <pt x="139" y="700" on="1"/>
        <pt x="513" y="53" on="1"/>
        <pt x="513" y="700" on="1"/>
        <pt x="543" y="700" on="1"/>
        <pt x="543" y="0" on="1"/>
      </contour>
    </TTGlyph>
    <TTGlyph name="agrave" xMin="19" yMin="0" xMax="519" yMax="784">
      <contour>
        <pt x="176" y="764" on="1"/>
        <pt x="199" y="784" on="1"/>
        <pt x="316" y="644" on="1"/>
        <pt x="293" y="625" on="1"/>
      </contour>
      <contour>
        <pt x="148" y="30" on="1"/>
        <pt x="474" y="30" on="1"/>
        <pt x="269" y="513" on="1"/>
        <pt x="51" y="0" on="1"/>
        <pt x="19" y="0" on="1"/>
        <pt x="269" y="590" on="1"/>
        <pt x="519" y="0" on="1"/>
        <pt x="148" y="0" on="1"/>
      </contour>
    </TTGlyph>
    <TTGlyph name="amacron" xMin="19" yMin="0" xMax="519" yMax="700">
      <contour>
        <pt x="164" y="670" on="1"/>
        <pt x="164" y="700" on="1"/>
        <pt x="384" y="700" on="1"/>
        <pt x="384" y="670" on="1"/>
      </contour>
      <contour>
        <pt x="148" y="30" on="1"/>
        <pt x="474" y="30" on="1"/>
        <pt x="269" y="513" on="1"/>
        <pt x="51" y="0" on="1"/>
        <pt x="19" y="0" on="1"/>
        <pt x="269" y="590" on="1"/>
        <pt x="519" y="0" on="1"/>
        <pt x="148" y="0" on="1"/>
      </contour>
    </TTGlyph>
    <TTGlyph name="ampersand" xMin="52" yMin="-5" xMax="524" yMax="700">
      <contour>
        <pt x="161" y="670" on="1"/>
        <pt x="444" y="137" on="1"/>
        <pt x="494" y="220" on="0"/>
        <pt x="494" y="334" on="1"/>
        <pt x="524" y="334" on="1"/>
        <pt x="524" y="194" on="0"/>
        <pt x="462" y="103" on="1"/>
        <pt x="517" y="0" on="1"/>
        <pt x="483" y="0" on="1"/>
        <pt x="442" y="78" on="1"/>
        <pt x="368" y="-5" on="0"/>
        <pt x="252" y="-5" on="1"/>
        <pt x="172" y="-5" on="0"/>
        <pt x="52" y="118" on="0"/>
        <pt x="52" y="224" on="1"/>
        <pt x="52" y="307" on="0"/>
        <pt x="158" y="417" on="0"/>
        <pt x="254" y="430" on="1"/>
        <pt x="111" y="700" on="1"/>
        <pt x="494" y="700" on="1"/>
        <pt x="494" y="670" on="1"/>
      </contour>
      <contour>
        <pt x="425" y="109" on="1"/>
        <pt x="270" y="401" on="1"/>
        <pt x="186" y="390" on="0"/>
        <pt x="82" y="292" on="0"/>
        <pt x="82" y="224" on="1"/>
        <pt x="82" y="139" on="0"/>
        <pt x="186" y="25" on="0"/>
        <pt x="252" y="25" on="1"/>
        <pt x="358" y="25" on="0"/>
      </contour>
    </TTGlyph>
    <TTGlyph name="aogonek" xMin="19" yMin="-196" xMax="519" yMax="590">
      <contour>
        <pt x="148" y="30" on="1"/>
        <pt x="474" y="30" on="1"/>
        <pt x="269" y="513" on="1"/>
        <pt x="51" y="0" on="1"/>
        <pt x="19" y="0" on="1"/>
        <pt x="269" y="590" on="1"/>
        <pt x="519" y="0" on="1"/>
        <pt x="446" y="0" on="1"/>
        <pt x="405" y="-26" on="0"/>
        <pt x="405" y="-76" on="1"/>
        <pt x="405" y="-114" on="0"/>
        <pt x="458" y="-166" on="0"/>
        <pt x="495" y="-166" on="1"/>
        <pt x="495" y="-196" on="1"/>
        <pt x="446" y="-196" on="0"/>
        <pt x="375" y="-126" on="0"/>
        <pt x="375" y="-76" on="1"/>
        <pt x="375" y="-33" on="0"/>
        <pt x="402" y="0" on="1"/>
        <pt x="148" y="0" on="1"/>
      </contour>
    </TTGlyph>
    <TTGlyph name="aring" xMin="19" yMin="0" xMax="519" yMax="771">
      <contour>
        <pt x="269" y="746" on="1"/>
        <pt x="250" y="746" on="0"/>
        <pt x="224" y="719" on="0"/>
        <pt x="224" y="701" on="1"/>
        <pt x="224" y="682" on="0"/>
        <pt x="251" y="656" on="0"/>
        <pt x="269" y="656" on="1"/>
        <pt x="288" y="656" on="0"/>
        <pt x="314" y="683" on="0"/>
        <pt x="314" y="701" on="1"/>
        <pt x="314" y="720" on="0"/>
        <pt x="287" y="746" on="0"/>
      </contour>
      <contour>
        <pt x="269" y="771" on="1"/>
        <pt x="297" y="771" on="0"/>
        <pt x="339" y="731" on="0"/>
        <pt x="339" y="701" on="1"/>
        <pt x="339" y="673" on="0"/>
        <pt x="299" y="631" on="0"/>
        <pt x="269" y="631" on="1"/>
        <pt x="241" y="631" on="0"/>
        <pt x="199" y="671" on="0"/>
        <pt x="199" y="701" on="1"/>
        <pt x="199" y="729" on="0"/>
        <pt x="239" y="771" on="0"/>
      </contour>
      <contour>
        <pt x="148" y="30" on="1"/>
        <pt x="474" y="30" on="1"/>
        <pt x="269" y="513" on="1"/>
        <pt x="51" y="0" on="1"/>
        <pt x="19" y="0" on="1"/>
        <pt x="269" y="590" on="1"/>
        <pt x="519" y="0" on="1"/>
        <pt x="148" y="0" on="1"/>
      </contour>
    </TTGlyph>
    <TTGlyph name="asciicircum" xMin="45" yMin="625" xMax="279" yMax="784">
      <contour>
        <pt x="162" y="784" on="1"/>
        <pt x="279" y="644" on="1"/>
        <pt x="256" y="625" on="1"/>
        <pt x="162" y="737" on="1"/>
        <pt x="68" y="625" on="1"/>
        <pt x="45" y="644" on="1"/>
      </contour>
    </TTGlyph>
    <TTGlyph name="asciitilde" xMin="68" yMin="622" xMax="306" yMax="700">
      <contour>
        <pt x="236" y="622" on="1"/>
        <pt x="208" y="622" on="0"/>
        <pt x="158" y="670" on="0"/>
        <pt x="138" y="670" on="1"/>
        <pt x="122" y="670" on="0"/>
        <pt x="98" y="644" on="0"/>
        <pt x="98" y="622" on="1"/>
        <pt x="68" y="622" on="1"/>
        <pt x="68" y="657" on="0"/>
        <pt x="111" y="700" on="0"/>
        <pt x="138" y="700" on="1"/>
        <pt x="166" y="700" on="0"/>
        <pt x="216" y="652" on="0"/>
        <pt x="236" y="652" on="1"/>
        <pt x="252" y="652" on="0"/>
        <pt x="276" y="678" on="0"/>
        <pt x="276" y="700" on="1"/>
        <pt x="306" y="700" on="1"/>
        <pt x="306" y="665" on="0"/>
        <pt x="263" y="622" on="0"/>
      </contour>
    </TTGlyph>
    <TTGlyph name="asterisk" xMin="60" yMin="400" xMax="376" yMax="700">
      <contour>
        <pt x="132" y="400" on="1"/>
        <pt x="113" y="414" on="1"/>
        <pt x="199" y="532" on="1"/>
        <pt x="60" y="577" on="1"/>
        <pt x="68" y="600" on="1"/>
        <pt x="206" y="555" on="1"/>
        <pt x="206" y="700" on="1"/>
        <pt x="230" y="700" on="1"/>
        <pt x="230" y="555" on="1"/>
        <pt x="368" y="600" on="1"/>
        <pt x="376" y="577" on="1"/>
        <pt x="237" y="532" on="1"/>
        <pt x="323" y="414" on="1"/>
        <pt x="304" y="400" on="1"/>
        <pt x="218" y="518" on="1"/>
      </contour>
    </TTGlyph>
    <TTGlyph name="at" xMin="68" yMin="-10" xMax="578" yMax="672">
      <contour>
        <pt x="452" y="244" on="1"/>
        <pt x="318" y="244" on="0"/>
        <pt x="318" y="342" on="1"/>
        <pt x="318" y="387" on="0"/>
        <pt x="375" y="430" on="0"/>
        <pt x="414" y="430" on="1"/>
        <pt x="457" y="430" on="0"/>
        <pt x="496" y="401" on="1"/>
        <pt x="496" y="492" on="0"/>
        <pt x="392" y="642" on="0"/>
        <pt x="318" y="642" on="1"/>
        <pt x="224" y="642" on="0"/>
        <pt x="98" y="481" on="0"/>
        <pt x="98" y="346" on="1"/>
        <pt x="98" y="193" on="0"/>
        <pt x="219" y="20" on="0"/>
        <pt x="330" y="20" on="1"/>
        <pt x="395" y="20" on="0"/>
        <pt x="512" y="84" on="0"/>
        <pt x="553" y="142" on="1"/>
        <pt x="578" y="125" on="1"/>
        <pt x="533" y="61" on="0"/>
        <pt x="402" y="-10" on="0"/>
        <pt x="330" y="-10" on="1"/>
        <pt x="204" y="-10" on="0"/>
        <pt x="68" y="182" on="0"/>
        <pt x="68" y="346" on="1"/>
        <pt x="68" y="492" on="0"/>
        <pt x="210" y="672" on="0"/>
        <pt x="318" y="672" on="1"/>
        <pt x="407" y="672" on="0"/>
        <pt x="526" y="504" on="0"/>
        <pt x="526" y="401" on="1"/>
        <pt x="526" y="341" on="1"/>
        <pt x="478" y="377" on="1"/>
        <pt x="445" y="400" on="0"/>
        <pt x="414" y="400" on="1"/>
        <pt x="348" y="400" on="0"/>
        <pt x="348" y="342" on="1"/>
        <pt x="348" y="274" on="0"/>
        <pt x="452" y="274" on="1"/>
        <pt x="553" y="274" on="1"/>
        <pt x="553" y="244" on="1"/>
      </contour>
    </TTGlyph>
    <TTGlyph name="atilde" xMin="19" yMin="0" xMax="519" yMax="700">
      <contour>
        <pt x="320" y="622" on="1"/>
        <pt x="292" y="622" on="0"/>
        <pt x="242" y="670" on="0"/>
        <pt x="222" y="670" on="1"/>
        <pt x="206" y="670" on="0"/>
        <pt x="182" y="644" on="0"/>
        <pt x="182" y="622" on="1"/>
        <pt x="152" y="622" on="1"/>
        <pt x="152" y="657" on="0"/>
        <pt x="195" y="700" on="0"/>
        <pt x="222" y="700" on="1"/>
        <pt x="250" y="700" on="0"/>
        <pt x="300" y="652" on="0"/>
        <pt x="320" y="652" on="1"/>
        <pt x="336" y="652" on="0"/>
        <pt x="360" y="678" on="0"/>
        <pt x="360" y="700" on="1"/>
        <pt x="390" y="700" on="1"/>
        <pt x="390" y="665" on="0"/>
        <pt x="347" y="622" on="0"/>
      </contour>
      <contour>
        <pt x="148" y="30" on="1"/>
        <pt x="474" y="30" on="1"/>
        <pt x="269" y="513" on="1"/>
        <pt x="51" y="0" on="1"/>
        <pt x="19" y="0" on="1"/>
        <pt x="269" y="590" on="1"/>
        <pt x="519" y="0" on="1"/>
        <pt x="148" y="0" on="1"/>
      </contour>
    </TTGlyph>
    <TTGlyph name="b" xMin="95" yMin="0" xMax="478" yMax="580">
      <contour>
        <pt x="239" y="0" on="1"/>
        <pt x="95" y="0" on="1"/>
        <pt x="95" y="580" on="1"/>
        <pt x="205" y="580" on="1"/>
        <pt x="323" y="580" on="0"/>
        <pt x="444" y="498" on="0"/>
        <pt x="444" y="427" on="1"/>
        <pt x="444" y="342" on="0"/>
        <pt x="369" y="304" on="1"/>
        <pt x="424" y="285" on="0"/>
        <pt x="478" y="210" on="0"/>
        <pt x="478" y="161" on="1"/>
        <pt x="478" y="89" on="0"/>
        <pt x="359" y="0" on="0"/>
      </contour>
      <contour>
        <pt x="239" y="30" on="1"/>
        <pt x="327" y="30" on="0"/>
        <pt x="448" y="94" on="0"/>
        <pt x="448" y="161" on="1"/>
        <pt x="448" y="192" on="0"/>
        <pt x="402" y="265" on="0"/>
        <pt x="354" y="282" on="1"/>
        <pt x="302" y="300" on="1"/>
        <pt x="350" y="325" on="1"/>
        <pt x="375" y="338" on="0"/>
        <pt x="414" y="391" on="0"/>
        <pt x="414" y="427" on="1"/>
        <pt x="414" y="490" on="0"/>
        <pt x="294" y="550" on="0"/>
        <pt x="205" y="550" on="1"/>
        <pt x="125" y="550" on="1"/>
        <pt x="125" y="30" on="1"/>
      </contour>
    </TTGlyph>
    <TTGlyph name="backslash" xMin="38" yMin="-36" xMax="372" yMax="736">
      <contour>
        <pt x="345" y="-36" on="1"/>
        <pt x="38" y="725" on="1"/>
        <pt x="65" y="736" on="1"/>
        <pt x="372" y="-25" on="1"/>
      </contour>
    </TTGlyph>
    <TTGlyph name="bar" xMin="98" yMin="-60" xMax="128" yMax="760">
      <contour>
        <pt x="128" y="-60" on="1"/>
        <pt x="98" y="-60" on="1"/>
        <pt x="98" y="760" on="1"/>
        <pt x="128" y="760" on="1"/>
      </contour>
    </TTGlyph>
    <TTGlyph name="braceleft" xMin="30" yMin="-56" xMax="227" yMax="756">
      <contour>
        <pt x="30" y="354" on="1"/>
        <pt x="114" y="397" on="0"/>
        <pt x="114" y="542" on="1"/>
        <pt x="114" y="705" on="0"/>
        <pt x="215" y="756" on="1"/>
        <pt x="227" y="731" on="1"/>
        <pt x="144" y="689" on="0"/>
        <pt x="144" y="542" on="1"/>
        <pt x="144" y="402" on="0"/>
        <pt x="72" y="350" on="1"/>
        <pt x="144" y="298" on="0"/>
        <pt x="144" y="158" on="1"/>
        <pt x="144" y="11" on="0"/>
        <pt x="227" y="-31" on="1"/>
        <pt x="215" y="-56" on="1"/>
        <pt x="114" y="-5" on="0"/>
        <pt x="114" y="158" on="1"/>
        <pt x="114" y="303" on="0"/>
        <pt x="30" y="346" on="1"/>
      </contour>
    </TTGlyph>
    <TTGlyph name="braceright" xMin="44" yMin="-56" xMax="241" yMax="756">
      <contour>
        <pt x="241" y="346" on="1"/>
        <pt x="157" y="303" on="0"/>
        <pt x="157" y="158" on="1"/>
        <pt x="157" y="-5" on="0"/>
        <pt x="56" y="-56" on="1"/>
        <pt x="44" y="-31" on="1"/>
        <pt x="127" y="11" on="0"/>
        <pt x="127" y="158" on="1"/>
        <pt x="127" y="298" on="0"/>
        <pt x="199" y="350" on="1"/>
        <pt x="127" y="402" on="0"/>
        <pt x="127" y="542" on="1"/>
        <pt x="127" y="689" on="0"/>
        <pt x="44" y="731" on="1"/>
        <pt x="56" y="756" on="1"/>
        <pt x="157" y="705" on="0"/>
        <pt x="157" y="542" on="1"/>
        <pt x="157" y="397" on="0"/>
        <pt x="241" y="354" on="1"/>
      </contour>
    </TTGlyph>
    <TTGlyph name="bracketleft" xMin="100" yMin="0" xMax="208" yMax="700">
      <contour>
        <pt x="208" y="0" on="1"/>
        <pt x="100" y="0" on="1"/>
        <pt x="100" y="700" on="1"/>
        <pt x="208" y="700" on="1"/>
        <pt x="208" y="670" on="1"/>
        <pt x="130" y="670" on="1"/>
        <pt x="130" y="30" on="1"/>
        <pt x="208" y="30" on="1"/>
      </contour>
    </TTGlyph>
    <TTGlyph name="bracketright" xMin="53" yMin="0" xMax="161" yMax="700">
      <contour>
        <pt x="53" y="700" on="1"/>
        <pt x="161" y="700" on="1"/>
        <pt x="161" y="0" on="1"/>
        <pt x="53" y="0" on="1"/>
        <pt x="53" y="30" on="1"/>
        <pt x="131" y="30" on="1"/>
        <pt x="131" y="670" on="1"/>
        <pt x="53" y="670" on="1"/>
      </contour>
    </TTGlyph>
    <TTGlyph name="breve" xMin="50" yMin="571" xMax="250" yMax="671">
      <contour>
        <pt x="250" y="671" on="1"/>
        <pt x="250" y="628" on="0"/>
        <pt x="190" y="571" on="0"/>
        <pt x="150" y="571" on="1"/>
        <pt x="107" y="571" on="0"/>
        <pt x="50" y="631" on="0"/>
        <pt x="50" y="671" on="1"/>
        <pt x="80" y="671" on="1"/>
        <pt x="80" y="641" on="0"/>
        <pt x="122" y="601" on="0"/>
        <pt x="150" y="601" on="1"/>
        <pt x="180" y="601" on="0"/>
        <pt x="220" y="643" on="0"/>
        <pt x="220" y="671" on="1"/>
      </contour>
    </TTGlyph>
    <TTGlyph name="brokenbar" xMin="100" yMin="-60" xMax="130" yMax="760">
      <contour>
        <pt x="100" y="400" on="1"/>
        <pt x="100" y="760" on="1"/>
        <pt x="130" y="760" on="1"/>
        <pt x="130" y="400" on="1"/>
      </contour>
      <contour>
        <pt x="130" y="300" on="1"/>
        <pt x="130" y="-60" on="1"/>
        <pt x="100" y="-60" on="1"/>
        <pt x="100" y="300" on="1"/>
      </contour>
    </TTGlyph>
    <TTGlyph name="bullet" xMin="89" yMin="230" xMax="319" yMax="460">
      <contour>
        <pt x="89" y="460" on="1"/>
        <pt x="319" y="460" on="1"/>
        <pt x="319" y="230" on="1"/>
        <pt x="89" y="230" on="1"/>
      </contour>
      <contour>
        <pt x="289" y="260" on="1"/>
        <pt x="289" y="430" on="1"/>
        <pt x="119" y="430" on="1"/>
        <pt x="119" y="260" on="1"/>
      </contour>
    </TTGlyph>
    <TTGlyph name="c" xMin="70" yMin="-10" xMax="483" yMax="590">
      <contour>
        <pt x="70" y="132" on="0"/>
        <pt x="70" y="448" on="0"/>
        <pt x="178" y="590" on="0"/>
        <pt x="428" y="590" on="0"/>
        <pt x="483" y="521" on="1"/>
        <pt x="461" y="501" on="1"/>
        <pt x="417" y="560" on="0"/>
        <pt x="303" y="560" on="1"/>
        <pt x="253" y="560" on="0"/>
        <pt x="185" y="539" on="0"/>
        <pt x="128" y="482" on="0"/>
        <pt x="100" y="373" on="0"/>
        <pt x="100" y="207" on="0"/>
        <pt x="128" y="98" on="0"/>
        <pt x="185" y="41" on="0"/>
        <pt x="253" y="20" on="0"/>
        <pt x="303" y="20" on="1"/>
        <pt x="417" y="20" on="0"/>
        <pt x="461" y="79" on="1"/>
        <pt x="483" y="59" on="1"/>
        <pt x="428" y="-10" on="0"/>
        <pt x="178" y="-10" on="0"/>
      </contour>
    </TTGlyph>
    <TTGlyph name="cacute" xMin="70" yMin="-10" xMax="483" yMax="784">
      <contour>
        <pt x="390" y="764" on="1"/>
        <pt x="273" y="625" on="1"/>
        <pt x="250" y="644" on="1"/>
        <pt x="367" y="784" on="1"/>
      </contour>
      <contour>
        <pt x="70" y="132" on="0"/>
        <pt x="70" y="448" on="0"/>
        <pt x="178" y="590" on="0"/>
        <pt x="428" y="590" on="0"/>
        <pt x="483" y="521" on="1"/>
        <pt x="461" y="501" on="1"/>
        <pt x="417" y="560" on="0"/>
        <pt x="303" y="560" on="1"/>
        <pt x="253" y="560" on="0"/>
        <pt x="185" y="539" on="0"/>
        <pt x="128" y="482" on="0"/>
        <pt x="100" y="373" on="0"/>
        <pt x="100" y="207" on="0"/>
        <pt x="128" y="98" on="0"/>
        <pt x="185" y="41" on="0"/>
        <pt x="253" y="20" on="0"/>
        <pt x="303" y="20" on="1"/>
        <pt x="417" y="20" on="0"/>
        <pt x="461" y="79" on="1"/>
        <pt x="483" y="59" on="1"/>
        <pt x="428" y="-10" on="0"/>
        <pt x="178" y="-10" on="0"/>
      </contour>
    </TTGlyph>
    <TTGlyph name="caron" xMin="45" yMin="625" xMax="279" yMax="784">
      <contour>
        <pt x="162" y="625" on="1"/>
        <pt x="45" y="765" on="1"/>
        <pt x="68" y="784" on="1"/>
        <pt x="162" y="672" on="1"/>
        <pt x="256" y="784" on="1"/>
        <pt x="279" y="765" on="1"/>
      </contour>
    </TTGlyph>
    <TTGlyph name="ccaron" xMin="70" yMin="-10" xMax="483" yMax="760">
      <contour>
        <pt x="302" y="601" on="1"/>
        <pt x="185" y="741" on="1"/>
        <pt x="208" y="760" on="1"/>
        <pt x="302" y="648" on="1"/>
        <pt x="396" y="760" on="1"/>
        <pt x="419" y="741" on="1"/>
      </contour>
      <contour>
        <pt x="70" y="132" on="0"/>
        <pt x="70" y="448" on="0"/>
        <pt x="178" y="590" on="0"/>
        <pt x="428" y="590" on="0"/>
        <pt x="483" y="521" on="1"/>
        <pt x="461" y="501" on="1"/>
        <pt x="417" y="560" on="0"/>
        <pt x="303" y="560" on="1"/>
        <pt x="253" y="560" on="0"/>
        <pt x="185" y="539" on="0"/>
        <pt x="128" y="482" on="0"/>
        <pt x="100" y="373" on="0"/>
        <pt x="100" y="207" on="0"/>
        <pt x="128" y="98" on="0"/>
        <pt x="185" y="41" on="0"/>
        <pt x="253" y="20" on="0"/>
        <pt x="303" y="20" on="1"/>
        <pt x="417" y="20" on="0"/>
        <pt x="461" y="79" on="1"/>
        <pt x="483" y="59" on="1"/>
        <pt x="428" y="-10" on="0"/>
        <pt x="178" y="-10" on="0"/>
      </contour>
    </TTGlyph>
    <TTGlyph name="ccedilla" xMin="70" yMin="-198" xMax="483" yMax="590">
      <contour>
        <pt x="256" y="-176" on="1"/>
        <pt x="299" y="-143" on="0"/>
        <pt x="299" y="-95" on="1"/>
        <pt x="270" y="-95" on="1"/>
        <pt x="270" y="-37" on="1"/>
        <pt x="336" y="-37" on="1"/>
        <pt x="336" y="-108" on="0"/>
        <pt x="310" y="-168" on="0"/>
        <pt x="276" y="-198" on="1"/>
      </contour>
      <contour>
        <pt x="70" y="132" on="0"/>
        <pt x="70" y="448" on="0"/>
        <pt x="178" y="590" on="0"/>
        <pt x="428" y="590" on="0"/>
        <pt x="483" y="521" on="1"/>
        <pt x="461" y="501" on="1"/>
        <pt x="417" y="560" on="0"/>
        <pt x="303" y="560" on="1"/>
        <pt x="253" y="560" on="0"/>
        <pt x="185" y="539" on="0"/>
        <pt x="128" y="482" on="0"/>
        <pt x="100" y="373" on="0"/>
        <pt x="100" y="207" on="0"/>
        <pt x="128" y="98" on="0"/>
        <pt x="185" y="41" on="0"/>
        <pt x="253" y="20" on="0"/>
        <pt x="303" y="20" on="1"/>
        <pt x="417" y="20" on="0"/>
        <pt x="461" y="79" on="1"/>
        <pt x="483" y="59" on="1"/>
        <pt x="428" y="-10" on="0"/>
        <pt x="178" y="-10" on="0"/>
      </contour>
    </TTGlyph>
    <TTGlyph name="ccircumflex" xMin="70" yMin="-10" xMax="483" yMax="784">
      <contour>
        <pt x="292" y="784" on="1"/>
        <pt x="409" y="644" on="1"/>
        <pt x="386" y="625" on="1"/>
        <pt x="292" y="737" on="1"/>
        <pt x="198" y="625" on="1"/>
        <pt x="175" y="644" on="1"/>
      </contour>
      <contour>
        <pt x="70" y="132" on="0"/>
        <pt x="70" y="448" on="0"/>
        <pt x="178" y="590" on="0"/>
        <pt x="428" y="590" on="0"/>
        <pt x="483" y="521" on="1"/>
        <pt x="461" y="501" on="1"/>
        <pt x="417" y="560" on="0"/>
        <pt x="303" y="560" on="1"/>
        <pt x="253" y="560" on="0"/>
        <pt x="185" y="539" on="0"/>
        <pt x="128" y="482" on="0"/>
        <pt x="100" y="373" on="0"/>
        <pt x="100" y="207" on="0"/>
        <pt x="128" y="98" on="0"/>
        <pt x="185" y="41" on="0"/>
        <pt x="253" y="20" on="0"/>
        <pt x="303" y="20" on="1"/>
        <pt x="417" y="20" on="0"/>
        <pt x="461" y="79" on="1"/>
        <pt x="483" y="59" on="1"/>
        <pt x="428" y="-10" on="0"/>
        <pt x="178" y="-10" on="0"/>
      </contour>
    </TTGlyph>
    <TTGlyph name="cdotaccent" xMin="70" yMin="-10" xMax="483" yMax="712">
      <contour>
        <pt x="269" y="712" on="1"/>
        <pt x="335" y="712" on="1"/>
        <pt x="335" y="654" on="1"/>
        <pt x="269" y="654" on="1"/>
      </contour>
      <contour>
        <pt x="70" y="132" on="0"/>
        <pt x="70" y="448" on="0"/>
        <pt x="178" y="590" on="0"/>
        <pt x="428" y="590" on="0"/>
        <pt x="483" y="521" on="1"/>
        <pt x="461" y="501" on="1"/>
        <pt x="417" y="560" on="0"/>
        <pt x="303" y="560" on="1"/>
        <pt x="253" y="560" on="0"/>
        <pt x="185" y="539" on="0"/>
        <pt x="128" y="482" on="0"/>
        <pt x="100" y="373" on="0"/>
        <pt x="100" y="207" on="0"/>
        <pt x="128" y="98" on="0"/>
        <pt x="185" y="41" on="0"/>
        <pt x="253" y="20" on="0"/>
        <pt x="303" y="20" on="1"/>
        <pt x="417" y="20" on="0"/>
        <pt x="461" y="79" on="1"/>
        <pt x="483" y="59" on="1"/>
        <pt x="428" y="-10" on="0"/>
        <pt x="178" y="-10" on="0"/>
      </contour>
    </TTGlyph>
    <TTGlyph name="cedilla" xMin="45" yMin="-198" xMax="125" yMax="-37">
      <contour>
        <pt x="45" y="-176" on="1"/>
        <pt x="88" y="-143" on="0"/>
        <pt x="88" y="-95" on="1"/>
        <pt x="59" y="-95" on="1"/>
        <pt x="59" y="-37" on="1"/>
        <pt x="125" y="-37" on="1"/>
        <pt x="125" y="-108" on="0"/>
        <pt x="99" y="-168" on="0"/>
        <pt x="65" y="-198" on="1"/>
      </contour>
    </TTGlyph>
    <TTGlyph name="cent" xMin="61" yMin="0" xMax="474" yMax="700">
      <contour>
        <pt x="301" y="0" on="1"/>
        <pt x="271" y="0" on="1"/>
        <pt x="271" y="71" on="1"/>
        <pt x="163" y="78" on="0"/>
        <pt x="61" y="222" on="0"/>
        <pt x="61" y="343" on="1"/>
        <pt x="61" y="594" on="0"/>
        <pt x="271" y="607" on="1"/>
        <pt x="271" y="700" on="1"/>
        <pt x="301" y="700" on="1"/>
        <pt x="301" y="608" on="1"/>
        <pt x="421" y="607" on="0"/>
        <pt x="474" y="539" on="1"/>
        <pt x="452" y="519" on="1"/>
        <pt x="408" y="576" on="0"/>
        <pt x="301" y="578" on="1"/>
        <pt x="301" y="108" on="1"/>
        <pt x="408" y="110" on="0"/>
        <pt x="452" y="167" on="1"/>
        <pt x="474" y="147" on="1"/>
        <pt x="416" y="73" on="0"/>
        <pt x="301" y="70" on="1"/>
      </contour>
      <contour>
        <pt x="271" y="109" on="1"/>
        <pt x="271" y="577" on="1"/>
        <pt x="91" y="564" on="0"/>
        <pt x="91" y="122" on="0"/>
      </contour>
    </TTGlyph>
    <TTGlyph name="circumflex" xMin="45" yMin="625" xMax="279" yMax="784">
      <contour>
        <pt x="162" y="784" on="1"/>
        <pt x="279" y="644" on="1"/>
        <pt x="256" y="625" on="1"/>
        <pt x="162" y="737" on="1"/>
        <pt x="68" y="625" on="1"/>
        <pt x="45" y="644" on="1"/>
      </contour>
    </TTGlyph>
    <TTGlyph name="colon" xMin="89" yMin="100" xMax="155" yMax="358">
      <contour>
        <pt x="89" y="158" on="1"/>
        <pt x="155" y="158" on="1"/>
        <pt x="155" y="100" on="1"/>
        <pt x="89" y="100" on="1"/>
      </contour>
      <contour>
        <pt x="89" y="358" on="1"/>
        <pt x="155" y="358" on="1"/>
        <pt x="155" y="300" on="1"/>
        <pt x="89" y="300" on="1"/>
      </contour>
    </TTGlyph>
    <TTGlyph name="comma" xMin="66" yMin="-172" xMax="145" yMax="58">
      <contour>
        <pt x="66" y="-156" on="1"/>
        <pt x="77" y="-141" on="0"/>
        <pt x="108" y="-47" on="0"/>
        <pt x="108" y="0" on="1"/>
        <pt x="79" y="0" on="1"/>
        <pt x="79" y="58" on="1"/>
        <pt x="145" y="58" on="1"/>
        <pt x="145" y="-93" on="0"/>
        <pt x="91" y="-172" on="1"/>
      </contour>
    </TTGlyph>
    <TTGlyph name="copyright" xMin="72" yMin="-10" xMax="538" yMax="590">
      <contour>
        <pt x="355" y="560" on="0"/>
        <pt x="255" y="560" on="0"/>
        <pt x="187" y="539" on="0"/>
        <pt x="130" y="482" on="0"/>
        <pt x="102" y="373" on="0"/>
        <pt x="102" y="207" on="0"/>
        <pt x="130" y="98" on="0"/>
        <pt x="187" y="41" on="0"/>
        <pt x="255" y="20" on="0"/>
        <pt x="355" y="20" on="0"/>
        <pt x="423" y="41" on="0"/>
        <pt x="480" y="98" on="0"/>
        <pt x="508" y="207" on="0"/>
        <pt x="508" y="373" on="0"/>
        <pt x="480" y="482" on="0"/>
        <pt x="423" y="539" on="0"/>
      </contour>
      <contour>
        <pt x="430" y="-10" on="0"/>
        <pt x="180" y="-10" on="0"/>
        <pt x="72" y="132" on="0"/>
        <pt x="72" y="448" on="0"/>
        <pt x="180" y="590" on="0"/>
        <pt x="430" y="590" on="0"/>
        <pt x="538" y="448" on="0"/>
        <pt x="538" y="132" on="0"/>
      </contour>
      <contour>
        <pt x="306" y="132" on="1"/>
        <pt x="237" y="132" on="0"/>
        <pt x="182" y="212" on="0"/>
        <pt x="182" y="290" on="1"/>
        <pt x="182" y="369" on="0"/>
        <pt x="238" y="448" on="0"/>
        <pt x="306" y="448" on="1"/>
        <pt x="372" y="448" on="0"/>
        <pt x="406" y="405" on="1"/>
        <pt x="384" y="385" on="1"/>
        <pt x="379" y="392" on="1"/>
        <pt x="359" y="418" on="0"/>
        <pt x="306" y="418" on="1"/>
        <pt x="251" y="418" on="0"/>
        <pt x="212" y="358" on="0"/>
        <pt x="212" y="290" on="1"/>
        <pt x="212" y="221" on="0"/>
        <pt x="252" y="162" on="0"/>
        <pt x="360" y="162" on="0"/>
        <pt x="379" y="188" on="1"/>
        <pt x="384" y="195" on="1"/>
        <pt x="406" y="175" on="1"/>
        <pt x="402" y="169" on="1"/>
        <pt x="373" y="132" on="0"/>
      </contour>
    </TTGlyph>
    <TTGlyph name="currency" xMin="82" yMin="92" xMax="399" yMax="408">
      <contour>
        <pt x="140" y="297" on="0"/>
        <pt x="140" y="215" on="0"/>
        <pt x="199" y="156" on="0"/>
        <pt x="281" y="156" on="0"/>
        <pt x="341" y="215" on="0"/>
        <pt x="341" y="297" on="0"/>
        <pt x="281" y="356" on="0"/>
        <pt x="199" y="356" on="0"/>
      </contour>
      <contour>
        <pt x="141" y="172" on="1"/>
        <pt x="110" y="210" on="0"/>
        <pt x="110" y="256" on="1"/>
        <pt x="110" y="297" on="0"/>
        <pt x="136" y="333" on="1"/>
        <pt x="82" y="387" on="1"/>
        <pt x="104" y="408" on="1"/>
        <pt x="157" y="355" on="1"/>
        <pt x="195" y="386" on="0"/>
        <pt x="240" y="386" on="1"/>
        <pt x="286" y="386" on="0"/>
        <pt x="324" y="355" on="1"/>
        <pt x="377" y="408" on="1"/>
        <pt x="399" y="387" on="1"/>
        <pt x="345" y="333" on="1"/>
        <pt x="371" y="297" on="0"/>
        <pt x="371" y="256" on="1"/>
        <pt x="371" y="210" on="0"/>
        <pt x="340" y="172" on="1"/>
        <pt x="399" y="113" on="1"/>
        <pt x="377" y="92" on="1"/>
        <pt x="317" y="152" on="1"/>
        <pt x="281" y="126" on="0"/>
        <pt x="199" y="126" on="0"/>
        <pt x="163" y="152" on="1"/>
        <pt x="104" y="92" on="1"/>
        <pt x="82" y="113" on="1"/>
      </contour>
    </TTGlyph>
    <TTGlyph name="d" xMin="95" yMin="0" xMax="495" yMax="580">
      <contour>
        <pt x="171" y="0" on="1"/>
        <pt x="95" y="0" on="1"/>
        <pt x="95" y="580" on="1"/>
        <pt x="171" y="580" on="1"/>
        <pt x="319" y="580" on="0"/>
        <pt x="495" y="424" on="0"/>
        <pt x="495" y="156" on="0"/>
        <pt x="319" y="0" on="0"/>
      </contour>
      <contour>
        <pt x="171" y="30" on="1"/>
        <pt x="306" y="30" on="0"/>
        <pt x="465" y="168" on="0"/>
        <pt x="465" y="412" on="0"/>
        <pt x="306" y="550" on="0"/>
        <pt x="171" y="550" on="1"/>
        <pt x="125" y="550" on="1"/>
        <pt x="125" y="30" on="1"/>
      </contour>
    </TTGlyph>
    <TTGlyph name="dagger" xMin="53" yMin="120" xMax="303" yMax="700">
      <contour>
        <pt x="53" y="538" on="1"/>
        <pt x="53" y="562" on="1"/>
        <pt x="166" y="562" on="1"/>
        <pt x="166" y="700" on="1"/>
        <pt x="190" y="700" on="1"/>
        <pt x="190" y="562" on="1"/>
        <pt x="303" y="562" on="1"/>
        <pt x="303" y="538" on="1"/>
        <pt x="190" y="538" on="1"/>
        <pt x="190" y="120" on="1"/>
        <pt x="166" y="120" on="1"/>
        <pt x="166" y="538" on="1"/>
      </contour>
    </TTGlyph>
    <TTGlyph name="daggerdbl" xMin="69" yMin="120" xMax="319" yMax="700">
      <contour>
        <pt x="319" y="282" on="1"/>
        <pt x="319" y="258" on="1"/>
        <pt x="206" y="258" on="1"/>
        <pt x="206" y="120" on="1"/>
        <pt x="182" y="120" on="1"/>
        <pt x="182" y="258" on="1"/>
        <pt x="69" y="258" on="1"/>
        <pt x="69" y="282" on="1"/>
        <pt x="182" y="282" on="1"/>
        <pt x="182" y="538" on="1"/>
        <pt x="69" y="538" on="1"/>
        <pt x="69" y="562" on="1"/>
        <pt x="182" y="562" on="1"/>
        <pt x="182" y="700" on="1"/>
        <pt x="206" y="700" on="1"/>
        <pt x="206" y="562" on="1"/>
        <pt x="319" y="562" on="1"/>
        <pt x="319" y="538" on="1"/>
        <pt x="206" y="538" on="1"/>
        <pt x="206" y="282" on="1"/>
      </contour>
    </TTGlyph>
    <TTGlyph name="dcaron" xMin="95" yMin="0" xMax="495" yMax="760">
      <contour>
        <pt x="245" y="601" on="1"/>
        <pt x="128" y="741" on="1"/>
        <pt x="151" y="760" on="1"/>
        <pt x="245" y="648" on="1"/>
        <pt x="339" y="760" on="1"/>
        <pt x="362" y="741" on="1"/>
      </contour>
      <contour>
        <pt x="171" y="0" on="1"/>
        <pt x="95" y="0" on="1"/>
        <pt x="95" y="580" on="1"/>
        <pt x="171" y="580" on="1"/>
        <pt x="319" y="580" on="0"/>
        <pt x="495" y="424" on="0"/>
        <pt x="495" y="156" on="0"/>
        <pt x="319" y="0" on="0"/>
      </contour>
      <contour>
        <pt x="171" y="30" on="1"/>
        <pt x="306" y="30" on="0"/>
        <pt x="465" y="168" on="0"/>
        <pt x="465" y="412" on="0"/>
        <pt x="306" y="550" on="0"/>
        <pt x="171" y="550" on="1"/>
        <pt x="125" y="550" on="1"/>
        <pt x="125" y="30" on="1"/>
      </contour>
    </TTGlyph>
    <TTGlyph name="dcroat" xMin="36" yMin="0" xMax="517" yMax="580">
      <contour>
        <pt x="36" y="284" on="1"/>
        <pt x="36" y="314" on="1"/>
        <pt x="117" y="314" on="1"/>
        <pt x="117" y="580" on="1"/>
        <pt x="193" y="580" on="1"/>
        <pt x="341" y="580" on="0"/>
        <pt x="517" y="424" on="0"/>
        <pt x="517" y="156" on="0"/>
        <pt x="341" y="0" on="0"/>
        <pt x="193" y="0" on="1"/>
        <pt x="117" y="0" on="1"/>
        <pt x="117" y="284" on="1"/>
      </contour>
      <contour>
        <pt x="193" y="30" on="1"/>
        <pt x="328" y="30" on="0"/>
        <pt x="487" y="168" on="0"/>
        <pt x="487" y="412" on="0"/>
        <pt x="328" y="550" on="0"/>
        <pt x="193" y="550" on="1"/>
        <pt x="147" y="550" on="1"/>
        <pt x="147" y="314" on="1"/>
        <pt x="234" y="314" on="1"/>
        <pt x="234" y="284" on="1"/>
        <pt x="147" y="284" on="1"/>
        <pt x="147" y="30" on="1"/>
      </contour>
    </TTGlyph>
    <TTGlyph name="degree" xMin="61" yMin="571" xMax="261" yMax="771">
      <contour>
        <pt x="161" y="741" on="1"/>
        <pt x="131" y="741" on="0"/>
        <pt x="91" y="699" on="0"/>
        <pt x="91" y="671" on="1"/>
        <pt x="91" y="641" on="0"/>
        <pt x="133" y="601" on="0"/>
        <pt x="161" y="601" on="1"/>
        <pt x="191" y="601" on="0"/>
        <pt x="231" y="643" on="0"/>
        <pt x="231" y="671" on="1"/>
        <pt x="231" y="701" on="0"/>
        <pt x="189" y="741" on="0"/>
      </contour>
      <contour>
        <pt x="61" y="671" on="1"/>
        <pt x="61" y="714" on="0"/>
        <pt x="121" y="771" on="0"/>
        <pt x="161" y="771" on="1"/>
        <pt x="204" y="771" on="0"/>
        <pt x="261" y="711" on="0"/>
        <pt x="261" y="671" on="1"/>
        <pt x="261" y="628" on="0"/>
        <pt x="201" y="571" on="0"/>
        <pt x="161" y="571" on="1"/>
        <pt x="118" y="571" on="0"/>
        <pt x="61" y="631" on="0"/>
      </contour>
    </TTGlyph>
    <TTGlyph name="dieresis" xMin="45" yMin="654" xMax="289" yMax="712">
      <contour>
        <pt x="223" y="712" on="1"/>
        <pt x="289" y="712" on="1"/>
        <pt x="289" y="654" on="1"/>
        <pt x="223" y="654" on="1"/>
      </contour>
      <contour>
        <pt x="45" y="712" on="1"/>
        <pt x="111" y="712" on="1"/>
        <pt x="111" y="654" on="1"/>
        <pt x="45" y="654" on="1"/>
      </contour>
    </TTGlyph>
    <TTGlyph name="divide" xMin="87" yMin="117" xMax="399" yMax="383">
      <contour>
        <pt x="210" y="383" on="1"/>
        <pt x="276" y="383" on="1"/>
        <pt x="276" y="325" on="1"/>
        <pt x="210" y="325" on="1"/>
      </contour>
      <contour>
        <pt x="87" y="235" on="1"/>
        <pt x="87" y="265" on="1"/>
        <pt x="399" y="265" on="1"/>
        <pt x="399" y="235" on="1"/>
      </contour>
      <contour>
        <pt x="210" y="175" on="1"/>
        <pt x="276" y="175" on="1"/>
        <pt x="276" y="117" on="1"/>
        <pt x="210" y="117" on="1"/>
      </contour>
    </TTGlyph>
    <TTGlyph name="dollar" xMin="66" yMin="0" xMax="469" yMax="700">
      <contour>
        <pt x="267" y="0" on="1"/>
        <pt x="237" y="0" on="1"/>
        <pt x="237" y="47" on="1"/>
        <pt x="114" y="51" on="0"/>
        <pt x="66" y="102" on="1"/>
        <pt x="86" y="124" on="1"/>
        <pt x="135" y="79" on="0"/>
        <pt x="237" y="77" on="1"/>
        <pt x="237" y="345" on="1"/>
        <pt x="198" y="357" on="0"/>
        <pt x="148" y="378" on="0"/>
        <pt x="95" y="413" on="0"/>
        <pt x="69" y="465" on="0"/>
        <pt x="69" y="500" on="1"/>
        <pt x="69" y="574" on="0"/>
        <pt x="163" y="649" on="0"/>
        <pt x="237" y="652" on="1"/>
        <pt x="237" y="700" on="1"/>
        <pt x="267" y="700" on="1"/>
        <pt x="267" y="652" on="1"/>
        <pt x="378" y="649" on="0"/>
        <pt x="427" y="597" on="1"/>
        <pt x="407" y="575" on="1"/>
        <pt x="362" y="618" on="0"/>
        <pt x="267" y="622" on="1"/>
        <pt x="267" y="368" on="1"/>
        <pt x="302" y="358" on="0"/>
        <pt x="332" y="348" on="0"/>
        <pt x="391" y="326" on="0"/>
        <pt x="420" y="304" on="0"/>
        <pt x="455" y="270" on="0"/>
        <pt x="469" y="226" on="0"/>
        <pt x="469" y="198" on="1"/>
        <pt x="469" y="132" on="0"/>
        <pt x="365" y="51" on="0"/>
        <pt x="267" y="47" on="1"/>
      </contour>
      <contour>
        <pt x="267" y="336" on="1"/>
        <pt x="267" y="78" on="1"/>
        <pt x="352" y="83" on="0"/>
        <pt x="439" y="152" on="0"/>
        <pt x="439" y="197" on="1"/>
        <pt x="439" y="222" on="0"/>
        <pt x="418" y="263" on="0"/>
        <pt x="391" y="289" on="0"/>
        <pt x="338" y="313" on="0"/>
        <pt x="301" y="326" on="0"/>
      </contour>
      <contour>
        <pt x="237" y="377" on="1"/>
        <pt x="237" y="622" on="1"/>
        <pt x="99" y="615" on="0"/>
        <pt x="99" y="498" on="1"/>
        <pt x="99" y="449" on="0"/>
        <pt x="170" y="397" on="0"/>
      </contour>
    </TTGlyph>
    <TTGlyph name="dotaccent" xMin="45" yMin="654" xMax="111" yMax="712">
      <contour>
        <pt x="45" y="712" on="1"/>
        <pt x="111" y="712" on="1"/>
        <pt x="111" y="654" on="1"/>
        <pt x="45" y="654" on="1"/>
      </contour>
    </TTGlyph>
    <TTGlyph name="dotlessi" xMin="95" yMin="0" xMax="125" yMax="580">
      <contour>
        <pt x="95" y="580" on="1"/>
        <pt x="125" y="580" on="1"/>
        <pt x="125" y="0" on="1"/>
        <pt x="95" y="0" on="1"/>
      </contour>
    </TTGlyph>
    <TTGlyph name="e" xMin="70" yMin="-10" xMax="500" yMax="590">
      <contour>
        <pt x="483" y="59" on="1"/>
        <pt x="428" y="-10" on="0"/>
        <pt x="178" y="-10" on="0"/>
        <pt x="70" y="132" on="0"/>
        <pt x="70" y="448" on="0"/>
        <pt x="178" y="590" on="0"/>
        <pt x="303" y="590" on="1"/>
        <pt x="448" y="590" on="0"/>
        <pt x="500" y="495" on="1"/>
        <pt x="255" y="290" on="1"/>
        <pt x="208" y="290" on="1"/>
        <pt x="461" y="501" on="1"/>
        <pt x="417" y="560" on="0"/>
        <pt x="303" y="560" on="1"/>
        <pt x="253" y="560" on="0"/>
        <pt x="185" y="539" on="0"/>
        <pt x="128" y="482" on="0"/>
        <pt x="100" y="373" on="0"/>
        <pt x="100" y="207" on="0"/>
        <pt x="128" y="98" on="0"/>
        <pt x="185" y="41" on="0"/>
        <pt x="253" y="20" on="0"/>
        <pt x="303" y="20" on="1"/>
        <pt x="417" y="20" on="0"/>
        <pt x="461" y="79" on="1"/>
      </contour>
    </TTGlyph>
    <TTGlyph name="eacute" xMin="70" yMin="-10" xMax="500" yMax="784">
      <contour>
        <pt x="385" y="764" on="1"/>
        <pt x="268" y="625" on="1"/>
        <pt x="245" y="644" on="1"/>
        <pt x="362" y="784" on="1"/>
      </contour>
      <contour>
        <pt x="483" y="59" on="1"/>
        <pt x="428" y="-10" on="0"/>
        <pt x="178" y="-10" on="0"/>
        <pt x="70" y="132" on="0"/>
        <pt x="70" y="448" on="0"/>
        <pt x="178" y="590" on="0"/>
        <pt x="303" y="590" on="1"/>
        <pt x="448" y="590" on="0"/>
        <pt x="500" y="495" on="1"/>
        <pt x="255" y="290" on="1"/>
        <pt x="208" y="290" on="1"/>
        <pt x="461" y="501" on="1"/>
        <pt x="417" y="560" on="0"/>
        <pt x="303" y="560" on="1"/>
        <pt x="253" y="560" on="0"/>
        <pt x="185" y="539" on="0"/>
        <pt x="128" y="482" on="0"/>
        <pt x="100" y="373" on="0"/>
        <pt x="100" y="207" on="0"/>
        <pt x="128" y="98" on="0"/>
        <pt x="185" y="41" on="0"/>
        <pt x="253" y="20" on="0"/>
        <pt x="303" y="20" on="1"/>
        <pt x="417" y="20" on="0"/>
        <pt x="461" y="79" on="1"/>
      </contour>
    </TTGlyph>
    <TTGlyph name="ebreve" xMin="70" yMin="-10" xMax="500" yMax="719">
      <contour>
        <pt x="390" y="719" on="1"/>
        <pt x="390" y="676" on="0"/>
        <pt x="330" y="619" on="0"/>
        <pt x="290" y="619" on="1"/>
        <pt x="247" y="619" on="0"/>
        <pt x="190" y="679" on="0"/>
        <pt x="190" y="719" on="1"/>
        <pt x="220" y="719" on="1"/>
        <pt x="220" y="689" on="0"/>
        <pt x="262" y="649" on="0"/>
        <pt x="290" y="649" on="1"/>
        <pt x="320" y="649" on="0"/>
        <pt x="360" y="691" on="0"/>
        <pt x="360" y="719" on="1"/>
      </contour>
      <contour>
        <pt x="483" y="59" on="1"/>
        <pt x="428" y="-10" on="0"/>
        <pt x="178" y="-10" on="0"/>
        <pt x="70" y="132" on="0"/>
        <pt x="70" y="448" on="0"/>
        <pt x="178" y="590" on="0"/>
        <pt x="303" y="590" on="1"/>
        <pt x="448" y="590" on="0"/>
        <pt x="500" y="495" on="1"/>
        <pt x="255" y="290" on="1"/>
        <pt x="208" y="290" on="1"/>
        <pt x="461" y="501" on="1"/>
        <pt x="417" y="560" on="0"/>
        <pt x="303" y="560" on="1"/>
        <pt x="253" y="560" on="0"/>
        <pt x="185" y="539" on="0"/>
        <pt x="128" y="482" on="0"/>
        <pt x="100" y="373" on="0"/>
        <pt x="100" y="207" on="0"/>
        <pt x="128" y="98" on="0"/>
        <pt x="185" y="41" on="0"/>
        <pt x="253" y="20" on="0"/>
        <pt x="303" y="20" on="1"/>
        <pt x="417" y="20" on="0"/>
        <pt x="461" y="79" on="1"/>
      </contour>
    </TTGlyph>
    <TTGlyph name="ecaron" xMin="70" yMin="-10" xMax="500" yMax="760">
      <contour>
        <pt x="302" y="601" on="1"/>
        <pt x="185" y="741" on="1"/>
        <pt x="208" y="760" on="1"/>
        <pt x="302" y="648" on="1"/>
        <pt x="396" y="760" on="1"/>
        <pt x="419" y="741" on="1"/>
      </contour>
      <contour>
        <pt x="483" y="59" on="1"/>
        <pt x="428" y="-10" on="0"/>
        <pt x="178" y="-10" on="0"/>
        <pt x="70" y="132" on="0"/>
        <pt x="70" y="448" on="0"/>
        <pt x="178" y="590" on="0"/>
        <pt x="303" y="590" on="1"/>
        <pt x="448" y="590" on="0"/>
        <pt x="500" y="495" on="1"/>
        <pt x="255" y="290" on="1"/>
        <pt x="208" y="290" on="1"/>
        <pt x="461" y="501" on="1"/>
        <pt x="417" y="560" on="0"/>
        <pt x="303" y="560" on="1"/>
        <pt x="253" y="560" on="0"/>
        <pt x="185" y="539" on="0"/>
        <pt x="128" y="482" on="0"/>
        <pt x="100" y="373" on="0"/>
        <pt x="100" y="207" on="0"/>
        <pt x="128" y="98" on="0"/>
        <pt x="185" y="41" on="0"/>
        <pt x="253" y="20" on="0"/>
        <pt x="303" y="20" on="1"/>
        <pt x="417" y="20" on="0"/>
        <pt x="461" y="79" on="1"/>
      </contour>
    </TTGlyph>
    <TTGlyph name="ecircumflex" xMin="70" yMin="-10" xMax="500" yMax="784">
      <contour>
        <pt x="292" y="784" on="1"/>
        <pt x="409" y="644" on="1"/>
        <pt x="386" y="625" on="1"/>
        <pt x="292" y="737" on="1"/>
        <pt x="198" y="625" on="1"/>
        <pt x="175" y="644" on="1"/>
      </contour>
      <contour>
        <pt x="483" y="59" on="1"/>
        <pt x="428" y="-10" on="0"/>
        <pt x="178" y="-10" on="0"/>
        <pt x="70" y="132" on="0"/>
        <pt x="70" y="448" on="0"/>
        <pt x="178" y="590" on="0"/>
        <pt x="303" y="590" on="1"/>
        <pt x="448" y="590" on="0"/>
        <pt x="500" y="495" on="1"/>
        <pt x="255" y="290" on="1"/>
        <pt x="208" y="290" on="1"/>
        <pt x="461" y="501" on="1"/>
        <pt x="417" y="560" on="0"/>
        <pt x="303" y="560" on="1"/>
        <pt x="253" y="560" on="0"/>
        <pt x="185" y="539" on="0"/>
        <pt x="128" y="482" on="0"/>
        <pt x="100" y="373" on="0"/>
        <pt x="100" y="207" on="0"/>
        <pt x="128" y="98" on="0"/>
        <pt x="185" y="41" on="0"/>
        <pt x="253" y="20" on="0"/>
        <pt x="303" y="20" on="1"/>
        <pt x="417" y="20" on="0"/>
        <pt x="461" y="79" on="1"/>
      </contour>
    </TTGlyph>
    <TTGlyph name="edieresis" xMin="70" yMin="-10" xMax="500" yMax="712">
      <contour>
        <pt x="348" y="712" on="1"/>
        <pt x="414" y="712" on="1"/>
        <pt x="414" y="654" on="1"/>
        <pt x="348" y="654" on="1"/>
      </contour>
      <contour>
        <pt x="170" y="712" on="1"/>
        <pt x="236" y="712" on="1"/>
        <pt x="236" y="654" on="1"/>
        <pt x="170" y="654" on="1"/>
      </contour>
      <contour>
        <pt x="483" y="59" on="1"/>
        <pt x="428" y="-10" on="0"/>
        <pt x="178" y="-10" on="0"/>
        <pt x="70" y="132" on="0"/>
        <pt x="70" y="448" on="0"/>
        <pt x="178" y="590" on="0"/>
        <pt x="303" y="590" on="1"/>
        <pt x="448" y="590" on="0"/>
        <pt x="500" y="495" on="1"/>
        <pt x="255" y="290" on="1"/>
        <pt x="208" y="290" on="1"/>
        <pt x="461" y="501" on="1"/>
        <pt x="417" y="560" on="0"/>
        <pt x="303" y="560" on="1"/>
        <pt x="253" y="560" on="0"/>
        <pt x="185" y="539" on="0"/>
        <pt x="128" y="482" on="0"/>
        <pt x="100" y="373" on="0"/>
        <pt x="100" y="207" on="0"/>
        <pt x="128" y="98" on="0"/>
        <pt x="185" y="41" on="0"/>
        <pt x="253" y="20" on="0"/>
        <pt x="303" y="20" on="1"/>
        <pt x="417" y="20" on="0"/>
        <pt x="461" y="79" on="1"/>
      </contour>
    </TTGlyph>
    <TTGlyph name="edotaccent" xMin="70" yMin="-10" xMax="500" yMax="712">
      <contour>
        <pt x="269" y="712" on="1"/>
        <pt x="335" y="712" on="1"/>
        <pt x="335" y="654" on="1"/>
        <pt x="269" y="654" on="1"/>
      </contour>
      <contour>
        <pt x="483" y="59" on="1"/>
        <pt x="428" y="-10" on="0"/>
        <pt x="178" y="-10" on="0"/>
        <pt x="70" y="132" on="0"/>
        <pt x="70" y="448" on="0"/>
        <pt x="178" y="590" on="0"/>
        <pt x="303" y="590" on="1"/>
        <pt x="448" y="590" on="0"/>
        <pt x="500" y="495" on="1"/>
        <pt x="255" y="290" on="1"/>
        <pt x="208" y="290" on="1"/>
        <pt x="461" y="501" on="1"/>
        <pt x="417" y="560" on="0"/>
        <pt x="303" y="560" on="1"/>
        <pt x="253" y="560" on="0"/>
        <pt x="185" y="539" on="0"/>
        <pt x="128" y="482" on="0"/>
        <pt x="100" y="373" on="0"/>
        <pt x="100" y="207" on="0"/>
        <pt x="128" y="98" on="0"/>
        <pt x="185" y="41" on="0"/>
        <pt x="253" y="20" on="0"/>
        <pt x="303" y="20" on="1"/>
        <pt x="417" y="20" on="0"/>
        <pt x="461" y="79" on="1"/>
      </contour>
    </TTGlyph>
    <TTGlyph name="egrave" xMin="70" yMin="-10" xMax="500" yMax="784">
      <contour>
        <pt x="199" y="764" on="1"/>
        <pt x="222" y="784" on="1"/>
        <pt x="339" y="644" on="1"/>
        <pt x="316" y="625" on="1"/>
      </contour>
      <contour>
        <pt x="483" y="59" on="1"/>
        <pt x="428" y="-10" on="0"/>
        <pt x="178" y="-10" on="0"/>
        <pt x="70" y="132" on="0"/>
        <pt x="70" y="448" on="0"/>
        <pt x="178" y="590" on="0"/>
        <pt x="303" y="590" on="1"/>
        <pt x="448" y="590" on="0"/>
        <pt x="500" y="495" on="1"/>
        <pt x="255" y="290" on="1"/>
        <pt x="208" y="290" on="1"/>
        <pt x="461" y="501" on="1"/>
        <pt x="417" y="560" on="0"/>
        <pt x="303" y="560" on="1"/>
        <pt x="253" y="560" on="0"/>
        <pt x="185" y="539" on="0"/>
        <pt x="128" y="482" on="0"/>
        <pt x="100" y="373" on="0"/>
        <pt x="100" y="207" on="0"/>
        <pt x="128" y="98" on="0"/>
        <pt x="185" y="41" on="0"/>
        <pt x="253" y="20" on="0"/>
        <pt x="303" y="20" on="1"/>
        <pt x="417" y="20" on="0"/>
        <pt x="461" y="79" on="1"/>
      </contour>
    </TTGlyph>
    <TTGlyph name="eight" xMin="61" yMin="-10" xMax="523" yMax="710">
      <contour>
        <pt x="404" y="-10" on="0"/>
        <pt x="178" y="-10" on="0"/>
        <pt x="61" y="105" on="0"/>
        <pt x="61" y="195" on="1"/>
        <pt x="61" y="322" on="0"/>
        <pt x="183" y="368" on="1"/>
        <pt x="99" y="415" on="0"/>
        <pt x="99" y="515" on="1"/>
        <pt x="99" y="600" on="0"/>
        <pt x="208" y="710" on="0"/>
        <pt x="291" y="710" on="1"/>
        <pt x="375" y="710" on="0"/>
        <pt x="485" y="600" on="0"/>
        <pt x="485" y="515" on="1"/>
        <pt x="485" y="415" on="0"/>
        <pt x="401" y="368" on="1"/>
        <pt x="523" y="322" on="0"/>
        <pt x="523" y="195" on="1"/>
        <pt x="523" y="105" on="0"/>
      </contour>
      <contour>
        <pt x="318" y="680" on="0"/>
        <pt x="266" y="680" on="0"/>
        <pt x="212" y="662" on="0"/>
        <pt x="161" y="626" on="0"/>
        <pt x="129" y="559" on="0"/>
        <pt x="129" y="515" on="1"/>
        <pt x="129" y="432" on="0"/>
        <pt x="198" y="394" on="1"/>
        <pt x="254" y="362" on="1"/>
        <pt x="194" y="340" on="1"/>
        <pt x="91" y="302" on="0"/>
        <pt x="91" y="195" on="1"/>
        <pt x="91" y="105" on="0"/>
        <pt x="211" y="20" on="0"/>
        <pt x="371" y="20" on="0"/>
        <pt x="493" y="105" on="0"/>
        <pt x="493" y="195" on="1"/>
        <pt x="493" y="302" on="0"/>
        <pt x="390" y="340" on="1"/>
        <pt x="330" y="362" on="1"/>
        <pt x="386" y="394" on="1"/>
        <pt x="455" y="432" on="0"/>
        <pt x="455" y="515" on="1"/>
        <pt x="455" y="559" on="0"/>
        <pt x="423" y="626" on="0"/>
        <pt x="372" y="662" on="0"/>
      </contour>
    </TTGlyph>
    <TTGlyph name="ellipsis" xMin="79" yMin="0" xMax="445" yMax="58">
      <contour>
        <pt x="79" y="58" on="1"/>
        <pt x="145" y="58" on="1"/>
        <pt x="145" y="0" on="1"/>
        <pt x="79" y="0" on="1"/>
      </contour>
      <contour>
        <pt x="229" y="58" on="1"/>
        <pt x="295" y="58" on="1"/>
        <pt x="295" y="0" on="1"/>
        <pt x="229" y="0" on="1"/>
      </contour>
      <contour>
        <pt x="379" y="58" on="1"/>
        <pt x="445" y="58" on="1"/>
        <pt x="445" y="0" on="1"/>
        <pt x="379" y="0" on="1"/>
      </contour>
    </TTGlyph>
    <TTGlyph name="emacron" xMin="70" yMin="-10" xMax="500" yMax="700">
      <contour>
        <pt x="180" y="670" on="1"/>
        <pt x="180" y="700" on="1"/>
        <pt x="400" y="700" on="1"/>
        <pt x="400" y="670" on="1"/>
      </contour>
      <contour>
        <pt x="483" y="59" on="1"/>
        <pt x="428" y="-10" on="0"/>
        <pt x="178" y="-10" on="0"/>
        <pt x="70" y="132" on="0"/>
        <pt x="70" y="448" on="0"/>
        <pt x="178" y="590" on="0"/>
        <pt x="303" y="590" on="1"/>
        <pt x="448" y="590" on="0"/>
        <pt x="500" y="495" on="1"/>
        <pt x="255" y="290" on="1"/>
        <pt x="208" y="290" on="1"/>
        <pt x="461" y="501" on="1"/>
        <pt x="417" y="560" on="0"/>
        <pt x="303" y="560" on="1"/>
        <pt x="253" y="560" on="0"/>
        <pt x="185" y="539" on="0"/>
        <pt x="128" y="482" on="0"/>
        <pt x="100" y="373" on="0"/>
        <pt x="100" y="207" on="0"/>
        <pt x="128" y="98" on="0"/>
        <pt x="185" y="41" on="0"/>
        <pt x="253" y="20" on="0"/>
        <pt x="303" y="20" on="1"/>
        <pt x="417" y="20" on="0"/>
        <pt x="461" y="79" on="1"/>
      </contour>
    </TTGlyph>
    <TTGlyph name="emdash" xMin="83" yMin="235" xMax="500" yMax="265">
      <contour>
        <pt x="83" y="235" on="1"/>
        <pt x="83" y="265" on="1"/>
        <pt x="500" y="265" on="1"/>
        <pt x="500" y="235" on="1"/>
      </contour>
    </TTGlyph>
    <TTGlyph name="endash" xMin="83" yMin="235" xMax="395" yMax="265">
      <contour>
        <pt x="83" y="235" on="1"/>
        <pt x="83" y="265" on="1"/>
        <pt x="395" y="265" on="1"/>
        <pt x="395" y="235" on="1"/>
      </contour>
    </TTGlyph>
    <TTGlyph name="eng" xMin="95" yMin="-200" xMax="511" yMax="590">
      <contour>
        <pt x="95" y="580" on="1"/>
        <pt x="125" y="580" on="1"/>
        <pt x="125" y="474" on="1"/>
        <pt x="174" y="590" on="0"/>
        <pt x="303" y="590" on="1"/>
        <pt x="511" y="590" on="0"/>
        <pt x="511" y="290" on="1"/>
        <pt x="511" y="99" on="1"/>
        <pt x="511" y="-31" on="0"/>
        <pt x="394" y="-200" on="0"/>
        <pt x="309" y="-200" on="1"/>
        <pt x="212" y="-200" on="1"/>
        <pt x="212" y="-170" on="1"/>
        <pt x="309" y="-170" on="1"/>
        <pt x="380" y="-170" on="0"/>
        <pt x="481" y="-12" on="0"/>
        <pt x="481" y="99" on="1"/>
        <pt x="481" y="290" on="1"/>
        <pt x="481" y="439" on="0"/>
        <pt x="386" y="560" on="0"/>
        <pt x="220" y="560" on="0"/>
        <pt x="125" y="439" on="0"/>
        <pt x="125" y="290" on="1"/>
        <pt x="125" y="0" on="1"/>
        <pt x="95" y="0" on="1"/>
      </contour>
    </TTGlyph>
    <TTGlyph name="eogonek" xMin="70" yMin="-196" xMax="500" yMax="590">
      <contour>
        <pt x="340" y="-9" on="1"/>
        <pt x="328" y="-10" on="0"/>
        <pt x="303" y="-10" on="1"/>
        <pt x="178" y="-10" on="0"/>
        <pt x="70" y="132" on="0"/>
        <pt x="70" y="448" on="0"/>
        <pt x="178" y="590" on="0"/>
        <pt x="303" y="590" on="1"/>
        <pt x="448" y="590" on="0"/>
        <pt x="500" y="495" on="1"/>
        <pt x="255" y="290" on="1"/>
        <pt x="208" y="290" on="1"/>
        <pt x="461" y="501" on="1"/>
        <pt x="417" y="560" on="0"/>
        <pt x="303" y="560" on="1"/>
        <pt x="253" y="560" on="0"/>
        <pt x="185" y="539" on="0"/>
        <pt x="128" y="482" on="0"/>
        <pt x="100" y="373" on="0"/>
        <pt x="100" y="207" on="0"/>
        <pt x="128" y="98" on="0"/>
        <pt x="185" y="41" on="0"/>
        <pt x="253" y="20" on="0"/>
        <pt x="303" y="20" on="1"/>
        <pt x="417" y="20" on="0"/>
        <pt x="461" y="79" on="1"/>
        <pt x="483" y="59" on="1"/>
        <pt x="450" y="17" on="0"/>
        <pt x="390" y="0" on="1"/>
        <pt x="349" y="-26" on="0"/>
        <pt x="349" y="-76" on="1"/>
        <pt x="349" y="-114" on="0"/>
        <pt x="402" y="-166" on="0"/>
        <pt x="439" y="-166" on="1"/>
        <pt x="439" y="-196" on="1"/>
        <pt x="390" y="-196" on="0"/>
        <pt x="319" y="-126" on="0"/>
        <pt x="319" y="-76" on="1"/>
        <pt x="319" y="-40" on="0"/>
      </contour>
    </TTGlyph>
    <TTGlyph name="equal" xMin="89" yMin="295" xMax="347" yMax="405">
      <contour>
        <pt x="89" y="295" on="1"/>
        <pt x="89" y="325" on="1"/>
        <pt x="347" y="325" on="1"/>
        <pt x="347" y="295" on="1"/>
      </contour>
      <contour>
        <pt x="89" y="375" on="1"/>
        <pt x="89" y="405" on="1"/>
        <pt x="347" y="405" on="1"/>
        <pt x="347" y="375" on="1"/>
      </contour>
    </TTGlyph>
    <TTGlyph name="eth" xMin="58" yMin="-10" xMax="524" yMax="714">
      <contour>
        <pt x="524" y="-10" on="0"/>
        <pt x="58" y="-10" on="0"/>
        <pt x="58" y="490" on="0"/>
        <pt x="291" y="490" on="1"/>
        <pt x="346" y="490" on="0"/>
        <pt x="385" y="477" on="1"/>
        <pt x="277" y="605" on="1"/>
        <pt x="212" y="550" on="1"/>
        <pt x="192" y="573" on="1"/>
        <pt x="258" y="628" on="1"/>
        <pt x="203" y="694" on="1"/>
        <pt x="226" y="714" on="1"/>
        <pt x="281" y="648" on="1"/>
        <pt x="344" y="700" on="1"/>
        <pt x="363" y="677" on="1"/>
        <pt x="301" y="624" on="1"/>
        <pt x="467" y="425" on="1"/>
        <pt x="524" y="356" on="0"/>
        <pt x="524" y="240" on="1"/>
      </contour>
      <contour>
        <pt x="494" y="460" on="0"/>
        <pt x="88" y="460" on="0"/>
        <pt x="88" y="20" on="0"/>
        <pt x="494" y="20" on="0"/>
      </contour>
    </TTGlyph>
    <TTGlyph name="exclam" xMin="87" yMin="0" xMax="153" yMax="700">
      <contour>
        <pt x="87" y="58" on="1"/>
        <pt x="153" y="58" on="1"/>
        <pt x="153" y="0" on="1"/>
        <pt x="87" y="0" on="1"/>
      </contour>
      <contour>
        <pt x="135" y="135" on="1"/>
        <pt x="105" y="135" on="1"/>
        <pt x="105" y="700" on="1"/>
        <pt x="135" y="700" on="1"/>
      </contour>
    </TTGlyph>
    <TTGlyph name="exclamdown" xMin="81" yMin="-120" xMax="147" yMax="580">
      <contour>
        <pt x="147" y="522" on="1"/>
        <pt x="81" y="522" on="1"/>
        <pt x="81" y="580" on="1"/>
        <pt x="147" y="580" on="1"/>
      </contour>
      <contour>
        <pt x="99" y="445" on="1"/>
        <pt x="129" y="445" on="1"/>
        <pt x="129" y="-120" on="1"/>
        <pt x="99" y="-120" on="1"/>
      </contour>
    </TTGlyph>
    <TTGlyph name="f" xMin="85" yMin="0" xMax="519" yMax="590">
      <contour>
        <pt x="85" y="0" on="1"/>
        <pt x="85" y="290" on="1"/>
        <pt x="85" y="448" on="0"/>
        <pt x="194" y="590" on="0"/>
        <pt x="318" y="590" on="1"/>
        <pt x="463" y="590" on="0"/>
        <pt x="515" y="495" on="1"/>
        <pt x="306" y="320" on="1"/>
        <pt x="519" y="320" on="1"/>
        <pt x="519" y="290" on="1"/>
        <pt x="223" y="290" on="1"/>
        <pt x="476" y="501" on="1"/>
        <pt x="432" y="560" on="0"/>
        <pt x="318" y="560" on="1"/>
        <pt x="268" y="560" on="0"/>
        <pt x="200" y="539" on="0"/>
        <pt x="143" y="482" on="0"/>
        <pt x="115" y="373" on="0"/>
        <pt x="115" y="290" on="1"/>
        <pt x="115" y="0" on="1"/>
      </contour>
    </TTGlyph>
    <TTGlyph name="five" xMin="43" yMin="-10" xMax="479" yMax="700">
      <contour>
        <pt x="139" y="482" on="1"/>
        <pt x="248" y="482" on="1"/>
        <pt x="341" y="482" on="0"/>
        <pt x="479" y="342" on="0"/>
        <pt x="479" y="237" on="1"/>
        <pt x="479" y="131" on="0"/>
        <pt x="354" y="-10" on="0"/>
        <pt x="251" y="-10" on="1"/>
        <pt x="203" y="-10" on="0"/>
        <pt x="125" y="15" on="0"/>
        <pt x="82" y="51" on="0"/>
        <pt x="52" y="87" on="0"/>
        <pt x="48" y="100" on="1"/>
        <pt x="43" y="112" on="1"/>
        <pt x="71" y="124" on="1"/>
        <pt x="72" y="120" on="0"/>
        <pt x="79" y="106" on="0"/>
        <pt x="107" y="70" on="0"/>
        <pt x="144" y="42" on="0"/>
        <pt x="211" y="20" on="0"/>
        <pt x="251" y="20" on="1"/>
        <pt x="343" y="20" on="0"/>
        <pt x="449" y="145" on="0"/>
        <pt x="449" y="237" on="1"/>
        <pt x="449" y="325" on="0"/>
        <pt x="328" y="452" on="0"/>
        <pt x="244" y="452" on="1"/>
        <pt x="109" y="452" on="1"/>
        <pt x="109" y="700" on="1"/>
        <pt x="405" y="700" on="1"/>
        <pt x="405" y="670" on="1"/>
        <pt x="139" y="670" on="1"/>
      </contour>
    </TTGlyph>
    <TTGlyph name="florin" xMin="-118" yMin="-200" xMax="318" yMax="590">
      <contour>
        <pt x="115" y="290" on="1"/>
        <pt x="115" y="100" on="1"/>
        <pt x="115" y="-58" on="0"/>
        <pt x="6" y="-200" on="0"/>
        <pt x="-118" y="-200" on="1"/>
        <pt x="-118" y="-170" on="1"/>
        <pt x="-68" y="-170" on="0"/>
        <pt x="0" y="-149" on="0"/>
        <pt x="57" y="-92" on="0"/>
        <pt x="85" y="17" on="0"/>
        <pt x="85" y="100" on="1"/>
        <pt x="85" y="290" on="1"/>
        <pt x="85" y="448" on="0"/>
        <pt x="194" y="590" on="0"/>
        <pt x="318" y="590" on="1"/>
        <pt x="318" y="560" on="1"/>
        <pt x="220" y="560" on="0"/>
        <pt x="120" y="461" on="0"/>
        <pt x="115" y="320" on="1"/>
        <pt x="311" y="320" on="1"/>
        <pt x="311" y="290" on="1"/>
      </contour>
    </TTGlyph>
    <TTGlyph name="four" xMin="33" yMin="0" xMax="417" yMax="700">
      <contour>
        <pt x="337" y="0" on="1"/>
        <pt x="307" y="0" on="1"/>
        <pt x="307" y="204" on="1"/>
        <pt x="33" y="204" on="1"/>
        <pt x="33" y="234" on="1"/>
        <pt x="302" y="700" on="1"/>
        <pt x="337" y="700" on="1"/>
        <pt x="337" y="234" on="1"/>
        <pt x="417" y="234" on="1"/>
        <pt x="417" y="204" on="1"/>
        <pt x="337" y="204" on="1"/>
      </contour>
      <contour>
        <pt x="307" y="234" on="1"/>
        <pt x="307" y="649" on="1"/>
        <pt x="68" y="234" on="1"/>
      </contour>
    </TTGlyph>
    <TTGlyph name="g" xMin="70" yMin="-200" xMax="500" yMax="590">
      <contour>
        <pt x="328" y="390" on="1"/>
        <pt x="461" y="501" on="1"/>
        <pt x="417" y="560" on="0"/>
        <pt x="303" y="560" on="1"/>
        <pt x="253" y="560" on="0"/>
        <pt x="185" y="539" on="0"/>
        <pt x="128" y="482" on="0"/>
        <pt x="100" y="373" on="0"/>
        <pt x="100" y="207" on="0"/>
        <pt x="128" y="98" on="0"/>
        <pt x="185" y="41" on="0"/>
        <pt x="253" y="20" on="0"/>
        <pt x="303" y="20" on="1"/>
        <pt x="416" y="20" on="0"/>
        <pt x="460" y="78" on="1"/>
        <pt x="460" y="255" on="1"/>
        <pt x="490" y="255" on="1"/>
        <pt x="490" y="-9" on="1"/>
        <pt x="490" y="-200" on="0"/>
        <pt x="315" y="-200" on="1"/>
        <pt x="198" y="-200" on="1"/>
        <pt x="198" y="-170" on="1"/>
        <pt x="315" y="-170" on="1"/>
        <pt x="390" y="-170" on="0"/>
        <pt x="460" y="-91" on="0"/>
        <pt x="460" y="20" on="1"/>
        <pt x="460" y="35" on="1"/>
        <pt x="406" y="-10" on="0"/>
        <pt x="303" y="-10" on="1"/>
        <pt x="178" y="-10" on="0"/>
        <pt x="70" y="132" on="0"/>
        <pt x="70" y="448" on="0"/>
        <pt x="178" y="590" on="0"/>
        <pt x="303" y="590" on="1"/>
        <pt x="448" y="590" on="0"/>
        <pt x="500" y="495" on="1"/>
        <pt x="375" y="390" on="1"/>
      </contour>
    </TTGlyph>
    <TTGlyph name="gbreve" xMin="70" yMin="-200" xMax="500" yMax="719">
      <contour>
        <pt x="403" y="719" on="1"/>
        <pt x="403" y="676" on="0"/>
        <pt x="343" y="619" on="0"/>
        <pt x="303" y="619" on="1"/>
        <pt x="260" y="619" on="0"/>
        <pt x="203" y="679" on="0"/>
        <pt x="203" y="719" on="1"/>
        <pt x="233" y="719" on="1"/>
        <pt x="233" y="689" on="0"/>
        <pt x="275" y="649" on="0"/>
        <pt x="303" y="649" on="1"/>
        <pt x="333" y="649" on="0"/>
        <pt x="373" y="691" on="0"/>
        <pt x="373" y="719" on="1"/>
      </contour>
      <contour>
        <pt x="328" y="390" on="1"/>
        <pt x="461" y="501" on="1"/>
        <pt x="417" y="560" on="0"/>
        <pt x="303" y="560" on="1"/>
        <pt x="253" y="560" on="0"/>
        <pt x="185" y="539" on="0"/>
        <pt x="128" y="482" on="0"/>
        <pt x="100" y="373" on="0"/>
        <pt x="100" y="207" on="0"/>
        <pt x="128" y="98" on="0"/>
        <pt x="185" y="41" on="0"/>
        <pt x="253" y="20" on="0"/>
        <pt x="303" y="20" on="1"/>
        <pt x="416" y="20" on="0"/>
        <pt x="460" y="78" on="1"/>
        <pt x="460" y="255" on="1"/>
        <pt x="490" y="255" on="1"/>
        <pt x="490" y="-9" on="1"/>
        <pt x="490" y="-200" on="0"/>
        <pt x="315" y="-200" on="1"/>
        <pt x="198" y="-200" on="1"/>
        <pt x="198" y="-170" on="1"/>
        <pt x="315" y="-170" on="1"/>
        <pt x="390" y="-170" on="0"/>
        <pt x="460" y="-91" on="0"/>
        <pt x="460" y="20" on="1"/>
        <pt x="460" y="35" on="1"/>
        <pt x="406" y="-10" on="0"/>
        <pt x="303" y="-10" on="1"/>
        <pt x="178" y="-10" on="0"/>
        <pt x="70" y="132" on="0"/>
        <pt x="70" y="448" on="0"/>
        <pt x="178" y="590" on="0"/>
        <pt x="303" y="590" on="1"/>
        <pt x="448" y="590" on="0"/>
        <pt x="500" y="495" on="1"/>
        <pt x="375" y="390" on="1"/>
      </contour>
    </TTGlyph>
</ttFont>
